<svg width="837" height="641" viewBox="0 0 837 641" fill="none" xmlns="http://www.w3.org/2000/svg">
<path d="M561.089 103.5V85.8H556.979C556.949 91.2 556.769 95.19 556.439 97.77C556.079 100.35 555.509 102.24 554.729 103.5H561.089ZM551.819 110.22V110.4H550.319V103.5H552.599C553.499 102.63 554.159 100.86 554.549 98.19C554.939 95.55 555.149 91.41 555.149 85.8H552.749V84.3H569.789V85.8L567.989 85.8V103.5H570.389V110.4H568.889V110.22C568.889 108.48 568.469 107.19 567.659 106.32C566.849 105.45 565.619 105 563.999 105H556.709C555.059 105 553.829 105.45 553.019 106.32C552.209 107.19 551.819 108.48 551.819 110.22Z" fill="black"/>
<path d="M561.74 183H555.8V181.5H557.87L562.58 173.67L557.21 163.8H555.68V162.3H567.02V163.8H564.86L567.62 168.87L570.59 163.8H569.12V162.3H574.82V163.8H572.42L568.52 170.49L574.55 181.5H576.32V183H564.74V181.5H566.84L563.48 175.32L559.76 181.5H561.74V183Z" fill="black"/>
<path d="M562.542 240.42H563.082V235.2H561.882V233.7H571.032V235.2H569.832V240.42H570.372C570.852 240.42 571.242 240.24 571.572 239.88C571.902 239.52 572.292 238.68 572.712 237.39C573.282 235.65 573.882 234.51 574.482 233.94C575.082 233.4 575.892 233.1 576.852 233.1C577.812 233.1 578.562 233.34 579.102 233.82C579.642 234.3 579.912 234.99 579.912 235.89C579.912 236.73 579.672 237.42 579.222 237.9C578.772 238.38 578.172 238.62 577.392 238.62C576.612 238.62 576.012 238.41 575.532 237.93C575.052 237.48 574.812 236.88 574.812 236.13C574.812 236.04 574.812 235.95 574.842 235.83C574.842 235.71 574.872 235.59 574.932 235.41C574.872 235.5 574.812 235.59 574.782 235.68C574.722 235.77 574.692 235.86 574.632 235.98C574.572 236.1 574.302 236.85 573.882 238.2C573.462 239.55 572.922 240.45 572.322 240.9C573.432 241.14 574.302 241.38 574.932 241.56C575.562 241.74 576.072 241.95 576.492 242.13C577.032 242.46 577.482 242.88 577.812 243.36C578.112 243.84 578.412 244.62 578.682 245.67C578.892 246.57 579.042 247.08 579.102 247.2C579.162 247.32 579.252 247.38 579.372 247.38C579.552 247.38 579.702 247.14 579.822 246.66C579.912 246.18 579.972 245.46 579.972 244.44H581.472C581.472 246.36 581.142 247.71 580.482 248.46C579.822 249.24 578.742 249.6 577.242 249.6C575.832 249.6 574.752 249.33 574.032 248.79C573.282 248.25 572.712 247.23 572.292 245.73C572.202 245.49 572.082 245.1 571.962 244.56C571.842 244.02 571.722 243.63 571.662 243.39C571.482 242.85 571.242 242.49 571.002 242.25C570.732 242.04 570.402 241.92 569.982 241.92H569.832V247.5H571.032V249H561.882V247.5H563.082V241.92H562.932C562.512 241.92 562.152 242.04 561.912 242.25C561.642 242.49 561.432 242.85 561.252 243.39C561.162 243.63 561.042 244.02 560.922 244.56C560.802 245.1 560.682 245.49 560.622 245.73C560.202 247.23 559.602 248.25 558.882 248.79C558.132 249.33 557.052 249.6 555.672 249.6C554.172 249.6 553.092 249.24 552.432 248.46C551.772 247.71 551.442 246.36 551.442 244.44H552.942C552.942 245.46 552.972 246.18 553.092 246.66C553.182 247.14 553.332 247.38 553.542 247.38C553.632 247.38 553.722 247.32 553.782 247.2C553.842 247.08 553.992 246.57 554.232 245.67C554.472 244.62 554.772 243.84 555.102 243.36C555.402 242.88 555.852 242.46 556.422 242.13C556.812 241.95 557.322 241.74 557.952 241.56C558.582 241.38 559.452 241.14 560.592 240.9C559.992 240.45 559.452 239.55 559.002 238.2C558.552 236.88 558.312 236.13 558.282 236.01C558.222 235.89 558.162 235.8 558.102 235.68C558.042 235.56 558.012 235.47 557.952 235.38C558.012 235.53 558.042 235.65 558.072 235.77C558.072 235.89 558.102 236.01 558.102 236.13C558.102 236.88 557.862 237.48 557.382 237.93C556.902 238.41 556.272 238.62 555.522 238.62C554.742 238.62 554.112 238.38 553.662 237.9C553.212 237.42 553.002 236.73 553.002 235.89C553.002 234.99 553.242 234.3 553.782 233.82C554.322 233.34 555.072 233.1 556.062 233.1C557.022 233.1 557.802 233.4 558.402 233.94C559.002 234.51 559.602 235.65 560.202 237.39C560.622 238.68 560.982 239.52 561.312 239.88C561.642 240.24 562.062 240.42 562.542 240.42Z" fill="black"/>
<path d="M511.89 159H495.6V157.5H497.4V139.8H495.6V138.3H511.35V144.9H509.85V144.42C509.85 142.95 509.4 141.81 508.5 141C507.6 140.22 506.31 139.8 504.66 139.8H504.3V147.69H507.06V145.68H508.71V151.53H507.06V149.19H504.3V157.5H505.8C507.3 157.5 508.44 157.08 509.22 156.24C510 155.4 510.39 154.2 510.39 152.58V152.28H511.89V159ZM503.55 133.92C503.55 134.85 503.28 135.6 502.74 136.14C502.2 136.68 501.42 136.95 500.43 136.95C499.41 136.95 498.66 136.68 498.12 136.14C497.58 135.6 497.31 134.88 497.31 133.92C497.31 132.96 497.58 132.21 498.12 131.67C498.66 131.13 499.41 130.83 500.43 130.83C501.42 130.83 502.2 131.13 502.74 131.67C503.28 132.24 503.55 132.99 503.55 133.92ZM511.08 133.92C511.08 134.85 510.78 135.6 510.24 136.14C509.7 136.68 508.92 136.95 507.93 136.95C506.91 136.95 506.16 136.68 505.62 136.14C505.08 135.6 504.84 134.88 504.84 133.92C504.84 132.96 505.08 132.21 505.62 131.67C506.16 131.13 506.91 130.83 507.93 130.83C508.92 130.83 509.7 131.13 510.24 131.67C510.78 132.24 511.08 132.99 511.08 133.92Z" fill="black"/>
<path d="M449.282 220H439.952V218.68H441.962V200.62H439.952V199.3H448.142C451.142 199.3 453.422 199.75 454.922 200.59C456.422 201.43 457.202 202.69 457.202 204.37C457.202 205.66 456.722 206.74 455.762 207.61C454.802 208.48 453.512 209.02 451.892 209.23C453.872 209.5 455.432 210.07 456.512 210.94C457.592 211.84 458.132 212.98 458.132 214.36C458.132 216.28 457.382 217.69 455.942 218.62C454.472 219.55 452.252 220 449.282 220ZM451.712 204.4C451.712 203.08 451.412 202.12 450.872 201.52C450.302 200.92 449.402 200.62 448.172 200.62H447.572V208.72H448.472C449.552 208.72 450.362 208.39 450.902 207.67C451.442 206.95 451.712 205.87 451.712 204.4ZM452.372 214.21C452.372 212.77 452.042 211.69 451.442 210.97C450.842 210.28 449.912 209.92 448.652 209.92H447.572V218.68H448.742C450.032 218.68 450.962 218.35 451.532 217.66C452.072 216.97 452.372 215.83 452.372 214.21Z" fill="black"/>
<path d="M446.438 131.38H451.298L448.838 123.91L446.438 131.38ZM446.798 139H441.068V137.68H442.838L449.348 118H452.528L459.218 137.68H460.928V139H450.638V137.68H453.338L451.718 132.7H446.018L444.428 137.68H446.798V139Z" fill="black"/>
<path d="M510.535 333.5H511.735V335H501.835V333.5H503.635V315.8H501.835V314.3H512.635V315.8H510.535V323.6L517.555 315.8H514.435V314.3H521.845V315.8H519.775L515.455 320.63L522.865 333.5H523.765V335H513.535V333.5H514.735L510.595 325.34L510.535 325.4V333.5Z" fill="black"/>
<path d="M506.862 233.32C506.862 235.51 506.952 237.01 507.192 237.79C507.402 238.57 507.762 238.96 508.302 238.96C508.692 238.96 509.022 238.57 509.262 237.73C509.502 236.89 509.622 235.72 509.622 234.22V232.6C509.622 231.07 509.502 229.9 509.262 229.06C509.022 228.22 508.662 227.8 508.212 227.8C507.732 227.8 507.402 228.25 507.192 229.15C506.952 230.05 506.862 231.46 506.862 233.32ZM517.692 238.96C518.202 238.96 518.562 238.57 518.802 237.79C519.012 237.01 519.132 235.51 519.132 233.32C519.132 231.46 519.012 230.05 518.802 229.15C518.562 228.25 518.232 227.8 517.782 227.8C517.302 227.8 516.972 228.22 516.732 229.06C516.492 229.9 516.372 231.07 516.372 232.6V234.22C516.372 235.72 516.492 236.89 516.732 237.73C516.972 238.57 517.272 238.96 517.692 238.96ZM516.372 239.5C516.372 241.6 516.492 243.34 516.762 244.66C517.032 246.01 517.512 247.3 518.172 248.5L517.932 248.83C516.972 248.26 516.042 247.36 515.202 246.16C514.332 244.96 513.612 243.55 513.012 241.96C512.412 243.52 511.692 244.93 510.822 246.13C509.952 247.33 509.022 248.23 508.062 248.83L507.822 248.5C508.482 247.3 508.932 246.01 509.202 244.66C509.472 243.34 509.622 241.6 509.622 239.5C509.262 240.22 508.782 240.73 508.212 241.09C507.642 241.45 506.982 241.6 506.202 241.6C504.372 241.6 502.872 240.79 501.702 239.17C500.532 237.55 499.962 235.6 499.962 233.32C499.962 231.04 500.532 229.12 501.732 227.5C502.902 225.91 504.402 225.1 506.202 225.1C506.982 225.1 507.642 225.31 508.212 225.67C508.782 226.06 509.262 226.63 509.622 227.35C509.622 225.22 509.472 223.48 509.232 222.13C508.962 220.78 508.482 219.49 507.822 218.26L508.062 217.93C509.022 218.53 509.922 219.43 510.792 220.63C511.632 221.83 512.382 223.24 512.982 224.8C513.552 223.24 514.272 221.86 515.142 220.66C516.012 219.46 516.942 218.53 517.932 217.93L518.172 218.26C517.482 219.49 517.002 220.78 516.762 222.13C516.492 223.48 516.372 225.22 516.372 227.35C516.732 226.63 517.182 226.06 517.752 225.67C518.322 225.31 519.012 225.1 519.792 225.1C521.592 225.1 523.062 225.91 524.262 227.5C525.432 229.12 526.032 231.04 526.032 233.32C526.032 235.6 525.432 237.55 524.262 239.17C523.092 240.79 521.592 241.6 519.792 241.6C519.012 241.6 518.322 241.45 517.752 241.09C517.182 240.73 516.732 240.22 516.372 239.5Z" fill="black"/>
<path d="M447.25 287.85C447.25 289.35 447.55 290.49 448.18 291.27C448.81 292.05 449.74 292.44 450.97 292.44H451.66V283.62H450.97C449.71 283.62 448.78 283.98 448.18 284.7C447.55 285.42 447.25 286.47 447.25 287.85ZM448.09 299.28C447.61 300.84 446.98 301.92 446.26 302.55C445.54 303.21 444.52 303.51 443.26 303.51C441.79 303.51 440.74 303.15 440.11 302.4C439.45 301.65 439.15 300.3 439.15 298.35H440.44C440.44 299.4 440.5 300.18 440.62 300.66C440.74 301.14 440.98 301.38 441.28 301.38C441.52 301.38 441.73 301.26 441.91 300.96C442.09 300.66 442.3 300.12 442.54 299.28C442.87 297.96 443.17 297.03 443.47 296.43C443.74 295.86 444.1 295.38 444.55 295.02C444.91 294.69 445.42 294.39 446.08 294.15C446.71 293.91 447.7 293.61 449.02 293.25C446.77 293.13 445 292.59 443.68 291.57C442.36 290.58 441.73 289.32 441.73 287.82C441.73 286.11 442.51 284.76 444.13 283.77C445.75 282.81 447.94 282.3 450.73 282.3H459.25V283.62H457.21V301.68H459.25V303H449.89V301.68H451.66V293.73H451.03C450.55 293.73 450.13 293.91 449.83 294.24C449.5 294.6 449.2 295.17 448.96 296.01C448.87 296.31 448.75 296.82 448.57 297.54C448.39 298.26 448.21 298.86 448.09 299.28Z" fill="black"/>
<path d="M308.84 188.62C308.84 191.74 308.03 194.32 306.47 196.36C304.91 198.4 302.81 199.42 300.2 199.42C297.62 199.42 295.58 198.46 294.02 196.48C292.46 194.53 291.62 192.04 291.53 189.01H288.59V197.89H290.66V199H282.08V197.89H284.36V179.41H282.08V178.3H290.66V179.41H288.59V187.87H291.53C291.68 184.93 292.55 182.53 294.11 180.67C295.67 178.81 297.68 177.88 300.2 177.88C302.81 177.88 304.91 178.9 306.47 180.94C308.03 182.98 308.84 185.56 308.84 188.62ZM300.2 179.08C298.7 179.08 297.65 179.83 297.02 181.33C296.39 182.83 296.09 185.26 296.09 188.62C296.09 191.98 296.39 194.44 297.05 195.94C297.68 197.47 298.73 198.22 300.2 198.22C301.64 198.22 302.69 197.47 303.32 195.97C303.95 194.47 304.28 192.01 304.28 188.62C304.28 185.26 303.95 182.83 303.32 181.33C302.69 179.83 301.64 179.08 300.2 179.08Z" fill="black"/>
<path d="M397.801 146.3H386.191V144.98H389.191V142.46C386.221 142.31 383.851 141.59 382.111 140.33C380.371 139.07 379.501 137.42 379.501 135.32C379.501 133.22 380.341 131.57 382.081 130.34C383.821 129.11 386.191 128.42 389.191 128.27V126.32H386.191V125H397.801V126.32H394.801V128.27C397.801 128.42 400.141 129.11 401.881 130.34C403.621 131.57 404.491 133.22 404.491 135.32C404.491 137.42 403.621 139.07 401.881 140.33C400.141 141.59 397.771 142.31 394.801 142.46V144.98H397.801V146.3ZM398.791 135.32C398.791 133.49 398.461 132.11 397.831 131.18C397.201 130.25 396.181 129.74 394.801 129.65V141.02C396.151 140.93 397.141 140.42 397.801 139.46C398.461 138.5 398.791 137.12 398.791 135.32ZM385.201 135.32C385.201 137.12 385.501 138.47 386.161 139.43C386.821 140.39 387.811 140.9 389.191 141.02V129.65C387.781 129.74 386.761 130.25 386.131 131.18C385.501 132.11 385.201 133.49 385.201 135.32Z" fill="black"/>
<path d="M264.618 376.3H255.378V375.31H258.378V372.25C255.498 372.1 253.218 371.41 251.538 370.18C249.858 368.95 249.018 367.33 249.018 365.32C249.018 363.34 249.828 361.72 251.508 360.52C253.158 359.32 255.438 358.63 258.378 358.45V355.99H255.378V355H264.618V355.99H261.618V358.45C264.498 358.63 266.778 359.32 268.458 360.52C270.108 361.72 270.948 363.34 270.948 365.32C270.948 367.33 270.108 368.95 268.428 370.18C266.748 371.41 264.498 372.1 261.618 372.25V375.31H264.618V376.3ZM252.528 365.32C252.528 367.24 252.978 368.68 253.908 369.64C254.838 370.6 256.338 371.14 258.378 371.23V359.44C256.218 359.56 254.718 360.07 253.848 361C252.948 361.96 252.528 363.4 252.528 365.32ZM267.468 365.32C267.468 363.4 267.018 361.99 266.118 361.03C265.218 360.07 263.718 359.56 261.618 359.47V371.23C263.688 371.17 265.188 370.63 266.088 369.67C266.988 368.71 267.468 367.24 267.468 365.32Z" fill="black"/>
<path d="M22.2011 287.01L22.2011 268.29H16.4411C16.4111 273.24 16.2011 277.17 15.7811 280.11C15.3611 283.05 14.6711 285.33 13.7111 287.01H22.2011ZM11.3111 292.44V293.4H10.3511L10.3511 287.01H12.2111C13.2911 285.45 14.0411 283.23 14.4611 280.41C14.8811 277.59 15.1211 273.54 15.1511 268.29H12.7211L12.7211 267.3H27.8711V268.29H25.4111L25.4111 287.01H28.3511L28.3511 293.4H27.3611L27.3611 292.44C27.3611 290.76 27.0311 289.59 26.4311 288.96C25.8311 288.33 24.6911 288 23.0111 288H15.6911C14.0111 288 12.8411 288.33 12.2411 288.96C11.6111 289.62 11.3111 290.76 11.3111 292.44Z" fill="black"/>
<path d="M141.814 126.01V131.44H140.824V130.69C140.824 129.43 140.524 128.5 139.924 127.9C139.324 127.3 138.394 127 137.164 127H117.514V126.01H119.854V112.93H117.514V111.97H124.504V112.93H122.944V126.01H127.954V112.93H126.124V111.97H132.844V112.93H131.044V126.01H136.054V112.93H134.494V111.97H141.454V112.93H139.144V126.01H141.814Z" fill="black"/>
<path d="M370.908 412.01V413H362.598V412.01H365.058V393.29H362.598V392.3H370.908V393.29H368.268V407.78L376.698 395.09V393.29H374.058V392.3H382.398V393.29H379.938V412.01H382.398V413H374.058V412.01H376.698V397.07L368.268 409.76V412.01H370.908Z" fill="black"/>
<path d="M279.167 461.11C279.167 463.51 278.477 465.49 277.157 467.02C275.837 468.58 274.067 469.33 271.907 469.33C270.287 469.33 268.997 468.97 268.037 468.25C267.077 467.53 266.597 466.6 266.597 465.4C266.597 464.8 266.747 464.29 267.107 463.93C267.467 463.57 267.947 463.36 268.547 463.36C269.147 463.36 269.597 463.54 269.957 463.9C270.287 464.26 270.467 464.71 270.467 465.28C270.467 465.88 270.287 466.33 269.987 466.63C269.687 466.96 269.207 467.17 268.577 467.23C268.877 467.62 269.267 467.92 269.777 468.1C270.287 468.28 270.887 468.37 271.607 468.37C273.017 468.37 274.067 467.83 274.787 466.75C275.507 465.67 275.897 463.96 275.957 461.62H270.347V460.63H275.957C275.897 458.68 275.567 457.21 274.907 456.25C274.247 455.29 273.257 454.78 271.997 454.78C270.977 454.78 270.137 455.17 269.507 455.89C268.847 456.61 268.427 457.69 268.187 459.07H267.257V453.82H268.127L268.877 454.84C269.297 454.45 269.777 454.15 270.377 453.94C270.947 453.73 271.607 453.61 272.327 453.61C274.247 453.61 275.867 454.33 277.187 455.77C278.507 457.21 279.167 458.98 279.167 461.11Z" fill="black"/>
<path d="M179.487 551.28C180.717 551.28 181.617 550.74 182.217 549.66C182.787 548.58 183.087 546.87 183.117 544.47C183.117 542.13 182.847 540.45 182.277 539.37C181.677 538.29 180.777 537.75 179.547 537.75C178.407 537.75 177.477 538.35 176.817 539.49C176.127 540.63 175.797 542.19 175.797 544.11V545.85C175.797 547.74 176.067 549.12 176.667 549.99C177.237 550.86 178.167 551.28 179.487 551.28ZM175.797 558.39H179.127V559.5H170.367V558.39H172.707V538.08H170.367V536.97C171.837 536.97 172.887 536.97 173.517 536.91C174.117 536.85 174.567 536.73 174.867 536.55L175.287 536.82V541.2C175.467 539.82 175.977 538.71 176.877 537.87C177.747 537.03 178.857 536.61 180.207 536.61C181.917 536.61 183.357 537.36 184.557 538.83C185.757 540.3 186.357 542.16 186.357 544.41C186.357 546.72 185.697 548.61 184.437 550.11C183.177 551.61 181.617 552.33 179.757 552.33C178.827 552.33 178.047 552.18 177.417 551.82C176.757 551.49 176.217 550.98 175.797 550.26V558.39Z" fill="black"/>
<path d="M30.003 462H22.383V461.01H24.843L24.843 442.29H22.383V441.3H36.543V447.63H35.553V446.64C35.553 445.05 35.193 443.94 34.533 443.28C33.873 442.62 32.643 442.29 30.903 442.29H28.053L28.053 450.54H30.093C32.373 450.54 34.263 451.08 35.763 452.1C37.263 453.12 38.043 454.5 38.043 456.18C38.043 458.07 37.353 459.51 35.973 460.5C34.593 461.52 32.613 462 30.003 462ZM34.563 456.18C34.563 454.68 34.143 453.54 33.303 452.73C32.463 451.92 31.323 451.5 29.853 451.5H28.053V461.01H29.763C31.413 461.01 32.613 460.65 33.393 459.87C34.173 459.09 34.563 457.86 34.563 456.18Z" fill="black"/>
<path d="M117.769 196H108.559V195.01H111.019V176.29H108.559V175.3H115.159C117.949 175.3 120.079 175.81 121.579 176.83C123.079 177.85 123.829 179.32 123.829 181.21C123.829 183.13 123.079 184.66 121.579 185.74C120.079 186.85 117.949 187.39 115.249 187.39H114.229V195.01H117.769V196ZM120.379 181.24C120.379 179.5 119.959 178.24 119.119 177.46C118.279 176.68 117.019 176.29 115.279 176.29H114.229V186.4H115.339C117.049 186.4 118.309 186.01 119.149 185.17C119.959 184.36 120.379 183.04 120.379 181.24Z" fill="black"/>
<path d="M232.219 118H222.769V117.01H225.889V98.29H224.749C223.129 98.29 222.019 98.62 221.419 99.22C220.819 99.85 220.549 100.99 220.549 102.64V103.9H219.589V97.3H235.399V103.9H234.439V102.64C234.439 100.99 234.139 99.85 233.569 99.22C232.969 98.62 231.859 98.29 230.239 98.29H229.099V117.01H232.219V118Z" fill="black"/>
<path d="M453.635 368.83C453.635 370.33 453.035 371.47 451.835 372.25C450.635 373.03 449.045 373.42 447.005 373.42C444.905 373.42 443.315 373.06 442.175 372.34C441.035 371.62 440.465 370.63 440.465 369.31C440.465 368.65 440.645 368.11 441.035 367.69C441.425 367.27 441.965 367.06 442.655 367.06C443.315 367.06 443.825 367.27 444.185 367.63C444.545 367.99 444.755 368.5 444.755 369.16C444.755 369.7 444.575 370.12 444.245 370.45C443.915 370.81 443.435 371.05 442.805 371.2C443.075 371.56 443.495 371.83 444.095 372.01C444.665 372.19 445.385 372.28 446.225 372.28C447.305 372.28 448.115 372.01 448.655 371.41C449.195 370.84 449.495 369.97 449.495 368.8C449.495 367.75 449.195 367 448.655 366.52C448.115 366.07 447.155 365.83 445.805 365.83H444.365V364.69H445.835C446.975 364.69 447.755 364.48 448.235 364C448.715 363.52 448.955 362.71 448.955 361.54C448.955 360.64 448.715 359.95 448.265 359.47C447.785 359.02 447.095 358.78 446.195 358.78C445.145 358.78 444.305 359.14 443.675 359.86C443.015 360.58 442.625 361.57 442.475 362.89H441.395V357.61H442.325L443.195 358.81C443.675 358.39 444.245 358.06 444.965 357.82C445.685 357.61 446.525 357.49 447.485 357.49C449.225 357.49 450.605 357.82 451.565 358.48C452.525 359.14 453.035 360.1 453.035 361.33C453.035 362.35 452.645 363.22 451.895 363.88C451.145 364.54 450.125 364.99 448.835 365.17C450.305 365.32 451.475 365.71 452.345 366.34C453.185 367 453.635 367.81 453.635 368.83Z" fill="black"/>
<path d="M231.609 277.89H233.649V279H225.339V277.89H227.499V265.02H225.339V263.88H233.649V265.02H231.609V274.26L237.399 266.55V265.02H235.359V263.88H243.669V265.02H241.509V277.89H243.669V279H235.359V277.89H237.399V268.5L231.609 276.24V277.89Z" fill="black"/>
<path d="M301.784 277H291.494V275.89H293.774V257.41H291.494V256.3H305.984V262.9H304.874V261.85C304.874 260.29 304.484 259.18 303.734 258.46C302.984 257.77 301.754 257.41 300.044 257.41H298.004V275.89H301.784V277Z" fill="black"/>
<path d="M237.914 171.89V173H228.254V171.89H230.414V159.02H228.254V157.88H241.124V163.52H240.014V162.83C240.014 161.57 239.714 160.64 239.174 159.98C238.604 159.35 237.764 159.02 236.654 159.02H234.524V171.89H237.914Z" fill="black"/>
<path d="M386.637 198.32C386.637 200.72 385.857 202.67 384.357 204.2C382.827 205.76 380.877 206.51 378.507 206.51C376.557 206.51 375.057 206.18 374.037 205.46C372.987 204.74 372.477 203.75 372.477 202.43C372.477 201.71 372.687 201.14 373.137 200.69C373.557 200.27 374.157 200.03 374.937 200.03C375.717 200.03 376.317 200.24 376.737 200.66C377.157 201.08 377.397 201.68 377.397 202.4C377.397 203 377.247 203.51 376.947 203.9C376.647 204.29 376.197 204.56 375.597 204.74C375.747 204.92 376.017 205.07 376.407 205.16C376.767 205.28 377.187 205.31 377.637 205.31C378.807 205.31 379.647 204.86 380.187 203.9C380.697 202.94 380.967 201.26 381.027 198.8H376.227V197.48H381.027C380.967 195.5 380.667 194.06 380.127 193.16C379.587 192.29 378.747 191.84 377.637 191.84C376.737 191.84 376.017 192.2 375.477 192.92C374.907 193.64 374.607 194.66 374.547 195.92H373.257V190.34H374.337L375.267 191.54C375.687 191.15 376.227 190.85 376.887 190.61C377.547 190.4 378.327 190.28 379.167 190.28C381.267 190.28 383.037 191.06 384.477 192.59C385.917 194.12 386.637 196.04 386.637 198.32Z" fill="black"/>
<path d="M114.975 256.66C114.975 258.46 114.315 259.87 113.025 260.89C111.735 261.91 109.965 262.42 107.715 262.42C106.725 262.42 105.795 262.33 104.925 262.12C104.055 261.91 103.335 261.61 102.735 261.19L101.535 262.3H100.845V255.31H101.985C101.985 257.08 102.375 258.49 103.215 259.57C104.025 260.65 105.135 261.19 106.575 261.19C107.865 261.19 108.855 260.8 109.515 260.02C110.175 259.24 110.505 258.04 110.505 256.48C110.505 254.89 110.115 253.69 109.365 252.91C108.615 252.13 107.505 251.71 106.005 251.71H104.115V250.6H106.035C107.295 250.6 108.225 250.24 108.855 249.49C109.485 248.77 109.815 247.63 109.815 246.13C109.815 244.78 109.515 243.76 108.975 243.1C108.435 242.44 107.595 242.11 106.455 242.11C105.165 242.11 104.145 242.65 103.395 243.7C102.645 244.78 102.285 246.16 102.285 247.9H101.175V241H101.835L103.035 242.11C103.665 241.69 104.355 241.39 105.105 241.18C105.855 241 106.695 240.88 107.595 240.88C109.635 240.88 111.225 241.33 112.365 242.23C113.505 243.13 114.105 244.36 114.105 245.92C114.105 247.24 113.625 248.35 112.665 249.25C111.705 250.15 110.385 250.75 108.765 251.05C110.745 251.29 112.275 251.92 113.355 252.88C114.435 253.84 114.975 255.1 114.975 256.66Z" fill="black"/>
<path d="M503.27 404.51C500.81 404.51 498.77 403.76 497.21 402.23C495.65 400.73 494.87 398.75 494.87 396.29C494.87 393.95 495.62 392.03 497.12 390.53C498.62 389.03 500.51 388.28 502.79 388.28C504.98 388.28 506.75 388.97 508.1 390.29C509.45 391.64 510.14 393.35 510.14 395.45C510.14 395.66 510.11 395.84 510.11 396.02C510.11 396.2 510.08 396.38 510.08 396.53H500.48V396.86C500.48 398.9 500.78 400.4 501.44 401.36C502.07 402.35 503.03 402.83 504.35 402.83C505.43 402.83 506.3 402.53 506.99 401.9C507.68 401.3 508.19 400.37 508.49 399.11L509.84 399.26C509.54 400.91 508.82 402.2 507.65 403.13C506.48 404.06 505.01 404.51 503.27 404.51ZM502.76 389.6C501.98 389.6 501.44 390.02 501.08 390.86C500.72 391.7 500.54 393.17 500.48 395.21H504.83C504.83 393.02 504.65 391.55 504.35 390.77C504.05 389.99 503.51 389.6 502.76 389.6Z" fill="black"/>
<path d="M331.82 114.42C329.54 114.42 327.71 113.7 326.3 112.2C324.86 110.73 324.17 108.78 324.17 106.35C324.17 104.04 324.83 102.15 326.21 100.68C327.59 99.24 329.33 98.49 331.43 98.49C333.47 98.49 335.09 99.15 336.29 100.44C337.49 101.73 338.12 103.41 338.12 105.45V105.81C338.12 105.96 338.09 106.14 338.09 106.32H328.43V106.65C328.46 108.93 328.79 110.58 329.42 111.57C330.05 112.59 331.04 113.07 332.42 113.07C333.53 113.07 334.46 112.77 335.18 112.14C335.9 111.54 336.41 110.58 336.77 109.29L337.88 109.47C337.55 111.03 336.86 112.23 335.78 113.1C334.7 114 333.38 114.42 331.82 114.42ZM331.37 99.63C330.41 99.63 329.69 100.08 329.21 100.98C328.73 101.88 328.49 103.29 328.43 105.21H334.04C334.04 103.17 333.83 101.73 333.41 100.89C332.99 100.05 332.3 99.63 331.37 99.63Z" fill="black"/>
<path d="M386.635 270.83C386.635 272.33 386.035 273.47 384.835 274.25C383.635 275.03 382.045 275.42 380.005 275.42C377.905 275.42 376.315 275.06 375.175 274.34C374.035 273.62 373.465 272.63 373.465 271.31C373.465 270.65 373.645 270.11 374.035 269.69C374.425 269.27 374.965 269.06 375.655 269.06C376.315 269.06 376.825 269.27 377.185 269.63C377.545 269.99 377.755 270.5 377.755 271.16C377.755 271.7 377.575 272.12 377.245 272.45C376.915 272.81 376.435 273.05 375.805 273.2C376.075 273.56 376.495 273.83 377.095 274.01C377.665 274.19 378.385 274.28 379.225 274.28C380.305 274.28 381.115 274.01 381.655 273.41C382.195 272.84 382.495 271.97 382.495 270.8C382.495 269.75 382.195 269 381.655 268.52C381.115 268.07 380.155 267.83 378.805 267.83H377.365V266.69H378.835C379.975 266.69 380.755 266.48 381.235 266C381.715 265.52 381.955 264.71 381.955 263.54C381.955 262.64 381.715 261.95 381.265 261.47C380.785 261.02 380.095 260.78 379.195 260.78C378.145 260.78 377.305 261.14 376.675 261.86C376.015 262.58 375.625 263.57 375.475 264.89H374.395V259.61H375.325L376.195 260.81C376.675 260.39 377.245 260.06 377.965 259.82C378.685 259.61 379.525 259.49 380.485 259.49C382.225 259.49 383.605 259.82 384.565 260.48C385.525 261.14 386.035 262.1 386.035 263.33C386.035 264.35 385.645 265.22 384.895 265.88C384.145 266.54 383.125 266.99 381.835 267.17C383.305 267.32 384.475 267.71 385.345 268.34C386.185 269 386.635 269.81 386.635 270.83Z" fill="black"/>
<path d="M344.872 336H335.122V334.89H337.882V316.41H336.982C335.482 316.47 334.432 316.8 333.862 317.46C333.262 318.12 332.992 319.26 332.992 320.85V321.9H331.852V315.3H348.142V321.9H347.002V320.85C347.002 319.23 346.702 318.06 346.102 317.4C345.502 316.74 344.452 316.41 342.982 316.41H342.112V334.89H344.872V336Z" fill="black"/>
<path d="M138.219 467H128.769V466.01H131.889V447.29H130.749C129.129 447.29 128.019 447.62 127.419 448.22C126.819 448.85 126.549 449.99 126.549 451.64V452.9H125.589V446.3H141.399V452.9H140.439V451.64C140.439 449.99 140.139 448.85 139.569 448.22C138.969 447.62 137.859 447.29 136.239 447.29H135.099V466.01H138.219V467Z" fill="black"/>
<path d="M6.61598 181.67C6.61598 183.23 7.00598 184.37 7.81598 185.09C8.59598 185.81 9.85598 186.17 11.566 186.17H12.826V177.29H11.656C9.91598 177.29 8.62598 177.65 7.81598 178.34C7.00598 179.06 6.61598 180.17 6.61598 181.67ZM6.61598 195.71C6.28598 196.28 5.89598 196.7 5.47598 196.94C5.02598 197.21 4.48598 197.33 3.88598 197.33C2.74598 197.33 1.96598 197 1.48598 196.28C1.00598 195.56 0.765977 194.21 0.765977 192.17H1.66598C1.66598 193.49 1.72598 194.42 1.90598 195.02C2.08598 195.62 2.38598 195.89 2.80598 195.89C3.07598 195.89 3.31598 195.74 3.52598 195.41C3.70598 195.08 4.03598 194.15 4.51598 192.59C5.05598 190.76 5.65598 189.53 6.31598 188.87C6.94598 188.24 8.17598 187.58 9.97598 186.92C7.93598 186.92 6.31598 186.41 5.05598 185.39C3.79598 184.4 3.16598 183.14 3.16598 181.64C3.16598 180.11 3.88598 178.85 5.38598 177.83C6.85598 176.81 8.74598 176.3 11.086 176.3H18.376V177.29H15.916V196.01H18.376V197H10.036V196.01H12.826V187.04H12.016C11.056 187.04 10.276 187.43 9.67598 188.18C9.04598 188.93 8.41598 190.4 7.81598 192.56C7.45598 193.64 7.21598 194.36 7.06598 194.72C6.91598 195.11 6.76598 195.44 6.61598 195.71Z" fill="black"/>
<path d="M187.051 239.01V225.93H182.281C182.281 227.01 182.221 228.24 182.131 229.59C182.041 230.94 181.921 232.14 181.801 233.16C181.561 234.66 181.321 235.86 181.021 236.82C180.721 237.78 180.361 238.53 179.941 239.01H187.051ZM190.141 225.93V239.01H192.811V244.44H191.821V243.69C191.821 242.43 191.521 241.5 190.921 240.9C190.321 240.3 189.391 240 188.191 240H181.261C180.031 240 179.131 240.3 178.531 240.9C177.931 241.5 177.631 242.43 177.631 243.69V244.44H176.671V239.01H178.351C178.861 238.65 179.311 237.99 179.671 237.03C180.031 236.07 180.331 234.84 180.571 233.28C180.661 232.62 180.751 231.78 180.841 230.79C180.901 229.83 180.991 228.21 181.081 225.93H178.741V224.97H192.721V225.93H190.141Z" fill="black"/>
<path d="M179.846 66H170.396V65.1H172.946V46.2H170.396V45.3H184.346V51.9H183.446V50.52C183.446 48.9 183.116 47.79 182.486 47.16C181.826 46.53 180.626 46.2 178.856 46.2H175.646V65.1H179.846V66Z" fill="black"/>
<path d="M294.156 75H284.856V74.1H288.156V55.2H286.896C285.186 55.2 284.046 55.5 283.476 56.1C282.876 56.7 282.606 57.84 282.606 59.52V60.9H281.706V54.3H297.306V60.9H296.406V59.52C296.406 57.84 296.106 56.7 295.536 56.1C294.936 55.5 293.796 55.2 292.116 55.2H290.856V74.1H294.156V75Z" fill="black"/>
<path d="M424.793 459C426.713 459 428.363 459.72 429.713 461.13C431.063 462.54 431.753 464.31 431.753 466.44C431.753 468.54 431.033 470.4 429.593 471.96C428.153 473.52 426.533 474.3 424.703 474.3C422.603 474.3 420.893 473.46 419.543 471.78C418.193 470.1 417.533 467.91 417.533 465.18C417.533 461.4 418.133 458.52 419.393 456.54C420.653 454.56 422.723 453.36 425.603 452.97C425.933 452.94 426.413 452.88 427.073 452.82C427.703 452.76 428.153 452.73 428.453 452.67C429.143 452.58 429.653 452.4 429.953 452.16C430.253 451.92 430.403 451.56 430.403 451.08H431.213C431.213 451.68 431.153 452.22 431.033 452.67C430.913 453.12 430.763 453.51 430.523 453.81C430.283 454.14 429.953 454.41 429.563 454.62C429.173 454.83 428.693 454.98 428.123 455.1C427.733 455.19 427.193 455.25 426.503 455.31C425.783 455.37 425.393 455.4 425.303 455.4C423.803 455.55 422.663 455.85 421.823 456.27C420.983 456.72 420.323 457.38 419.843 458.22C419.423 458.94 419.093 459.84 418.883 460.86C418.673 461.91 418.583 463.11 418.583 464.46H418.733C418.973 462.78 419.663 461.46 420.773 460.47C421.883 459.51 423.233 459 424.793 459ZM424.703 459.9C423.263 459.9 422.153 460.47 421.433 461.55C420.713 462.66 420.353 464.28 420.353 466.44C420.353 468.63 420.713 470.34 421.493 471.57C422.243 472.8 423.323 473.4 424.703 473.4C425.993 473.4 427.043 472.77 427.853 471.48C428.633 470.19 429.053 468.51 429.053 466.44C429.053 464.37 428.663 462.75 427.913 461.61C427.133 460.47 426.083 459.9 424.703 459.9Z" fill="black"/>
<path d="M21.4994 74.4C22.8194 74.4 23.7794 73.86 24.4394 72.72C25.0694 71.58 25.3994 69.81 25.4294 67.41C25.4294 65.07 25.1294 63.33 24.4994 62.22C23.8694 61.14 22.8794 60.57 21.5594 60.57C20.3594 60.57 19.3694 61.17 18.6194 62.37C17.8694 63.57 17.5094 65.16 17.5094 67.11V68.79C17.5094 70.74 17.8094 72.15 18.4394 73.05C19.0394 73.95 20.0594 74.4 21.4994 74.4ZM17.5094 81.45H20.8094V82.5H12.5594V81.45H14.9594V61.05H12.5594V60C14.0594 60 15.0794 60 15.6194 59.94C16.1594 59.88 16.5494 59.76 16.8194 59.58L17.1194 59.85V64.2C17.2694 62.82 17.7794 61.74 18.6494 60.9C19.5194 60.09 20.6294 59.67 21.9494 59.67C23.6594 59.67 25.1294 60.42 26.3294 61.86C27.5294 63.33 28.1294 65.19 28.1294 67.41C28.1294 69.72 27.4694 71.61 26.2094 73.08C24.9494 74.58 23.3594 75.3 21.4994 75.3C20.5994 75.3 19.8194 75.15 19.1594 74.79C18.4994 74.43 17.9594 73.89 17.5094 73.14V81.45Z" fill="black"/>
<path d="M56.6162 348.93V354.36H58.6562C60.6962 354.36 62.3162 354.75 63.4562 355.47C64.5962 356.19 65.1962 357.24 65.1962 358.62C65.1962 360.03 64.6262 361.11 63.4862 361.86C62.3462 362.64 60.7262 363 58.6562 363H51.1862V362.01H53.5262V348.93H51.1862V347.97H59.4062V348.93H56.6162ZM72.7862 363H65.1362V362.01H67.3862V348.93H64.8662V347.97H72.7862V348.93H70.4762V362.01H72.7862V363ZM58.3562 355.32H56.6162V362.01H58.3862C59.5862 362.01 60.4862 361.74 61.0862 361.17C61.6862 360.63 61.9862 359.76 61.9862 358.59C61.9862 357.45 61.6862 356.61 61.1462 356.1C60.5762 355.59 59.6462 355.32 58.3562 355.32Z" fill="black"/>
<path d="M358.572 513.3L357.372 512.19C356.712 512.58 356.082 512.85 355.422 513.03C354.762 513.21 354.012 513.3 353.202 513.3C351.852 513.3 350.622 513.03 349.512 512.43C348.402 511.83 347.442 510.99 346.662 509.85C345.942 508.86 345.372 507.72 344.982 506.46C344.562 505.2 344.382 503.91 344.382 502.62C344.382 501.39 344.562 500.13 344.982 498.87C345.402 497.61 345.972 496.5 346.722 495.48C347.532 494.34 348.492 493.5 349.602 492.9C350.712 492.3 351.912 492 353.202 492C353.922 492 354.672 492.12 355.392 492.3C356.112 492.51 356.712 492.78 357.222 493.11L358.422 492H358.872V498.9H357.972C357.972 496.92 357.552 495.45 356.772 494.43C355.962 493.41 354.762 492.9 353.202 492.9C351.222 492.9 349.782 493.71 348.822 495.33C347.862 496.95 347.382 499.38 347.382 502.62C347.382 505.86 347.862 508.29 348.852 509.94C349.812 511.59 351.282 512.4 353.202 512.4C354.822 512.4 356.022 511.89 356.862 510.84C357.702 509.82 358.122 508.29 358.122 506.28H359.022V513.3H358.572Z" fill="black"/>
<path d="M216.648 430.3C214.638 430.3 213.018 429.61 211.758 428.17C210.498 426.73 209.868 424.84 209.868 422.44C209.868 420.16 210.468 418.3 211.698 416.86C212.928 415.42 214.488 414.7 216.378 414.7C218.208 414.7 219.648 415.33 220.728 416.56C221.778 417.79 222.318 419.41 222.318 421.42V422.11H212.568V422.44C212.568 424.93 212.868 426.7 213.528 427.75C214.158 428.83 215.208 429.34 216.678 429.34C217.848 429.34 218.808 429.04 219.558 428.44C220.278 427.84 220.878 426.85 221.298 425.47L222.138 425.71C221.778 427.15 221.088 428.26 220.128 429.07C219.168 429.91 217.998 430.3 216.648 430.3ZM216.318 415.63C215.118 415.63 214.218 416.08 213.618 416.98C213.018 417.88 212.658 419.29 212.598 421.21H219.648C219.648 419.29 219.408 417.88 218.868 416.98C218.328 416.08 217.458 415.63 216.318 415.63ZM215.298 409.84C215.298 410.35 215.118 410.8 214.818 411.16C214.488 411.52 214.068 411.7 213.558 411.7C213.018 411.7 212.568 411.52 212.268 411.16C211.968 410.8 211.818 410.35 211.818 409.84C211.818 409.33 211.968 408.88 212.268 408.52C212.568 408.16 213.018 407.95 213.558 407.95C214.098 407.95 214.518 408.16 214.818 408.52C215.118 408.91 215.298 409.36 215.298 409.84ZM220.818 409.84C220.818 410.35 220.638 410.8 220.338 411.16C220.008 411.52 219.588 411.7 219.078 411.7C218.538 411.7 218.088 411.52 217.788 411.16C217.488 410.8 217.338 410.35 217.338 409.84C217.338 409.33 217.488 408.88 217.788 408.52C218.088 408.16 218.538 407.95 219.078 407.95C219.618 407.95 220.038 408.16 220.338 408.52C220.638 408.91 220.818 409.36 220.818 409.84Z" fill="black"/>
<path d="M370.685 18.99H372.365V12.9H370.805C369.605 12.9 368.615 13.2 367.895 13.74C367.175 14.28 366.815 15.06 366.815 16.02C366.815 16.98 367.145 17.7 367.865 18.21C368.555 18.75 369.485 18.99 370.685 18.99ZM368.795 21.27C368.615 21.54 368.465 21.87 368.315 22.23C368.165 22.62 367.955 23.28 367.685 24.24C367.325 25.41 366.905 26.22 366.425 26.64C365.945 27.09 365.345 27.3 364.595 27.3C363.605 27.3 362.915 26.94 362.525 26.22C362.105 25.5 361.925 24.24 361.925 22.44H362.735C362.735 23.58 362.825 24.48 363.035 25.08C363.245 25.71 363.515 26.01 363.875 26.01C364.085 26.01 364.265 25.95 364.385 25.77C364.505 25.59 364.775 24.87 365.195 23.58C365.525 22.56 365.945 21.78 366.455 21.3C366.935 20.82 367.895 20.28 369.305 19.65C367.745 19.65 366.515 19.35 365.555 18.69C364.595 18.03 364.115 17.13 364.115 15.99C364.115 14.73 364.685 13.77 365.885 13.05C367.055 12.36 368.675 12 370.745 12H377.315V12.9H374.915V26.1H377.315V27H369.665V26.1H372.365V19.77H371.345C370.775 19.77 370.295 19.89 369.875 20.13C369.455 20.37 369.095 20.76 368.795 21.27Z" fill="black"/>
<path d="M487.879 54.47L488.719 54.71C488.329 56.21 487.699 57.35 486.799 58.13C485.899 58.91 484.759 59.3 483.379 59.3C481.339 59.3 479.749 58.64 478.549 57.26C477.349 55.88 476.779 54.02 476.779 51.62C476.779 49.16 477.379 47.24 478.639 45.83C479.899 44.42 481.549 43.7 483.649 43.7C485.059 43.7 486.229 44.12 487.129 44.9C488.029 45.71 488.479 46.76 488.479 48.08C488.479 48.68 488.299 49.16 487.999 49.52C487.699 49.88 487.279 50.03 486.739 50.03C486.139 50.03 485.659 49.88 485.329 49.55C484.999 49.25 484.849 48.8 484.849 48.23C484.849 47.69 484.999 47.24 485.359 46.91C485.689 46.58 486.199 46.37 486.859 46.25C486.589 45.77 486.169 45.35 485.599 45.05C484.999 44.75 484.369 44.6 483.649 44.6C482.209 44.6 481.159 45.17 480.499 46.31C479.809 47.45 479.479 49.22 479.479 51.62C479.479 53.78 479.809 55.43 480.499 56.6C481.159 57.77 482.149 58.34 483.409 58.34C484.549 58.34 485.479 58.04 486.199 57.44C486.919 56.84 487.459 55.85 487.879 54.47Z" fill="black"/>
<path d="M175.938 363H168.828V362.1H171.378V343.2H168.828V342.3H177.378V343.2H174.078V351.3H175.938C178.098 351.3 179.958 351.84 181.488 352.89C182.988 353.97 183.768 355.35 183.768 357.06C183.768 359.01 183.078 360.48 181.758 361.5C180.408 362.52 178.458 363 175.938 363ZM175.758 352.2H174.078V362.1H175.668C177.408 362.1 178.698 361.71 179.538 360.9C180.348 360.09 180.768 358.8 180.768 357.06C180.768 355.53 180.318 354.33 179.448 353.49C178.548 352.65 177.318 352.2 175.758 352.2ZM192.168 362.1V363H184.068V362.1H186.768V343.2H184.068V342.3H192.168V343.2H189.468V362.1H192.168Z" fill="black"/>
<mask id="path-44-inside-1_222_498" fill="white">
<path fill-rule="evenodd" clip-rule="evenodd" d="M636.509 171.862C638.677 164.046 649.76 164.046 651.928 171.862L665.077 219.28L683.745 208.501C686.412 206.962 689.745 208.886 689.745 211.966V215.233L749.588 186.986C758.78 178.981 770.383 174.204 782.996 174.204C812.822 174.204 837 200.913 837 233.86C837 266.807 812.822 293.515 782.996 293.515C770.322 293.515 758.668 288.693 749.455 280.618L689.745 254.292V255.754C689.745 258.834 686.412 260.758 683.745 259.218L674.69 253.99C675.772 258.933 672.008 263.688 666.871 263.688H657.308C656.883 265.326 657.333 266.997 658.072 268.397H661.709C665.575 268.397 668.709 271.531 668.709 275.397V278.445H687.85C693.926 278.445 698.85 283.369 698.85 289.445V356.614C698.85 361.479 695.693 365.606 691.315 367.057V379.339C741.12 398.03 776.717 447.578 776.717 505.764C776.717 556.307 749.855 600.334 710.154 623.278V640.145H647.358H580.795V621.013C543.171 597.512 518 554.692 518 505.764C518 448.069 553 398.866 602.146 379.818V367.573C596.517 367.09 592.098 362.368 592.098 356.614V289.445C592.098 283.369 597.023 278.445 603.098 278.445H620.984V275.397C620.984 271.531 624.118 268.397 627.984 268.397H632.444C633.357 266.69 633.324 265.067 632.855 263.688H621.566C616.277 263.688 612.443 258.647 613.857 253.55L619.255 234.084C612.078 231.584 607.169 226.517 607.169 220.673C607.169 212.871 615.918 206.454 627.131 205.68L636.509 171.862Z"/>
</mask>
<path fill-rule="evenodd" clip-rule="evenodd" d="M636.509 171.862C638.677 164.046 649.76 164.046 651.928 171.862L665.077 219.28L683.745 208.501C686.412 206.962 689.745 208.886 689.745 211.966V215.233L749.588 186.986C758.78 178.981 770.383 174.204 782.996 174.204C812.822 174.204 837 200.913 837 233.86C837 266.807 812.822 293.515 782.996 293.515C770.322 293.515 758.668 288.693 749.455 280.618L689.745 254.292V255.754C689.745 258.834 686.412 260.758 683.745 259.218L674.69 253.99C675.772 258.933 672.008 263.688 666.871 263.688H657.308C656.883 265.326 657.333 266.997 658.072 268.397H661.709C665.575 268.397 668.709 271.531 668.709 275.397V278.445H687.85C693.926 278.445 698.85 283.369 698.85 289.445V356.614C698.85 361.479 695.693 365.606 691.315 367.057V379.339C741.12 398.03 776.717 447.578 776.717 505.764C776.717 556.307 749.855 600.334 710.154 623.278V640.145H647.358H580.795V621.013C543.171 597.512 518 554.692 518 505.764C518 448.069 553 398.866 602.146 379.818V367.573C596.517 367.09 592.098 362.368 592.098 356.614V289.445C592.098 283.369 597.023 278.445 603.098 278.445H620.984V275.397C620.984 271.531 624.118 268.397 627.984 268.397H632.444C633.357 266.69 633.324 265.067 632.855 263.688H621.566C616.277 263.688 612.443 258.647 613.857 253.55L619.255 234.084C612.078 231.584 607.169 226.517 607.169 220.673C607.169 212.871 615.918 206.454 627.131 205.68L636.509 171.862Z" fill="white"/>
<path d="M651.928 171.862L654.818 171.061V171.061L651.928 171.862ZM636.509 171.862L639.4 172.664V172.664L636.509 171.862ZM665.077 219.28L662.186 220.081L663.221 223.815L666.577 221.878L665.077 219.28ZM683.745 208.501L682.245 205.903L683.745 208.501ZM689.745 215.233H686.745V219.966L691.026 217.946L689.745 215.233ZM749.588 186.986L750.869 189.699L751.245 189.521L751.558 189.248L749.588 186.986ZM749.455 280.618L751.432 278.361L751.086 278.058L750.665 277.872L749.455 280.618ZM689.745 254.292L690.955 251.547L686.745 249.691V254.292H689.745ZM683.745 259.218L682.245 261.817L683.745 259.218ZM674.69 253.99L676.19 251.392L670.306 247.995L671.759 254.632L674.69 253.99ZM657.308 263.688V260.688H654.988L654.404 262.934L657.308 263.688ZM658.072 268.397L655.419 269.798L656.263 271.397H658.072V268.397ZM668.709 278.445H665.709V281.445H668.709V278.445ZM691.315 367.057L690.371 364.21L688.315 364.891V367.057H691.315ZM691.315 379.339H688.315V381.418L690.261 382.148L691.315 379.339ZM710.154 623.278L708.652 620.68L707.154 621.547V623.278H710.154ZM710.154 640.145V643.145H713.154V640.145H710.154ZM580.795 640.145H577.795V643.145H580.795V640.145ZM580.795 621.013H583.795V619.35L582.385 618.469L580.795 621.013ZM602.146 379.818L603.23 382.615L605.146 381.873V379.818H602.146ZM602.146 367.573H605.146V364.82L602.402 364.584L602.146 367.573ZM620.984 278.445V281.445H623.984V278.445H620.984ZM632.444 268.397V271.397H634.241L635.089 269.812L632.444 268.397ZM632.855 263.688L635.695 262.722L635.004 260.688H632.855V263.688ZM613.857 253.55L610.966 252.748L613.857 253.55ZM619.255 234.084L622.146 234.886L622.897 232.176L620.242 231.251L619.255 234.084ZM627.131 205.68L627.338 208.673L629.455 208.527L630.022 206.482L627.131 205.68ZM654.818 171.061C651.838 160.313 636.599 160.313 633.619 171.061L639.4 172.664C640.755 167.779 647.682 167.779 649.037 172.664L654.818 171.061ZM667.968 218.478L654.818 171.061L649.037 172.664L662.186 220.081L667.968 218.478ZM682.245 205.903L663.577 216.681L666.577 221.878L685.245 211.1L682.245 205.903ZM692.745 211.966C692.745 206.577 686.912 203.209 682.245 205.903L685.245 211.1C685.912 210.715 686.745 211.196 686.745 211.966H692.745ZM692.745 215.233V211.966H686.745V215.233H692.745ZM748.308 184.273L688.465 212.52L691.026 217.946L750.869 189.699L748.308 184.273ZM782.996 171.204C769.601 171.204 757.311 176.282 747.618 184.724L751.558 189.248C760.249 181.68 771.165 177.204 782.996 177.204V171.204ZM840 233.86C840 199.544 814.752 171.204 782.996 171.204V177.204C810.891 177.204 834 202.282 834 233.86H840ZM782.996 296.515C814.752 296.515 840 268.176 840 233.86H834C834 265.438 810.891 290.515 782.996 290.515V296.515ZM747.478 282.874C757.192 291.388 769.536 296.515 782.996 296.515V290.515C771.108 290.515 760.143 285.997 751.432 278.361L747.478 282.874ZM688.535 257.037L748.245 283.363L750.665 277.872L690.955 251.547L688.535 257.037ZM692.745 255.754V254.292H686.745V255.754H692.745ZM682.245 261.817C686.912 264.511 692.745 261.143 692.745 255.754H686.745C686.745 256.524 685.912 257.005 685.245 256.62L682.245 261.817ZM673.19 256.588L682.245 261.817L685.245 256.62L676.19 251.392L673.19 256.588ZM666.871 266.688C673.936 266.688 679.109 260.15 677.62 253.349L671.759 254.632C672.434 257.716 670.08 260.688 666.871 260.688V266.688ZM657.308 266.688H666.871V260.688H657.308V266.688ZM660.725 266.997C660.177 265.958 660.045 265.084 660.212 264.442L654.404 262.934C653.72 265.568 654.489 268.035 655.419 269.798L660.725 266.997ZM661.709 265.397H658.072V271.397H661.709V265.397ZM671.709 275.397C671.709 269.875 667.231 265.397 661.709 265.397V271.397C663.918 271.397 665.709 273.188 665.709 275.397H671.709ZM671.709 278.445V275.397H665.709V278.445H671.709ZM687.85 275.445H668.709V281.445H687.85V275.445ZM701.85 289.445C701.85 281.713 695.582 275.445 687.85 275.445V281.445C692.269 281.445 695.85 285.026 695.85 289.445H701.85ZM701.85 356.614V289.445H695.85V356.614H701.85ZM692.259 369.905C697.827 368.058 701.85 362.81 701.85 356.614H695.85C695.85 360.147 693.558 363.153 690.371 364.21L692.259 369.905ZM694.315 379.339V367.057H688.315V379.339H694.315ZM779.717 505.764C779.717 446.345 743.36 395.667 692.369 376.53L690.261 382.148C738.879 400.394 773.717 448.811 773.717 505.764H779.717ZM711.655 625.875C752.28 602.397 779.717 557.383 779.717 505.764H773.717C773.717 555.232 747.43 598.27 708.652 620.68L711.655 625.875ZM707.154 623.278V640.145H713.154V623.278H707.154ZM710.154 637.145H647.358V643.145H710.154V637.145ZM647.358 637.145H580.795V643.145H647.358V637.145ZM583.795 640.145V621.013H577.795V640.145H583.795ZM515 505.764C515 555.734 540.711 599.513 579.206 623.558L582.385 618.469C545.632 595.512 521 553.65 521 505.764H515ZM601.062 377.021C550.746 396.522 515 446.846 515 505.764H521C521 449.292 555.253 401.21 603.23 382.615L601.062 377.021ZM599.146 367.573V379.818H605.146V367.573H599.146ZM589.098 356.614C589.098 363.939 594.722 369.947 601.889 370.562L602.402 364.584C598.311 364.233 595.098 360.797 595.098 356.614H589.098ZM589.098 289.445V356.614H595.098V289.445H589.098ZM603.098 275.445C595.366 275.445 589.098 281.713 589.098 289.445H595.098C595.098 285.026 598.68 281.445 603.098 281.445V275.445ZM620.984 275.445H603.098V281.445H620.984V275.445ZM617.984 275.397V278.445H623.984V275.397H617.984ZM627.984 265.397C622.461 265.397 617.984 269.875 617.984 275.397H623.984C623.984 273.188 625.775 271.397 627.984 271.397V265.397ZM632.444 265.397H627.984V271.397H632.444V265.397ZM630.014 264.653C630.248 265.34 630.275 266.091 629.798 266.982L635.089 269.812C636.438 267.29 636.4 264.794 635.695 262.722L630.014 264.653ZM621.566 266.688H632.855V260.688H621.566V266.688ZM610.966 252.748C609.022 259.756 614.293 266.688 621.566 266.688V260.688C618.26 260.688 615.864 257.537 616.748 254.352L610.966 252.748ZM616.364 233.283L610.966 252.748L616.748 254.352L622.146 234.886L616.364 233.283ZM604.169 220.673C604.169 228.354 610.519 234.218 618.268 236.917L620.242 231.251C613.638 228.95 610.169 224.679 610.169 220.673H604.169ZM626.925 202.687C620.833 203.108 615.269 205.066 611.152 208.136C607.04 211.203 604.169 215.565 604.169 220.673H610.169C610.169 217.979 611.673 215.232 614.739 212.946C617.8 210.664 622.217 209.027 627.338 208.673L626.925 202.687ZM633.619 171.061L624.24 204.879L630.022 206.482L639.4 172.664L633.619 171.061Z" fill="black" mask="url(#path-44-inside-1_222_498)"/>
<rect x="595" y="281" width="101" height="84" rx="7" fill="#FFD0FD"/>
<rect x="624" y="271" width="42" height="12" rx="3" fill="#FFD0FD"/>
<path d="M602 366H691" stroke="black" stroke-width="3"/>
<path d="M633 270H657" stroke="black" stroke-width="3"/>
<path d="M620 261H635L655.5 261H667.5C671.5 260.6 672.167 257.167 672 255.5L670.5 248L685 257C686.6 257.8 687 256.667 687 256V250V219.5V211.5C687 210.3 686 210.333 685.5 210.5L663.5 223L649 171.5C645 165.5 641 169 639.5 171.5L629 208C600.5 210.5 609 231.5 622.5 232.5L616.5 254.5C614.9 258.5 618.167 260.5 620 261Z" fill="#0ABAB5" stroke="black"/>
<path d="M546.118 536.355C559.37 536.974 561.956 543.71 561.592 547L732.204 546.548C732.204 538.135 742.322 536.548 747.381 536.806V530.742C754.919 530.277 757.597 525.086 757.994 522.548C757.895 507.925 757.756 477.232 757.994 471.452C758.232 465.671 751.018 463.409 747.381 463V457.194C735.795 456.574 732.435 450.14 732.204 447H561.592C561.592 456.032 551.276 457.344 546.118 456.871V462.871C539.373 462.871 536.562 467.258 536 469.452V522.742C536 528.884 542.745 530.72 546.118 530.871V536.355Z" fill="#0ABAB5" stroke="black" stroke-width="3"/>
</svg>
