<svg width="1280" height="1418" viewBox="0 0 1280 1418" fill="none" xmlns="http://www.w3.org/2000/svg">
<g clip-path="url(#clip0_236_2)">
<rect width="1280" height="1418" fill="#0ABAB5"/>
<path d="M11 1310.96C123.95 1329.58 161.706 1382.75 166.465 1407H1104.02C1144.63 1334.82 1230.93 1312.9 1269 1310.96V108.982C1150.97 88.8036 1121.47 35.2529 1121.47 11H166.465C151.236 83.1768 56.4762 106.395 11 108.982L11 1310.96Z" stroke="#FFD0FD" stroke-width="22.1247"/>
<path d="M300.521 510H163.635V492.216H207.826V155.927H163.635V138.143H418.007V251.856H400.222V234.071C400.222 205.508 393.755 185.568 381.899 173.712C370.042 161.856 347.947 155.927 316.689 155.927H265.491V304.131H302.138C343.096 304.131 377.048 313.832 403.995 332.155C430.941 350.479 444.953 375.269 444.953 405.449C444.953 439.401 432.557 465.269 407.767 483.054C382.977 501.377 347.408 510 300.521 510ZM382.438 405.449C382.438 378.503 374.893 358.024 359.803 343.473C344.713 328.922 324.234 321.377 297.827 321.377H265.491V492.216H296.21C325.851 492.216 347.408 485.748 361.42 471.736C375.432 457.724 382.438 435.629 382.438 405.449Z" fill="black"/>
<path fill-rule="evenodd" clip-rule="evenodd" d="M247.002 159.564C248.031 151.541 249.651 143.703 251.817 136.094H422.427V286.158H398.958V262.688C398.958 224.994 390.423 198.68 374.777 183.033C359.13 167.387 329.971 159.564 288.721 159.564H247.002Z" fill="#FFD0FD"/>
<path d="M475.706 201.429C475.706 267.061 421.352 320.487 354.026 320.487C286.7 320.487 232.345 267.061 232.345 201.429C232.345 135.797 286.7 82.371 354.026 82.371C421.352 82.371 475.706 135.797 475.706 201.429Z" stroke="#FFD0FD" stroke-width="12.5876"/>
<path d="M261.59 750.02C252.255 750.02 245.391 747.549 240.723 742.058C236.056 736.841 233.585 728.879 233.036 717.896C229.741 727.78 224.524 735.743 216.836 741.509C209.148 747.275 199.813 750.02 189.105 750.02C177.024 750.02 167.963 747.549 161.374 742.058C154.784 736.566 151.764 728.879 151.764 718.445C151.764 708.286 156.157 699.775 165.492 692.91C174.553 686.046 189.654 679.731 211.07 674.24L230.839 669.023V649.804C230.839 638.821 228.368 630.584 223.7 625.093C218.758 619.601 211.619 616.856 202.01 616.856C196.518 616.856 191.851 617.679 187.458 619.327C183.065 620.974 179.221 623.445 175.926 626.466C180.593 628.113 184.163 630.309 186.634 633.33C189.105 636.35 190.478 640.194 190.478 644.587C190.478 650.078 188.83 654.197 185.81 657.491C182.515 660.786 178.122 662.159 172.631 662.159C167.14 662.159 162.747 660.786 159.726 657.491C156.432 654.197 155.059 650.078 155.059 644.587C155.059 634.153 160.276 625.367 170.984 617.679C181.692 609.992 194.596 606.148 209.972 606.148C226.171 606.148 238.527 609.717 246.764 616.581C255.001 623.445 259.119 633.604 259.119 647.058V723.662C259.119 728.33 259.668 731.899 261.316 734.095C262.963 736.566 265.16 737.665 268.455 737.665C272.848 737.665 276.417 734.919 278.614 729.428C280.81 723.936 282.183 715.974 282.183 705.266H290.42C290.42 721.191 287.949 732.448 283.556 739.587C279.163 746.725 271.749 750.02 261.59 750.02ZM181.143 714.052C181.143 720.916 182.79 726.133 186.085 729.428C189.38 732.997 194.322 734.645 200.362 734.645C209.972 734.645 217.385 730.801 222.877 722.838C228.093 714.876 230.839 703.344 230.839 688.517V677.26L214.091 682.202C202.559 685.497 194.047 689.616 188.83 694.558C183.614 699.5 181.143 706.09 181.143 714.052Z" fill="white"/>
<path d="M515.22 740.41C526.477 740.41 534.714 735.468 540.206 725.584C545.423 715.699 548.168 700.049 548.443 678.084C548.443 656.668 545.972 641.292 540.755 631.408C535.264 621.523 527.027 616.581 515.769 616.581C505.336 616.581 496.824 622.072 490.784 632.506C484.469 642.939 481.449 657.217 481.449 674.789V690.714C481.449 708.012 483.92 720.642 489.411 728.604C494.628 736.566 503.139 740.41 515.22 740.41ZM481.449 805.483H511.925V815.642H431.752V805.483H453.168V619.601H431.752V609.442C445.206 609.442 454.816 609.442 460.582 608.893C466.073 608.344 470.191 607.246 472.937 605.598L476.781 608.07V648.156C478.428 635.526 483.096 625.367 491.333 617.679C499.295 609.992 509.454 606.148 521.81 606.148C537.46 606.148 550.639 613.012 561.622 626.466C572.605 639.919 578.096 656.942 578.096 677.535C578.096 698.676 572.055 715.974 560.524 729.702C548.992 743.431 534.714 750.02 517.691 750.02C509.18 750.02 502.041 748.647 496.275 745.353C490.235 742.332 485.293 737.665 481.449 731.075V805.483Z" fill="white"/>
<path d="M809.782 609.969C827.903 609.969 843.553 616.833 856.183 630.561C868.813 644.29 875.403 661.313 875.403 682.18C875.403 703.047 868.813 720.344 856.183 733.798C843.553 747.252 827.903 753.842 809.782 753.842C790.837 753.842 775.186 747.252 763.106 734.073C750.75 720.894 744.71 703.596 744.71 682.18C744.71 660.764 750.75 643.466 763.106 630.012C775.186 616.833 790.837 609.969 809.782 609.969ZM809.782 619.304C797.426 619.304 788.366 624.246 782.874 634.131C777.108 644.015 774.363 660.215 774.363 682.18C774.363 704.145 777.108 720.07 782.874 729.954C788.366 739.839 797.426 744.781 809.782 744.781C821.588 744.781 830.649 739.564 836.689 729.131C842.73 718.697 845.75 703.047 845.75 682.18C845.75 661.313 842.73 645.663 836.689 635.229C830.649 624.795 821.588 619.304 809.782 619.304Z" fill="white"/>
<path d="M410.246 977.73H433.309V986.791H377.298V977.73H398.714V858.02H377.298V849.233H433.035L473.396 934.349L514.306 849.233H568.396V858.02H546.979V977.73H568.396V986.791H496.459V977.73H518.699V864.06L467.355 972.514H459.942L410.246 863.785V977.73Z" fill="black"/>
<path d="M793.932 989.811C784.597 989.811 777.733 987.34 773.065 981.849C768.398 976.632 765.927 968.67 765.377 957.687C762.083 967.571 756.866 975.534 749.178 981.3C741.49 987.066 732.155 989.811 721.447 989.811C709.366 989.811 700.305 987.34 693.716 981.849C687.126 976.358 684.106 968.67 684.106 958.236C684.106 948.077 688.499 939.566 697.834 932.702C706.895 925.837 721.996 919.522 743.412 914.031L763.181 908.814V889.595C763.181 878.612 760.71 870.375 756.042 864.884C751.1 859.392 743.961 856.647 734.351 856.647C728.86 856.647 724.192 857.47 719.799 859.118C715.406 860.765 711.562 863.236 708.268 866.257C712.935 867.904 716.505 870.1 718.976 873.121C721.447 876.141 722.82 879.985 722.82 884.378C722.82 889.869 721.172 893.988 718.152 897.282C714.857 900.577 710.464 901.95 704.973 901.95C699.482 901.95 695.088 900.577 692.068 897.282C688.773 893.988 687.401 889.869 687.401 884.378C687.401 873.944 692.617 865.158 703.325 857.47C714.034 849.783 726.938 845.939 742.314 845.939C758.513 845.939 770.869 849.508 779.106 856.372C787.343 863.236 791.461 873.395 791.461 886.849V963.453C791.461 968.121 792.01 971.69 793.658 973.886C795.305 976.358 797.502 977.456 800.796 977.456C805.189 977.456 808.759 974.71 810.955 969.219C813.152 963.727 814.525 955.765 814.525 945.057H822.762C822.762 960.982 820.291 972.239 815.898 979.378C811.504 986.516 804.091 989.811 793.932 989.811ZM713.484 953.843C713.484 960.707 715.132 965.924 718.427 969.219C721.721 972.788 726.664 974.436 732.704 974.436C742.314 974.436 749.727 970.592 755.218 962.629C760.435 954.667 763.181 943.135 763.181 928.308V917.051L746.432 921.993C734.901 925.288 726.389 929.407 721.172 934.349C715.955 939.291 713.484 945.881 713.484 953.843Z" fill="black"/>
<path d="M1045.79 979.641V988.702H969.734V979.641H993.621V859.93H982.09C971.931 859.93 964.517 862.676 959.85 868.167C955.182 873.658 952.986 882.17 952.986 893.976V900.841H943.925V851.144H1071.6V900.841H1062.81V893.976C1062.81 882.445 1060.34 873.933 1055.67 868.442C1050.73 862.95 1043.32 860.205 1033.43 859.93H1021.9V979.641H1045.79Z" fill="black"/>
<path fill-rule="evenodd" clip-rule="evenodd" d="M216.023 620.447C210.871 619.26 205.984 618.798 201.097 618.97C194.127 619.215 187.543 620.881 181.472 623.58C187.271 628.107 191.263 632.89 193.318 638.314C195.373 643.738 195.491 649.803 193.415 655.994C190.82 663.733 186.552 668.758 180.739 671.974C174.539 675.06 167.699 674.919 159.961 672.324C152.222 669.728 146.68 665.718 143.981 659.647C140.895 653.447 140.907 646.994 143.502 639.256C148.432 624.553 159.936 614.636 178.66 608.863C189.513 605.516 200.795 604.338 212.583 605.355C214.387 610.137 215.555 615.215 216.023 620.447Z" fill="black"/>
<path d="M221.993 651.517C217.708 685.597 187.377 709.744 154.356 705.593C121.334 701.441 97.9242 670.537 102.209 636.457C106.494 602.376 136.825 578.229 169.846 582.381C202.868 586.533 226.278 617.436 221.993 651.517Z" stroke="black" stroke-width="4.41155"/>
<path d="M1142.06 892.438C1137.05 932.253 1101.62 960.439 1063.08 955.593C1024.53 950.747 997.186 914.668 1002.19 874.853C1007.2 835.038 1042.63 806.852 1081.17 811.698C1119.71 816.544 1147.06 852.623 1142.06 892.438Z" stroke="white" stroke-width="6.19638"/>
<path fill-rule="evenodd" clip-rule="evenodd" d="M1005.64 861.736C1005.74 860.275 1005.88 858.808 1006.07 857.336C1006.41 854.636 1006.89 851.987 1007.49 849.395H1075.17V919.198H1062.83V909.556C1062.83 893.359 1059.36 881.404 1052.8 873.691C1045.86 865.978 1035.45 862.121 1021.57 861.736H1005.64Z" fill="white"/>
</g>
<defs>
<clipPath id="clip0_236_2">
<rect width="1280" height="1418" fill="white"/>
</clipPath>
</defs>
</svg>
