<svg width="1010" height="518" viewBox="0 0 1010 518" fill="none" xmlns="http://www.w3.org/2000/svg">
<path d="M28.0015 54.0703H37.2693L32.6354 40.1685L28.0015 54.0703ZM29.5114 67.2952H18.6816V65.3687H21.9618L33.5726 30.8486H37.061L48.776 65.3687H52.0562V67.2952H35.4991V65.3687H41.0181L37.8941 55.9967H27.3767L24.2527 65.3687H29.5114V67.2952ZM119.637 67.2952H105.631V65.3687H109.588V33.2958H105.631V31.3693H131.404V42.5115H129.426V41.0016C129.426 38.2941 128.749 36.3156 127.499 35.1181C126.198 33.9206 124.063 33.2958 121.095 33.2958H116.93V46.9372H120.002C124.167 46.9372 127.551 47.8744 130.207 49.7488C132.81 51.6232 134.164 54.1224 134.164 57.1422C134.164 60.4745 132.914 62.9736 130.415 64.6918C127.916 66.4621 124.323 67.2952 119.637 67.2952ZM126.614 57.1422C126.614 54.5389 125.937 52.5083 124.688 51.0504C123.438 49.5926 121.616 48.8636 119.325 48.8636H116.93V65.3687H119.273C121.772 65.3687 123.594 64.7439 124.792 63.3902C125.989 62.0885 126.614 60.0059 126.614 57.1422ZM204.368 67.2952H189.477V65.3687H193.434V33.2958H189.477V31.3693H201.868C206.971 31.3693 210.772 32.1503 213.375 33.6082C215.926 35.1181 217.228 37.3569 217.228 40.2727C217.228 42.4595 216.395 44.3339 214.833 45.8959C213.271 47.4578 211.188 48.395 208.585 48.7074C211.865 49.2281 214.416 50.2174 216.187 51.7273C217.957 53.2372 218.894 55.1637 218.894 57.5067C218.894 60.7869 217.645 63.234 215.25 64.848C212.854 66.5142 209.21 67.2952 204.368 67.2952ZM209.731 40.3247C209.731 37.9297 209.106 36.1594 207.908 35.014C206.659 33.8685 204.732 33.2958 202.129 33.2958H200.775V47.9785H203.326C205.409 47.9785 207.023 47.3537 208.116 46.052C209.158 44.8025 209.731 42.876 209.731 40.3247ZM211.136 57.3505C211.136 54.8513 210.512 52.9769 209.262 51.7273C208.012 50.4777 206.138 49.8008 203.639 49.8008H200.775V65.3687H203.639C206.242 65.3687 208.169 64.7439 209.366 63.4943C210.512 62.2447 211.136 60.2141 211.136 57.3505ZM292.249 67.2952H274.39V65.3687H278.347V33.2958H274.39V31.3693H299.538V42.8239H297.611V41.0016C297.611 38.2941 296.935 36.3677 295.633 35.1181C294.331 33.9206 292.196 33.2958 289.229 33.2958H285.688V65.3687H292.249V67.2952ZM384.6 65.3687V33.2958H375.384C375.332 42.3553 374.967 49.3322 374.291 54.1744C373.614 59.0687 372.468 62.7654 370.906 65.3687H384.6ZM366.533 75.3655V76.6671H364.554V65.3687H367.991C369.761 63.0257 371.062 59.4852 371.791 54.7471C372.52 50.0091 372.885 42.876 372.937 33.2958H368.72V31.3693H395.95V33.2958H391.993V65.3687H396.835V76.6671H394.857V75.3655C394.857 72.4497 394.232 70.3671 393.087 69.1175C391.941 67.92 389.911 67.2952 387.047 67.2952H374.343C371.427 67.2952 369.396 67.92 368.251 69.1175C367.105 70.3671 366.533 72.4497 366.533 75.3655ZM478.038 67.2952H451.589V65.3687H455.546V33.2958H451.589V31.3693H477.101V42.8239H475.175V41.0016C475.175 38.2941 474.498 36.3677 473.196 35.1181C471.894 33.9206 469.76 33.2958 466.792 33.2958H462.887V48.0306H469.656V44.1777H471.894V54.3306H469.656V49.957H462.887V65.3687H468.77C471.374 65.3687 473.248 64.796 474.394 63.5464C475.539 62.2968 476.112 60.1621 476.112 57.1422V55.6323H478.038V67.2952ZM560.46 67.2952H534.01V65.3687H537.967V33.2958H534.01V31.3693H559.523V42.8239H557.596V41.0016C557.596 38.2941 556.919 36.3677 555.618 35.1181C554.316 33.9206 552.181 33.2958 549.214 33.2958H545.309V48.0306H552.077V44.1777H554.316V54.3306H552.077V49.957H545.309V65.3687H551.192C553.795 65.3687 555.67 64.796 556.815 63.5464C557.961 62.2968 558.533 60.1621 558.533 57.1422V55.6323H560.46V67.2952ZM546.194 24.2883C546.194 25.4337 545.829 26.3709 545.152 27.0999C544.423 27.8809 543.486 28.2453 542.289 28.2453C541.039 28.2453 540.102 27.8809 539.425 27.1519C538.696 26.423 538.384 25.4337 538.384 24.2883C538.384 23.1428 538.696 22.1535 539.425 21.3725C540.102 20.6436 541.039 20.2271 542.289 20.2271C543.486 20.2271 544.423 20.6436 545.152 21.3725C545.829 22.1535 546.194 23.1428 546.194 24.2883ZM557.076 24.2883C557.076 25.4337 556.711 26.3709 555.982 27.0999C555.253 27.8809 554.316 28.2453 553.119 28.2453C551.869 28.2453 550.932 27.8809 550.255 27.1519C549.578 26.423 549.266 25.4337 549.266 24.2883C549.266 23.0907 549.578 22.1015 550.255 21.3725C550.932 20.6436 551.869 20.2271 553.119 20.2271C554.368 20.2271 555.305 20.6436 556.034 21.3725C556.711 22.1535 557.076 23.1428 557.076 24.2883ZM646.162 68.0241C644.235 68.0241 642.725 67.5034 641.58 66.4621C640.434 65.4208 639.393 63.3902 638.56 60.4745C638.352 59.9538 638.091 58.9645 637.727 57.5067C637.363 56.0488 637.05 54.9554 636.842 54.2265C636.321 52.7686 635.748 51.6752 635.072 50.9984C634.395 50.3215 633.614 49.957 632.677 49.957H630.906V65.3687H634.499V67.2952H620.129V65.3687H623.721V49.957H621.638C620.701 49.957 619.868 50.3215 619.191 50.9984C618.462 51.6752 617.89 52.7686 617.369 54.2265C617.109 54.9554 616.796 56.0488 616.432 57.5067C616.015 58.9645 615.755 59.9538 615.651 60.4745C614.766 63.4422 613.776 65.4208 612.631 66.4621C611.485 67.5034 610.028 68.0241 608.153 68.0241C605.966 68.0241 604.352 67.3993 603.415 66.1497C602.478 64.9001 602.009 62.5051 602.009 59.0687H603.884C603.884 61.2034 603.988 62.7654 604.248 63.7026C604.509 64.6918 604.977 65.1604 605.602 65.1604C606.019 65.1604 606.331 64.9522 606.643 64.4836C606.904 64.015 607.372 62.6613 608.049 60.4745C608.778 57.6629 609.351 55.8405 609.767 55.0075C610.132 54.1744 610.6 53.4455 611.173 52.8207C611.798 52.1959 612.631 51.5711 613.724 50.9984C614.766 50.4256 616.38 49.7488 618.567 49.0198C617.577 48.8116 616.744 48.1868 616.119 47.0413C615.443 45.9479 614.818 43.7611 614.193 40.533C613.516 37.3049 612.839 35.2222 612.214 34.233C611.59 33.2958 610.757 32.7751 609.819 32.7751C609.611 32.7751 609.403 32.8272 609.247 32.8792C609.09 32.9313 608.986 32.9834 608.882 33.0354C609.715 33.1396 610.444 33.504 610.965 34.1809C611.485 34.8578 611.798 35.7429 611.798 36.7842C611.798 37.8255 611.433 38.6586 610.704 39.2834C609.976 39.9082 609.038 40.2206 607.893 40.2206C606.643 40.2206 605.654 39.8561 604.925 39.0231C604.196 38.2421 603.884 37.1487 603.884 35.7429C603.884 34.233 604.352 32.9834 605.342 32.0462C606.279 31.109 607.528 30.6404 609.038 30.6404C610.288 30.6404 611.329 30.9528 612.266 31.4734C613.152 32.0462 613.881 32.8792 614.505 34.0247C614.818 34.7016 615.13 35.4826 615.443 36.3677C615.703 37.3049 616.015 38.7107 616.432 40.6371C617.005 43.7091 617.629 45.6876 618.254 46.6248C618.879 47.562 619.764 47.9785 620.805 47.9785H623.721V33.2958H620.129V31.3693H634.499V33.2958H630.906V47.9785H633.458C634.499 47.9785 635.384 47.5099 636.061 46.5727C636.738 45.6355 637.415 43.6049 638.144 40.4289C638.508 38.5545 638.82 37.2008 639.081 36.3156C639.341 35.4305 639.653 34.6495 640.018 34.0247C640.591 32.8792 641.32 32.0462 642.205 31.4734C643.038 30.9528 644.079 30.6404 645.277 30.6404C646.839 30.6404 648.088 31.109 649.025 31.9941C649.963 32.8792 650.431 34.1288 650.431 35.7429C650.431 37.2008 650.067 38.3462 649.39 39.0751C648.713 39.8561 647.724 40.2206 646.474 40.2206C645.329 40.2206 644.339 39.9082 643.611 39.2834C642.882 38.6586 642.517 37.8255 642.517 36.7842C642.517 35.847 642.777 35.014 643.298 34.3371C643.819 33.7123 644.548 33.2437 645.537 32.9834C645.381 32.9313 645.225 32.8792 645.12 32.8272C645.016 32.8272 644.86 32.7751 644.704 32.7751C643.663 32.7751 642.83 33.2958 642.205 34.233C641.58 35.2222 640.903 37.3049 640.278 40.4809C639.601 43.7611 638.925 45.9479 638.248 47.0413C637.571 48.1868 636.738 48.8116 635.696 49.0198C637.831 49.7488 639.445 50.4256 640.539 50.9463C641.632 51.519 642.517 52.1438 643.142 52.8207C643.715 53.4455 644.183 54.1744 644.6 55.0075C644.964 55.8926 645.537 57.7149 646.318 60.4745C646.995 62.8695 647.463 64.2232 647.776 64.5877C648.036 65.0042 648.401 65.1604 648.869 65.1604C649.39 65.1604 649.754 64.6918 650.015 63.6505C650.275 62.6613 650.431 61.1513 650.431 59.0687H652.254C652.254 62.5051 651.785 64.9001 650.848 66.1497C649.911 67.3993 648.349 68.0241 646.162 68.0241ZM732.299 58.0273C732.299 61.1513 731.154 63.5984 728.915 65.3687C726.676 67.139 723.604 68.0241 719.699 68.0241C717.981 68.0241 716.367 67.8679 714.857 67.5034C713.347 67.139 712.097 66.6183 711.056 65.8894L708.973 67.8158H707.776V55.6843H709.754C709.754 58.7563 710.431 61.2034 711.889 63.0778C713.295 64.9522 715.221 65.8894 717.721 65.8894C719.959 65.8894 721.678 65.2125 722.823 63.8588C723.969 62.5051 724.541 60.4224 724.541 57.7149C724.541 54.9554 723.864 52.8728 722.563 51.519C721.261 50.1653 719.335 49.4364 716.731 49.4364H713.451V47.5099H716.783C718.97 47.5099 720.584 46.8851 721.678 45.5835C722.771 44.3339 723.344 42.3553 723.344 39.752C723.344 37.409 722.823 35.6388 721.886 34.4933C720.949 33.3478 719.491 32.7751 717.512 32.7751C715.273 32.7751 713.503 33.7123 712.202 35.5346C710.9 37.409 710.275 39.8041 710.275 42.8239H708.349V30.8486H709.494L711.577 32.7751C712.67 32.0462 713.868 31.5255 715.169 31.161C716.471 30.8486 717.929 30.6404 719.491 30.6404C723.031 30.6404 725.791 31.4214 727.769 32.9834C729.748 34.5454 730.789 36.6801 730.789 39.3875C730.789 41.6785 729.956 43.6049 728.29 45.1669C726.624 46.7289 724.333 47.7702 721.521 48.2909C724.958 48.7074 727.613 49.8008 729.488 51.467C731.362 53.1331 732.299 55.3199 732.299 58.0273ZM802.936 65.3687V67.2952H787.732V65.3687H791.69V33.2958H787.732V31.3693H802.936V33.2958H799.031V56.5174L811.787 37.0446V33.2958H807.882V31.3693H823.086V33.2958H819.181V65.3687H823.086V67.2952H807.882V65.3687H811.787V41.0016L799.031 60.4745V65.3687H802.936ZM881.086 65.3687V67.2952H865.883V65.3687H869.84V33.2958H865.883V31.3693H881.086V33.2958H877.181V56.5174L889.938 37.0446V33.2958H886.033V31.3693H901.236V33.2958H897.331V65.3687H901.236V67.2952H886.033V65.3687H889.938V41.0016L877.181 60.4745V65.3687H881.086ZM889.573 17.2072C890.615 17.2072 891.396 17.5717 892.02 18.1965C892.593 18.8213 892.906 19.7064 892.906 20.7477C892.906 22.9866 892.02 24.861 890.25 26.423C888.48 27.985 886.241 28.7139 883.534 28.7139C880.774 28.7139 878.535 27.985 876.765 26.423C874.995 24.861 874.162 22.9866 874.162 20.7477C874.162 19.7064 874.422 18.8734 875.047 18.1965C875.672 17.5717 876.453 17.2072 877.494 17.2072C878.431 17.2072 879.16 17.4676 879.733 17.9882C880.253 18.5089 880.566 19.2378 880.566 20.0709C880.566 21.1643 880.149 21.9973 879.316 22.6221C878.483 23.2469 877.442 23.4031 876.192 23.0907C876.609 23.7676 877.494 24.2883 878.796 24.7048C880.097 25.1213 881.659 25.2775 883.534 25.2775C885.408 25.2775 887.022 25.1213 888.376 24.7048C889.677 24.3403 890.563 23.8197 891.031 23.0907C889.625 23.4031 888.532 23.299 887.699 22.6742C886.866 22.1015 886.501 21.2163 886.501 20.0709C886.501 19.2378 886.762 18.5089 887.334 17.9882C887.855 17.4676 888.636 17.2072 889.573 17.2072ZM970.952 32.9834C970.796 32.9313 970.64 32.8792 970.535 32.8272C970.431 32.8272 970.275 32.7751 970.119 32.7751C968.973 32.7751 968.088 33.2437 967.359 34.1288C966.63 35.066 965.954 37.0446 965.225 40.0644C964.444 43.2405 963.663 45.4273 962.882 46.5727C962.101 47.7702 961.111 48.5512 959.914 48.9157C962.101 49.7488 963.767 50.4256 964.86 50.9984C965.954 51.5711 966.839 52.1438 967.516 52.7686C968.192 53.4455 968.765 54.2786 969.234 55.2157C969.65 56.205 970.223 57.9753 970.952 60.4745C971.577 62.8175 972.045 64.1712 972.358 64.5877C972.618 65.0042 972.982 65.1604 973.451 65.1604C973.972 65.1604 974.336 64.6918 974.597 63.6505C974.857 62.6613 975.013 61.1513 975.013 59.0687H976.835C976.835 62.5051 976.367 64.9001 975.43 66.1497C974.492 67.3993 972.93 68.0241 970.848 68.0241C968.921 68.0241 967.359 67.5034 966.214 66.41C965.068 65.3687 964.027 63.3902 963.194 60.4745C963.194 60.4745 962.934 59.6414 962.465 57.9753C961.996 56.3091 961.58 55.0595 961.215 54.1224C960.591 52.6645 959.914 51.6232 959.185 50.9463C958.456 50.3215 957.571 49.957 956.582 49.957H955.176V65.3687H959.081V67.2952H944.034V65.3687H947.991V33.2958H944.034V31.3693H958.925V33.2958H955.176V47.9785H957.31C958.56 47.9785 959.601 47.5099 960.434 46.5206C961.215 45.5314 961.996 43.3967 962.83 40.1165C963.246 38.2941 963.663 36.9404 963.975 36.0553C964.287 35.2222 964.6 34.4412 964.964 33.8164C965.589 32.7751 966.318 31.942 967.203 31.4214C968.088 30.9007 969.13 30.6404 970.379 30.6404C971.889 30.6404 973.139 31.109 974.076 31.9941C975.013 32.9313 975.534 34.1809 975.534 35.7429C975.534 37.2008 975.169 38.2941 974.492 39.0751C973.763 39.8561 972.774 40.2206 971.525 40.2206C970.379 40.2206 969.442 39.9082 968.713 39.2834C967.984 38.6586 967.62 37.8255 967.62 36.7842C967.62 35.795 967.88 34.9619 968.505 34.233C969.13 33.5561 969.911 33.1396 970.952 32.9834ZM42.4239 134.369V102.296H33.9371C33.9371 107.086 33.885 110.939 33.8329 113.959C33.7809 116.979 33.6767 119.53 33.5726 121.664C33.2081 127.444 32.4792 131.453 31.3337 133.692C30.1883 135.931 28.2618 137.024 25.6585 137.024C23.9924 137.024 22.5866 136.503 21.4932 135.41C20.3998 134.317 19.8791 132.859 19.8791 131.036C19.8791 129.735 20.2436 128.693 20.9725 127.86C21.7014 127.027 22.6386 126.611 23.8882 126.611C25.0337 126.611 25.9709 126.975 26.6998 127.704C27.3767 128.433 27.7411 129.318 27.7411 130.412C27.7411 131.557 27.3767 132.494 26.6478 133.223C25.9188 133.952 24.9816 134.265 23.8882 134.265C24.0965 134.525 24.3568 134.733 24.6692 134.837C24.9816 134.941 25.3982 134.994 25.9188 134.994C27.6891 134.889 28.9387 133.744 29.7197 131.505C30.4486 129.318 30.9693 125.361 31.2296 119.738C31.2817 117.812 31.3337 115.521 31.3858 112.813C31.3858 110.158 31.4379 106.669 31.4379 102.296H26.4916V100.369H53.6182V102.296H49.6611V134.369H53.6182V136.295H38.3106V134.369H42.4239ZM102.782 134.369H108.249V136.295H96.3774V134.369H100.334V102.296H96.3774V100.369H108.301L116.996 121.873L125.743 100.369H137.666V102.296H133.709V134.369H137.666V136.295H121.734V134.369H126.316V104.899L115.486 131.557H113.559L102.782 104.795V134.369ZM208.385 136.295H193.494V134.369H197.451V102.296H193.494V100.369H208.385V102.296H204.792V116.979H216.715V102.296H213.123V100.369H228.014V102.296H224.057V134.369H228.014V136.295H213.123V134.369H216.715V118.957H204.792V134.369H208.385V136.295ZM285.89 99.6404C290.524 99.6404 294.273 101.463 297.136 105.003C300 108.596 301.458 113.021 301.458 118.332C301.458 123.643 300 128.121 297.136 131.661C294.273 135.254 290.524 137.024 285.89 137.024C281.204 137.024 277.455 135.254 274.591 131.661C271.728 128.121 270.322 123.643 270.322 118.332C270.322 113.021 271.728 108.596 274.591 105.003C277.455 101.463 281.204 99.6404 285.89 99.6404ZM285.89 101.619C283.182 101.619 281.204 102.973 280.006 105.628C278.809 108.283 278.236 112.501 278.236 118.332C278.236 124.164 278.809 128.433 280.006 131.089C281.204 133.744 283.182 135.046 285.89 135.046C288.597 135.046 290.524 133.744 291.721 131.089C292.919 128.433 293.544 124.164 293.544 118.332C293.544 112.501 292.919 108.283 291.721 105.628C290.524 102.973 288.597 101.619 285.89 101.619ZM372.16 136.295H357.269V134.369H361.226V102.296H357.269V100.369H391.112V102.296H387.155V134.369H391.112V136.295H376.221V134.369H379.762V102.296H368.567V134.369H372.16V136.295ZM464.093 136.295H446.911V134.369H450.868V102.296H446.911V100.369H459.615C464.613 100.369 468.414 101.254 471.017 103.025C473.621 104.795 474.975 107.294 474.975 110.626C474.975 114.063 473.621 116.718 471.017 118.593C468.414 120.519 464.717 121.456 459.979 121.456H458.209V134.369H464.093V136.295ZM467.425 110.678C467.425 107.711 466.8 105.576 465.551 104.274C464.301 102.973 462.374 102.296 459.719 102.296H458.209V119.53H459.771C462.374 119.53 464.301 118.853 465.551 117.447C466.8 116.041 467.425 113.802 467.425 110.678ZM553.1 136.816L551.018 134.785C549.976 135.566 548.935 136.139 547.789 136.503C546.644 136.868 545.342 137.024 543.884 137.024C541.489 137.024 539.355 136.555 537.376 135.514C535.398 134.473 533.679 133.015 532.274 131.036C530.972 129.37 529.983 127.392 529.306 125.153C528.577 122.914 528.265 120.623 528.265 118.28C528.265 115.989 528.577 113.75 529.306 111.512C530.035 109.325 531.024 107.346 532.326 105.576C533.784 103.702 535.45 102.244 537.428 101.202C539.407 100.161 541.542 99.6404 543.832 99.6404C545.186 99.6404 546.488 99.8486 547.685 100.161C548.883 100.526 549.924 101.046 550.757 101.671L552.84 99.8486H553.985V111.824H552.059C552.059 108.7 551.382 106.201 550.132 104.43C548.831 102.66 547.008 101.775 544.665 101.775C541.698 101.775 539.563 103.129 538.209 105.784C536.856 108.492 536.179 112.657 536.179 118.28C536.179 123.903 536.856 128.121 538.261 130.828C539.615 133.536 541.75 134.889 544.665 134.889C547.113 134.889 548.987 134.004 550.341 132.182C551.642 130.412 552.319 127.86 552.319 124.632H554.246V136.816H553.1ZM631.276 136.295H614.354V134.369H619.144V102.296H617.582C614.979 102.4 613.157 102.973 612.167 104.118C611.126 105.264 610.657 107.242 610.657 110.002V111.824H608.679V100.369H636.951V111.824H634.972V110.002C634.972 107.19 634.452 105.159 633.41 104.014C632.369 102.868 630.547 102.296 627.995 102.296H626.486V134.369H631.276V136.295ZM709.904 137.024C708.03 137.024 706.52 136.451 705.374 135.254C704.229 134.056 703.656 132.39 703.656 130.308C703.656 128.954 704.021 127.912 704.75 127.079C705.478 126.246 706.52 125.83 707.769 125.83C708.915 125.83 709.852 126.246 710.581 126.975C711.258 127.704 711.622 128.641 711.622 129.787C711.622 130.932 711.258 131.87 710.529 132.546C709.8 133.223 708.707 133.588 707.301 133.692C707.509 134.108 707.821 134.421 708.342 134.629C708.863 134.837 709.488 134.941 710.216 134.941C711.414 134.941 712.403 134.577 713.236 133.796C714.017 133.015 715.007 131.297 716.152 128.641L703.916 102.296H700.376V100.369H716.985V102.296H711.466L719.641 119.842L726.149 102.296H721.619V100.369H731.98V102.296H728.648L720.89 122.706C718.495 129.058 716.621 133.067 715.319 134.629C713.965 136.243 712.195 137.024 709.904 137.024ZM810.516 136.816H792.709V134.889H797.916V129.943C792.865 129.735 788.856 128.537 785.888 126.35C782.92 124.164 781.463 121.3 781.463 117.76C781.463 114.219 782.92 111.407 785.836 109.325C788.752 107.242 792.761 105.992 797.916 105.68V101.775H792.709V99.8486H810.516V101.775H805.309V105.68C810.411 105.992 814.473 107.242 817.388 109.325C820.304 111.407 821.762 114.219 821.762 117.76C821.762 121.3 820.252 124.164 817.336 126.298C814.369 128.485 810.359 129.683 805.309 129.943V134.889H810.516V136.816ZM789.168 117.76C789.168 120.988 789.845 123.435 791.251 125.101C792.657 126.767 794.896 127.704 797.916 127.86V107.711C794.739 107.867 792.501 108.752 791.147 110.366C789.793 112.032 789.168 114.479 789.168 117.76ZM814.056 117.76C814.056 114.479 813.327 112.032 811.973 110.366C810.62 108.752 808.381 107.867 805.309 107.763V127.86C808.329 127.704 810.568 126.767 811.973 125.101C813.327 123.435 814.056 120.988 814.056 117.76ZM885.52 136.295H874.95V134.369H878.439L887.342 119.009L878.231 102.296H874.898V100.369H890.674V102.296H886.249L892.445 113.594L898.901 102.296H895.412V100.369H905.253V102.296H901.4L893.642 115.781L903.847 134.369H907.023V136.295H890.726V134.369H895.725L888.592 121.3L881.042 134.369H885.52V136.295ZM983.397 145.667H981.471V144.365C981.471 141.45 980.846 139.367 979.701 138.117C978.555 136.92 976.525 136.295 973.609 136.295H948.305V134.369H952.262V102.296H948.305V100.369H962.831V102.296H959.603V134.369H970.797V102.296H967.569V100.369H982.148V102.296H978.191V134.369H983.397V145.667ZM52.3686 205.295H35.0825V203.369H41.1743V188.217C40.2371 188.738 39.0916 189.155 37.7379 189.467C36.3842 189.779 34.9784 189.936 33.6247 189.936C29.98 189.936 27.3767 189.155 25.7106 187.488C24.0444 185.874 23.2114 183.323 23.2114 179.887V171.296H19.3064V169.369H33.7809V171.296H30.4486V180.407C30.4486 182.802 30.8651 184.625 31.8023 185.822C32.6875 187.02 34.0412 187.593 35.9156 187.593C36.9569 187.593 37.8941 187.488 38.8313 187.28C39.7685 187.072 40.5495 186.707 41.1743 186.291V171.296H37.842V169.369H52.3686V171.296H48.4115V203.369H52.3686V205.295ZM142.798 205.295H95.157V203.369H99.1141V171.296H95.157V169.369H109.371V171.296H106.455V203.369H115.307V171.296H112.079V169.369H125.564V171.296H122.648V203.369H131.499V171.296H128.636V169.369H142.798V171.296H138.893V203.369H142.798V205.295ZM234.555 214.667H232.576V213.365C232.576 210.45 231.951 208.367 230.806 207.117C229.661 205.92 227.63 205.295 224.766 205.295H185.612V203.369H189.569V171.296H185.612V169.369H199.826V171.296H196.911V203.369H205.762V171.296H202.534V169.369H216.019V171.296H213.103V203.369H221.955V171.296H219.091V169.369H233.253V171.296H229.348V203.369H234.555V214.667ZM308.12 194.986C308.12 198.37 306.871 200.922 304.424 202.692C301.976 204.462 298.384 205.295 293.646 205.295H279.952V203.369H283.909V171.348H282.66C280.056 171.452 278.234 172.025 277.193 173.118C276.151 174.211 275.683 176.086 275.683 178.793V180.824H273.704V169.369H296.822V171.296H291.251V184.521H293.958C298.123 184.521 301.56 185.51 304.163 187.384C306.767 189.311 308.12 191.862 308.12 194.986ZM293.333 186.499H291.251V203.369H293.281C295.781 203.369 297.655 202.744 298.852 201.39C299.998 200.036 300.623 197.902 300.623 194.986C300.623 192.279 299.946 190.144 298.696 188.686C297.447 187.228 295.624 186.499 293.333 186.499ZM363.793 205.295H350.1V203.369H354.057V171.296H350.1V169.369H366.969V171.296H361.398V184.521H364.106C368.271 184.521 371.707 185.51 374.311 187.384C376.914 189.311 378.268 191.862 378.268 194.986C378.268 198.37 377.018 200.922 374.571 202.692C372.124 204.462 368.531 205.295 363.793 205.295ZM363.481 186.499H361.398V203.369H363.429C365.928 203.369 367.802 202.744 369 201.39C370.145 200.036 370.77 197.902 370.77 194.986C370.77 192.279 370.093 190.144 368.844 188.686C367.594 187.228 365.772 186.499 363.481 186.499ZM393.471 203.369V205.295H377.903V203.369H382.016V171.296H377.903V169.369H393.471V171.296H389.358V203.369H393.471ZM462.994 205.295H449.3V203.369H453.258V171.296H449.3V169.369H466.17V171.296H460.599V184.521H463.306C467.472 184.521 470.908 185.51 473.511 187.384C476.115 189.311 477.468 191.862 477.468 194.986C477.468 198.37 476.219 200.922 473.772 202.692C471.325 204.462 467.732 205.295 462.994 205.295ZM462.682 186.499H460.599V203.369H462.629C465.129 203.369 467.003 202.744 468.201 201.39C469.346 200.036 469.971 197.902 469.971 194.986C469.971 192.279 469.294 190.144 468.044 188.686C466.795 187.228 464.972 186.499 462.682 186.499ZM559.717 187.28C559.717 192.591 558.311 197.017 555.499 200.609C552.688 204.254 549.043 206.024 544.513 206.024C542.951 206.024 541.546 205.868 540.192 205.503C538.838 205.139 537.693 204.618 536.755 203.889L534.673 205.816H533.475V193.632H535.454C535.454 196.808 536.183 199.308 537.641 201.13C539.098 203.004 541.129 203.889 543.732 203.889C546.544 203.889 548.575 202.64 549.876 200.089C551.126 197.537 551.803 193.476 551.855 187.957H539.151V185.979H551.855C551.751 180.668 551.022 176.815 549.772 174.42C548.523 172.025 546.492 170.775 543.732 170.775C541.285 170.775 539.359 171.712 537.901 173.535C536.443 175.357 535.714 177.804 535.714 180.824H533.788V168.849H534.933L537.016 170.775C537.953 170.098 539.098 169.578 540.4 169.213C541.702 168.849 543.108 168.64 544.565 168.64C549.043 168.64 552.688 170.463 555.499 174.055C558.311 177.648 559.717 182.074 559.717 187.28ZM648.994 187.28C648.994 192.695 647.588 197.173 644.881 200.713C642.173 204.254 638.529 206.024 633.999 206.024C629.521 206.024 625.981 204.358 623.273 200.922C620.566 197.537 619.108 193.216 618.952 187.957H613.849V203.369H617.442V205.295H602.551V203.369H606.508V171.296H602.551V169.369H617.442V171.296H613.849V185.979H618.952C619.212 180.876 620.722 176.711 623.429 173.483C626.137 170.254 629.625 168.64 633.999 168.64C638.529 168.64 642.173 170.411 644.881 173.951C647.588 177.492 648.994 181.969 648.994 187.28ZM633.999 170.723C631.396 170.723 629.573 172.025 628.48 174.628C627.387 177.231 626.866 181.449 626.866 187.28C626.866 193.112 627.387 197.381 628.532 199.984C629.625 202.64 631.448 203.941 633.999 203.941C636.498 203.941 638.32 202.64 639.414 200.036C640.507 197.433 641.08 193.164 641.08 187.28C641.08 181.449 640.507 177.231 639.414 174.628C638.32 172.025 636.498 170.723 633.999 170.723ZM715.268 178.793C715.268 181.501 715.893 183.479 717.142 184.781C718.392 186.083 720.318 186.707 722.922 186.707H724.692V171.296H723.026C720.37 171.296 718.392 171.921 717.142 173.17C715.893 174.42 715.268 176.294 715.268 178.793ZM717.09 198.11C716.101 201.234 715.059 203.369 713.966 204.41C712.821 205.503 711.363 206.024 709.593 206.024C707.406 206.024 705.792 205.399 704.854 204.098C703.865 202.848 703.397 200.505 703.397 197.069H705.271C705.271 199.151 705.375 200.661 705.688 201.598C705.948 202.536 706.416 203.004 707.041 203.004C707.458 203.004 707.874 202.796 708.187 202.275C708.499 201.807 709.02 200.453 709.697 198.162C710.321 195.975 710.842 194.413 711.259 193.528C711.675 192.643 712.248 191.914 712.925 191.341C713.498 190.821 714.278 190.352 715.268 189.883C716.205 189.415 717.767 188.79 719.902 188.009C716.205 187.905 713.237 187.02 711.05 185.302C708.812 183.583 707.718 181.397 707.718 178.741C707.718 175.982 709.02 173.743 711.675 171.973C714.331 170.254 717.871 169.369 722.245 169.369H735.834V171.296H731.877V203.369H735.834V205.295H720.631V203.369H724.692V188.53C724.275 188.53 723.963 188.582 723.755 188.582C723.494 188.582 723.338 188.582 723.338 188.582C722.349 188.686 721.516 189.05 720.839 189.623C720.11 190.248 719.537 191.133 719.017 192.331C718.808 192.799 718.6 193.32 718.392 193.841C718.183 194.413 717.767 195.819 717.09 198.11ZM800.343 179.054C799.458 182.646 798.885 185.562 798.572 187.801C798.26 190.092 798.156 192.279 798.156 194.465H796.125C796.125 192.279 795.969 190.04 795.657 187.749C795.344 185.458 794.72 182.542 793.782 178.95C793.314 177.127 793.001 175.826 792.897 175.045C792.741 174.316 792.689 173.639 792.689 173.118C792.689 171.868 793.053 170.775 793.834 169.942C794.615 169.109 795.709 168.64 797.063 168.64C798.416 168.64 799.458 169.109 800.239 169.942C801.02 170.827 801.436 171.868 801.436 173.118C801.436 173.691 801.332 174.368 801.228 175.097C801.124 175.878 800.811 177.179 800.343 179.054ZM797.115 197.537C798.468 197.537 799.51 198.006 800.291 198.839C801.072 199.672 801.488 200.661 801.488 201.807C801.488 202.952 801.072 203.941 800.291 204.775C799.51 205.608 798.468 206.024 797.115 206.024C795.761 206.024 794.667 205.66 793.886 204.827C793.105 203.994 792.741 203.004 792.741 201.807C792.741 200.661 793.105 199.62 793.886 198.787C794.667 197.954 795.761 197.537 797.115 197.537ZM882.049 215.5C875.02 215.5 869.449 213.678 865.336 209.981C861.171 206.284 859.14 201.182 859.14 194.622C859.14 191.654 859.713 188.842 860.962 186.135C862.212 183.479 863.982 181.188 866.325 179.21C868.46 177.335 870.907 175.93 873.719 174.94C876.53 173.951 879.446 173.43 882.57 173.43C889.234 173.43 894.493 175.201 898.45 178.689C902.355 182.178 904.334 186.812 904.334 192.591C904.334 196.548 903.344 199.776 901.418 202.275C899.439 204.775 896.836 206.024 893.504 206.024C890.953 206.024 889.026 205.451 887.672 204.202C886.319 203.004 885.694 201.338 885.902 199.151C885.173 201.494 884.184 203.213 882.882 204.358C881.581 205.503 879.967 206.024 878.092 206.024C875.176 206.024 872.886 204.931 871.115 202.64C869.345 200.401 868.616 197.537 868.981 194.101C869.345 190.873 870.647 188.165 872.938 185.926C875.229 183.74 877.884 182.594 880.904 182.594C882.466 182.594 883.819 183.011 884.965 183.844C886.11 184.677 886.891 185.77 887.308 187.176L891.994 182.594H892.775L890.848 198.214C890.64 200.505 890.796 202.067 891.421 202.9C891.994 203.733 893.087 204.098 894.649 204.098C896.732 204.098 898.346 203.056 899.596 200.974C900.793 198.891 901.418 196.131 901.418 192.799C901.418 187.332 899.752 183.063 896.472 179.991C893.139 176.919 888.505 175.357 882.57 175.357C876.738 175.357 871.844 177.231 867.887 180.876C863.93 184.521 862.004 189.102 862.004 194.622C862.004 200.557 863.774 205.191 867.366 208.523C870.959 211.856 875.853 213.522 882.049 213.522C885.225 213.522 887.881 213.261 890.015 212.741C892.098 212.22 893.816 211.439 895.118 210.346L895.847 211.595C894.806 212.741 892.983 213.678 890.38 214.407C887.777 215.136 884.965 215.5 882.049 215.5ZM875.489 194.049C875.176 197.173 875.333 199.568 875.957 201.234C876.582 202.9 877.676 203.733 879.238 203.733C880.8 203.733 882.049 202.952 883.091 201.286C884.08 199.672 884.809 197.277 885.277 194.101C885.694 191.133 885.538 188.79 884.809 187.02C884.08 185.302 882.882 184.417 881.216 184.417C879.706 184.417 878.457 185.302 877.467 186.968C876.426 188.686 875.801 191.029 875.489 194.049ZM961.8 189.779L963.986 181.657H957.999L955.812 189.779H961.8ZM951.699 205.295H948.991L952.48 192.07H947.065V189.779H953.105L955.239 181.657H948.627V179.366H955.864L959.352 166.245H962.06L958.571 179.366H964.559L968.048 166.245H970.807L967.319 179.366H972.786V181.657H966.694L964.559 189.779H971.224V192.07H963.934L960.446 205.295H957.686L961.227 192.07H955.239L951.699 205.295ZM33.1561 239.671H32.2709C32.0627 239.671 31.9065 239.723 31.8023 239.723V251.959L34.3015 252.844V239.723C34.1974 239.723 34.0412 239.671 33.885 239.671H33.1561ZM25.9709 245.659C25.9709 247.116 26.2833 248.262 26.9601 249.147C27.5849 250.032 28.7304 250.761 30.3445 251.386V240.035C28.9387 240.452 27.8453 241.181 27.1163 242.17C26.3354 243.159 25.9709 244.305 25.9709 245.659ZM33.0519 273.046H33.8329C33.9891 273.046 34.1453 273.046 34.3015 272.994V260.706L31.8023 259.873V272.994C31.9065 273.046 32.0106 273.046 32.2189 273.046H33.0519ZM40.2371 266.902C40.2371 265.496 39.8726 264.35 39.1958 263.413C38.5189 262.528 37.3734 261.799 35.8114 261.174V272.785C37.2693 272.473 38.4148 271.796 39.1437 270.859C39.8726 269.922 40.2371 268.62 40.2371 266.902ZM33.104 275.024C32.8957 275.024 32.6354 275.024 32.323 275.024C32.0106 275.024 31.8023 274.972 31.8023 274.972V280.543H30.3445V274.816C27.4808 274.451 25.242 273.566 23.5758 272.16C21.9097 270.807 21.1287 269.089 21.1287 267.058C21.1287 265.808 21.4411 264.767 22.118 263.986C22.7428 263.257 23.68 262.841 24.8254 262.841C25.9709 262.841 26.9081 263.205 27.5849 263.882C28.2097 264.559 28.5742 265.444 28.5742 266.589C28.5742 267.579 28.2618 268.412 27.7411 269.089C27.1684 269.765 26.3874 270.234 25.3982 270.494C25.8668 271.119 26.5436 271.588 27.3767 271.952C28.2097 272.369 29.199 272.629 30.3445 272.785V259.404C27.2205 258.363 24.9816 256.853 23.6279 254.979C22.2221 253.104 21.5452 250.657 21.5452 247.741C21.5452 245.346 22.3262 243.264 23.9403 241.441C25.5544 239.671 27.6891 238.473 30.3445 237.953V232.954H31.8023V237.745C32.1147 237.745 32.3751 237.692 32.5833 237.692C32.7916 237.692 32.9478 237.64 33.1561 237.64H33.885C34.0412 237.64 34.1974 237.692 34.3015 237.692V232.954H35.8114V237.849C38.4668 238.213 40.6016 239.046 42.1636 240.348C43.7256 241.702 44.5586 243.316 44.5586 245.294C44.5586 246.44 44.2462 247.377 43.6214 248.054C42.9966 248.783 42.1115 249.095 41.0181 249.095C39.8206 249.095 38.8834 248.783 38.2586 248.158C37.6338 247.533 37.3214 246.596 37.3214 245.45C37.3214 244.617 37.5817 243.888 38.1024 243.264C38.623 242.639 39.2999 242.222 40.185 241.962C39.7685 241.389 39.1958 240.921 38.4668 240.556C37.7379 240.192 36.8528 239.931 35.8114 239.827V253.364C39.0916 254.614 41.3826 256.072 42.6842 257.79C43.9859 259.56 44.6627 261.799 44.6627 264.507C44.6627 267.318 43.8817 269.661 42.3718 271.484C40.8098 273.306 38.623 274.399 35.8114 274.816V280.543H34.3015V274.972C34.2495 274.972 34.0933 275.024 33.7809 275.024C33.4685 275.024 33.2602 275.024 33.104 275.024ZM130.685 245.763L111.056 275.024L108.608 273.358L127.613 245.19C127.717 244.982 127.873 244.826 127.977 244.617C128.081 244.409 128.185 244.201 128.29 243.992C126.519 244.357 124.905 244.461 123.343 244.305C121.781 244.201 120.428 243.784 119.178 243.159C119.386 243.784 119.542 244.409 119.647 245.086C119.751 245.763 119.855 246.492 119.855 247.273C119.855 250.188 119.074 252.531 117.512 254.25C115.95 256.02 113.867 256.853 111.264 256.853C108.765 256.853 106.526 255.916 104.651 254.041C102.777 252.167 101.84 249.928 101.84 247.273C101.84 244.669 102.777 242.378 104.704 240.504C106.578 238.63 108.765 237.64 111.264 237.64C112.409 237.64 113.503 237.849 114.492 238.213C115.429 238.578 116.314 239.098 117.095 239.775C118.709 241.025 120.584 241.754 122.719 242.014C124.801 242.274 126.988 242.066 129.279 241.441C129.904 239.671 130.424 238.63 130.945 238.213C131.414 237.849 132.038 237.64 132.871 237.64C133.6 237.64 134.173 237.901 134.694 238.317C135.162 238.734 135.423 239.307 135.423 239.931C135.423 240.608 135.214 241.233 134.902 241.754C134.59 242.274 133.861 242.951 132.819 243.784C132.143 244.305 131.674 244.669 131.362 244.93C131.049 245.242 130.841 245.502 130.685 245.763ZM113.294 239.723C111.941 239.723 110.951 240.4 110.223 241.702C109.494 243.003 109.181 244.878 109.181 247.273C109.181 249.668 109.494 251.49 110.223 252.792C110.951 254.145 111.941 254.77 113.294 254.77C114.544 254.77 115.585 254.145 116.314 252.792C117.043 251.438 117.408 249.616 117.408 247.273C117.408 244.93 117.043 243.107 116.314 241.754C115.585 240.4 114.544 239.723 113.294 239.723ZM132.611 255.812C135.214 255.812 137.349 256.697 138.911 258.467C140.473 260.237 141.254 262.528 141.254 265.444C141.254 268.36 140.473 270.703 138.911 272.421C137.349 274.191 135.267 275.024 132.611 275.024C130.112 275.024 127.873 274.087 125.999 272.213C124.124 270.338 123.187 268.099 123.187 265.444C123.187 262.841 124.124 260.55 126.051 258.675C127.925 256.801 130.112 255.812 132.611 255.812ZM134.538 257.894C133.236 257.894 132.247 258.571 131.518 259.873C130.789 261.226 130.476 263.049 130.476 265.444C130.476 267.839 130.789 269.713 131.518 271.015C132.247 272.317 133.236 272.941 134.59 272.941C135.839 272.941 136.881 272.265 137.61 270.911C138.338 269.557 138.755 267.735 138.755 265.444C138.755 263.153 138.338 261.279 137.61 259.925C136.829 258.571 135.787 257.894 134.538 257.894ZM214.064 254.302H211.148L205.889 242.17L200.735 254.302H198.131L205.213 238.369H206.931L214.064 254.302ZM298.853 275.024C297.083 275.024 295.469 274.712 294.115 274.035C292.709 273.41 291.304 272.317 289.846 270.755C288.388 272.317 286.93 273.358 285.472 273.983C284.014 274.608 282.192 274.92 279.901 274.92C276.829 274.92 274.33 274.087 272.456 272.369C270.529 270.703 269.592 268.516 269.592 265.808C269.592 263.465 270.269 261.435 271.622 259.769C272.976 258.102 275.059 256.749 277.87 255.655C276.308 253.573 275.215 251.855 274.694 250.501C274.122 249.147 273.861 247.741 273.861 246.179C273.861 243.68 274.746 241.649 276.621 240.088C278.443 238.526 280.89 237.692 283.91 237.692C286.618 237.692 288.804 238.369 290.523 239.671C292.241 240.973 293.126 242.691 293.126 244.773C293.126 246.44 292.501 247.95 291.356 249.303C290.158 250.709 288.075 252.219 285.056 253.781C285.472 254.354 285.993 255.031 286.618 255.76C287.19 256.488 288.18 257.738 289.637 259.404C290.679 260.654 291.46 261.643 292.033 262.32C292.553 263.049 293.126 263.674 293.647 264.298C294.792 262.893 295.99 261.122 297.187 259.04C298.333 256.957 299.27 254.979 299.895 253.104H295.677V251.178H305.57V253.104H302.238C301.3 255.395 300.207 257.634 298.957 259.769C297.708 261.903 296.406 263.934 294.948 265.86C296.666 268.151 297.968 269.609 298.801 270.286C299.634 270.963 300.571 271.275 301.561 271.275C302.602 271.275 303.435 270.651 304.06 269.401C304.685 268.151 304.997 266.537 304.997 264.559H306.819C306.819 268.047 306.143 270.651 304.789 272.421C303.435 274.191 301.457 275.024 298.853 275.024ZM283.389 239.671C282.192 239.671 281.255 240.035 280.63 240.764C280.005 241.493 279.693 242.483 279.693 243.784C279.693 244.93 279.953 246.127 280.526 247.273C281.047 248.418 282.088 249.98 283.546 251.855C284.743 251.021 285.628 249.98 286.253 248.731C286.878 247.481 287.19 246.075 287.19 244.513C287.19 242.899 286.826 241.702 286.201 240.868C285.576 240.088 284.639 239.671 283.389 239.671ZM275.944 264.35C275.944 266.537 276.517 268.308 277.766 269.557C278.964 270.859 280.63 271.484 282.765 271.484C283.962 271.484 285.056 271.327 285.993 270.911C286.93 270.494 287.763 269.922 288.492 269.141C287.919 268.464 287.347 267.735 286.722 266.954C286.097 266.225 285.264 265.131 284.223 263.726C282.713 261.851 281.671 260.55 281.047 259.769C280.422 258.988 279.849 258.259 279.432 257.634C278.183 258.415 277.246 259.352 276.725 260.393C276.204 261.487 275.944 262.788 275.944 264.35ZM373.091 234.256C373.768 234.36 374.341 234.673 374.81 235.193C375.278 235.714 375.487 236.339 375.487 236.964C375.382 237.484 375.278 238.005 375.07 238.473C374.862 238.994 374.445 239.671 373.925 240.504C373.456 241.129 373.144 241.649 372.987 241.962C372.831 242.274 372.727 242.587 372.727 242.899L371.79 242.743C371.79 242.43 371.79 242.118 371.738 241.754C371.634 241.441 371.425 240.868 371.113 240.14C370.696 239.254 370.436 238.578 370.332 238.057C370.228 237.536 370.176 237.068 370.228 236.547C370.28 235.87 370.592 235.297 371.165 234.881C371.686 234.464 372.363 234.256 373.091 234.256ZM369.863 240.868C370.176 241.597 370.488 242.066 370.696 242.378C370.905 242.691 371.113 242.899 371.373 243.055L370.748 243.836C370.488 243.628 370.176 243.472 369.863 243.368C369.499 243.264 368.926 243.211 368.093 243.107C367.156 243.003 366.427 242.899 365.958 242.743C365.438 242.639 365.021 242.43 364.657 242.118C364.032 241.702 363.72 241.181 363.615 240.452C363.511 239.775 363.667 239.15 364.084 238.526C364.448 237.953 364.969 237.588 365.698 237.432C366.375 237.276 367 237.38 367.572 237.745C367.989 238.057 368.353 238.421 368.666 238.838C368.978 239.254 369.395 239.931 369.863 240.868ZM381.162 240.14C381.474 240.816 381.474 241.493 381.266 242.118C381.058 242.795 380.641 243.264 380.016 243.524C379.548 243.732 379.079 243.888 378.558 243.992C378.038 244.097 377.257 244.045 376.268 243.94C375.434 243.94 374.862 243.94 374.497 243.94C374.133 243.992 373.82 244.097 373.56 244.201L373.144 243.264C373.404 243.159 373.664 242.951 373.977 242.691C374.237 242.483 374.601 242.014 375.122 241.337C375.695 240.556 376.163 239.983 376.528 239.671C376.892 239.359 377.309 239.046 377.777 238.838C378.402 238.526 379.027 238.526 379.704 238.786C380.329 239.098 380.849 239.515 381.162 240.14ZM370.748 244.305L371.061 245.19C370.748 245.346 370.488 245.554 370.28 245.763C370.02 246.023 369.655 246.44 369.239 247.064C368.614 247.897 368.145 248.47 367.729 248.783C367.312 249.147 366.896 249.407 366.479 249.616C365.854 249.928 365.177 249.98 364.553 249.72C363.876 249.512 363.407 249.043 363.147 248.366C362.834 247.741 362.782 247.116 362.991 246.388C363.199 245.711 363.615 245.242 364.24 244.93C364.657 244.721 365.177 244.617 365.698 244.513C366.219 244.461 367 244.461 368.041 244.513C368.822 244.617 369.395 244.617 369.759 244.565C370.124 244.565 370.436 244.461 370.748 244.305ZM379.652 246.44C380.173 246.856 380.537 247.377 380.641 248.054C380.745 248.731 380.589 249.355 380.225 249.98C379.808 250.605 379.235 250.969 378.558 251.126C377.882 251.282 377.257 251.178 376.684 250.761C376.268 250.449 375.851 250.084 375.539 249.668C375.226 249.251 374.81 248.574 374.393 247.637C374.081 246.908 373.82 246.44 373.612 246.127C373.404 245.815 373.144 245.607 372.935 245.398L373.508 244.617C373.716 244.826 374.029 244.93 374.393 245.034C374.706 245.138 375.278 245.242 376.059 245.346C377.049 245.45 377.777 245.607 378.298 245.763C378.819 245.919 379.235 246.127 379.652 246.44ZM373.144 248.262C373.508 249.199 373.768 249.876 373.872 250.397C373.977 250.917 373.977 251.438 373.977 251.907C373.925 252.636 373.612 253.208 373.091 253.625C372.519 254.093 371.894 254.302 371.165 254.198C370.436 254.145 369.811 253.833 369.395 253.312C368.926 252.792 368.718 252.219 368.822 251.49C368.822 250.969 368.978 250.501 369.186 249.98C369.395 249.512 369.759 248.835 370.384 247.95C370.801 247.325 371.061 246.856 371.217 246.544C371.373 246.231 371.477 245.919 371.529 245.607L372.467 245.711C372.415 246.023 372.415 246.388 372.519 246.7C372.623 247.012 372.831 247.533 373.144 248.262ZM453.166 282.626C453.791 283.355 454.572 284.084 455.561 284.917C456.499 285.75 457.019 286.166 457.123 286.166L455.978 287.832C451.292 285.75 447.439 282.313 444.419 277.575C441.399 272.837 439.889 267.839 439.889 262.528C439.889 256.905 441.451 251.334 444.68 245.763C447.908 240.192 451.656 236.443 455.978 234.516L457.123 236.183C454.78 237.953 453.062 239.775 451.917 241.597C450.771 243.42 449.834 245.554 449.209 248.054C448.637 250.032 448.22 252.219 447.96 254.614C447.699 257.009 447.595 259.664 447.595 262.528C447.595 263.517 447.595 264.455 447.647 265.34C447.647 266.277 447.699 267.11 447.804 267.943C447.908 268.88 448.012 269.817 448.116 270.703C448.22 271.588 448.376 272.421 448.585 273.15C448.793 274.139 449.001 275.024 449.314 275.857C449.574 276.69 449.886 277.523 450.251 278.252C450.615 279.085 451.032 279.866 451.552 280.595C452.021 281.324 452.542 282.001 453.166 282.626ZM552.835 262.007C552.835 267.318 551.273 272.369 548.201 277.263C545.129 282.157 541.276 285.646 536.694 287.832L535.549 286.166C535.653 286.114 536.069 285.75 536.902 285.073C537.683 284.396 538.36 283.771 538.881 283.251C539.401 282.73 539.922 282.157 540.391 281.532C540.807 280.96 541.224 280.335 541.64 279.606C541.953 278.981 542.265 278.356 542.578 277.627C542.89 276.951 543.15 276.222 543.411 275.441C543.619 274.816 543.775 274.087 543.983 273.358C544.14 272.629 544.296 271.848 544.452 271.067C544.556 270.338 544.608 269.609 544.712 268.88C544.816 268.151 544.868 267.37 544.973 266.537C544.973 265.808 545.025 265.079 545.077 264.35C545.077 263.622 545.129 262.841 545.129 262.007C545.129 260.237 545.077 258.571 544.973 256.957C544.868 255.343 544.712 253.833 544.504 252.427C544.244 250.657 543.879 248.991 543.463 247.429C542.994 245.919 542.421 244.513 541.797 243.264C541.172 242.118 540.495 241.025 539.714 240.035C538.881 239.098 537.527 237.797 535.549 236.183L536.694 234.516C541.068 236.443 544.816 240.14 548.045 245.554C551.221 250.969 552.835 256.488 552.835 262.007ZM624.62 259.404H609.833V257.321H624.62V259.404ZM712.742 257.113V259.248H704.203V267.579H701.912V259.248H693.373V257.113H701.912V248.731H704.203V257.113H712.742ZM803.397 279.502H779.655V277.419H803.397V279.502ZM889.158 254.822H870.623V252.688H889.158V254.822ZM889.158 263.674H870.623V261.539H889.158V263.674ZM965.143 234.36L967.382 235.454L945.098 279.918L942.859 278.825L965.143 234.36ZM35.0305 354.385V356.312H22.0659V304.245H35.0305V306.172H29.0949V354.385H35.0305ZM129.012 304.245V356.312H115.995V354.385H121.983V306.172H115.995V304.245H129.012ZM209.613 351.522C209.821 352.875 210.341 353.917 211.07 354.542C211.799 355.166 212.893 355.479 214.246 355.479V356.832C211.435 356.832 209.144 356.52 207.322 355.791C205.499 355.114 204.146 354.073 203.26 352.615C202.532 351.522 202.115 350.168 201.959 348.502C201.803 346.836 201.959 344.232 202.479 340.692C202.74 338.713 202.896 337.255 202.948 336.37C203 335.537 203 334.756 202.896 334.079C202.688 332.83 202.219 331.945 201.49 331.32C200.709 330.747 199.616 330.435 198.262 330.435V328.769C199.616 328.769 200.709 328.508 201.438 327.936C202.167 327.415 202.636 326.53 202.844 325.384C202.948 324.76 202.948 324.031 202.896 323.198C202.844 322.364 202.688 320.959 202.427 319.032C201.855 315.596 201.646 313.045 201.855 311.43C202.011 309.816 202.479 308.463 203.26 307.369C204.198 306.12 205.551 305.13 207.374 304.506C209.144 303.881 211.435 303.516 214.246 303.516V305.13C212.841 305.13 211.747 305.443 210.966 306.068C210.133 306.692 209.613 307.578 209.352 308.827C209.196 309.504 209.144 310.285 209.144 311.222C209.144 312.159 209.196 313.617 209.404 315.596C209.613 318.251 209.717 320.178 209.665 321.427C209.613 322.677 209.456 323.718 209.144 324.603C208.675 326.113 207.894 327.259 206.749 328.092C205.603 328.925 204.094 329.393 202.219 329.602C204.094 329.862 205.655 330.435 206.853 331.32C207.998 332.257 208.832 333.507 209.352 335.121C209.613 336.162 209.769 337.308 209.873 338.609C209.925 339.963 209.873 341.994 209.665 344.701C209.508 346.784 209.456 348.241 209.456 349.179C209.456 350.116 209.508 350.897 209.613 351.522ZM296.653 328.769V330.435C295.248 330.435 294.154 330.747 293.425 331.32C292.644 331.945 292.176 332.83 292.02 334.079C291.915 334.756 291.863 335.537 291.915 336.422C291.915 337.308 292.124 338.713 292.436 340.692C292.905 344.232 293.061 346.836 292.905 348.502C292.748 350.168 292.332 351.522 291.655 352.615C290.718 354.073 289.364 355.114 287.542 355.791C285.719 356.52 283.429 356.832 280.669 356.832V355.479C282.023 355.479 283.064 355.166 283.793 354.542C284.522 353.917 285.043 352.875 285.251 351.522C285.355 350.897 285.459 350.116 285.459 349.179C285.459 348.294 285.355 346.836 285.199 344.753C284.991 341.994 284.886 339.963 284.938 338.609C284.991 337.255 285.199 336.11 285.511 335.121C285.98 333.507 286.813 332.257 288.01 331.32C289.156 330.435 290.718 329.862 292.696 329.602C290.822 329.393 289.364 328.925 288.219 328.092C287.073 327.259 286.292 326.113 285.824 324.655C285.511 323.718 285.355 322.677 285.303 321.427C285.199 320.178 285.303 318.251 285.563 315.648C285.719 313.617 285.772 312.159 285.772 311.222C285.772 310.337 285.667 309.556 285.563 308.827C285.303 307.578 284.782 306.692 283.949 306.068C283.116 305.443 282.023 305.13 280.669 305.13V303.516C283.376 303.516 285.667 303.881 287.49 304.506C289.312 305.13 290.666 306.12 291.603 307.369C292.332 308.463 292.801 309.816 293.009 311.378C293.165 312.992 293.009 315.544 292.488 318.98C292.176 320.959 291.967 322.364 291.967 323.198C291.915 324.031 291.967 324.76 292.072 325.384C292.228 326.53 292.696 327.415 293.425 327.936C294.154 328.508 295.248 328.769 296.653 328.769ZM366.455 316.95C366.455 314.659 366.872 312.68 367.757 310.962C368.642 309.296 369.996 307.838 371.87 306.64L373.224 308.046C372.027 308.983 371.141 309.921 370.621 310.806C370.048 311.743 369.684 312.732 369.527 313.826C369.736 313.826 369.892 313.773 370.1 313.773C370.256 313.773 370.412 313.721 370.569 313.721C371.818 313.721 372.86 314.138 373.589 314.919C374.317 315.7 374.682 316.637 374.682 317.783C374.682 318.98 374.317 319.969 373.589 320.75C372.86 321.531 371.818 321.896 370.569 321.896C369.267 321.896 368.278 321.479 367.549 320.542C366.82 319.657 366.455 318.459 366.455 316.95ZM377.546 316.95C377.546 314.659 377.962 312.68 378.847 310.962C379.732 309.296 381.086 307.838 382.96 306.64L384.314 308.046C383.117 308.983 382.232 309.921 381.711 310.806C381.138 311.743 380.774 312.732 380.618 313.826C380.826 313.826 380.982 313.773 381.19 313.773C381.346 313.773 381.503 313.721 381.659 313.721C382.908 313.721 383.95 314.138 384.679 314.919C385.408 315.7 385.772 316.637 385.772 317.783C385.772 318.98 385.408 319.969 384.679 320.75C383.95 321.531 382.908 321.896 381.659 321.896C380.357 321.896 379.368 321.479 378.639 320.542C377.91 319.657 377.546 318.459 377.546 316.95ZM463.317 311.639C463.317 313.93 462.849 315.96 461.964 317.626C461.078 319.345 459.725 320.802 457.902 321.948L456.549 320.542C457.694 319.605 458.579 318.72 459.152 317.783C459.673 316.897 460.037 315.908 460.245 314.763C460.037 314.815 459.829 314.867 459.673 314.867C459.464 314.867 459.308 314.867 459.204 314.867C457.902 314.867 456.913 314.502 456.184 313.721C455.455 312.94 455.091 311.951 455.091 310.806C455.091 309.66 455.455 308.671 456.184 307.89C456.913 307.109 457.902 306.692 459.204 306.692C460.454 306.692 461.495 307.161 462.224 308.046C462.953 308.983 463.317 310.181 463.317 311.639ZM452.019 311.639C452.019 313.93 451.55 315.96 450.665 317.626C449.78 319.345 448.426 320.802 446.604 321.948L445.25 320.542C446.396 319.605 447.281 318.72 447.854 317.783C448.374 316.897 448.739 315.908 448.947 314.763C448.739 314.815 448.53 314.867 448.374 314.867C448.166 314.867 448.01 314.867 447.906 314.867C446.604 314.867 445.615 314.502 444.886 313.721C444.157 312.94 443.792 311.951 443.792 310.806C443.792 309.66 444.157 308.671 444.886 307.89C445.615 307.109 446.604 306.692 447.906 306.692C449.155 306.692 450.197 307.161 450.926 308.046C451.654 308.983 452.019 310.181 452.019 311.639ZM534.349 317.002C534.349 314.711 534.766 312.732 535.651 311.014C536.536 309.348 537.89 307.89 539.764 306.692L541.118 308.098C539.921 309.035 539.035 309.973 538.515 310.858C537.942 311.795 537.578 312.784 537.421 313.878C537.63 313.878 537.786 313.826 537.994 313.826C538.15 313.826 538.306 313.773 538.463 313.773C539.712 313.773 540.754 314.19 541.483 314.971C542.211 315.752 542.576 316.689 542.576 317.835C542.576 319.032 542.211 320.021 541.483 320.802C540.754 321.583 539.712 321.948 538.463 321.948C537.161 321.948 536.172 321.531 535.443 320.594C534.714 319.709 534.349 318.512 534.349 317.002ZM634.862 311.639C634.862 313.93 634.393 315.96 633.508 317.626C632.623 319.345 631.269 320.802 629.447 321.948L628.093 320.542C629.239 319.605 630.124 318.72 630.696 317.783C631.217 316.897 631.582 315.908 631.79 314.763C631.582 314.815 631.373 314.867 631.217 314.867C631.009 314.867 630.853 314.867 630.748 314.867C629.447 314.867 628.458 314.502 627.729 313.721C627 312.94 626.635 311.951 626.635 310.806C626.635 309.66 627 308.671 627.729 307.89C628.458 307.109 629.447 306.692 630.748 306.692C631.998 306.692 633.039 307.161 633.768 308.046C634.497 308.983 634.862 310.181 634.862 311.639ZM709.861 318.772C711.215 318.772 712.309 319.24 713.09 320.074C713.871 320.907 714.287 321.948 714.287 323.198C714.287 324.447 713.871 325.488 713.09 326.321C712.256 327.155 711.215 327.571 709.861 327.571C708.456 327.571 707.362 327.155 706.581 326.321C705.8 325.488 705.436 324.447 705.436 323.198C705.436 321.948 705.8 320.855 706.581 320.021C707.362 319.188 708.456 318.772 709.861 318.772ZM714.287 340.536C714.287 343.243 713.662 345.794 712.413 348.189C711.163 350.584 709.445 352.563 707.258 354.125L705.54 352.615C706.789 351.678 707.883 350.376 708.872 348.814C709.861 347.252 710.486 345.638 710.799 343.972C710.694 343.972 710.538 344.024 710.33 344.024C710.122 344.024 709.966 344.024 709.861 344.024C708.508 344.024 707.414 343.608 706.633 342.775C705.8 341.941 705.436 340.9 705.436 339.651C705.436 338.401 705.8 337.36 706.581 336.527C707.362 335.693 708.456 335.225 709.861 335.225C711.215 335.225 712.309 335.746 713.09 336.683C713.871 337.62 714.287 338.922 714.287 340.536ZM802.554 318.772C803.908 318.772 805.001 319.24 805.782 320.074C806.563 320.907 806.98 321.948 806.98 323.198C806.98 324.447 806.563 325.488 805.782 326.321C804.949 327.155 803.908 327.571 802.554 327.571C801.148 327.571 800.055 327.155 799.274 326.321C798.493 325.488 798.128 324.447 798.128 323.198C798.128 321.948 798.493 320.855 799.274 320.021C800.055 319.188 801.148 318.772 802.554 318.772ZM802.554 335.225C803.908 335.225 805.001 335.693 805.782 336.527C806.563 337.36 806.98 338.401 806.98 339.651C806.98 340.9 806.563 341.941 805.782 342.775C804.949 343.608 803.908 344.024 802.554 344.024C801.148 344.024 800.055 343.608 799.274 342.775C798.493 341.941 798.128 340.9 798.128 339.651C798.128 338.401 798.493 337.308 799.274 336.474C800.055 335.641 801.148 335.225 802.554 335.225ZM863.543 303.36L885.827 347.825L883.484 348.918L861.2 304.454L863.543 303.36ZM970.546 296.956V356.312H967.839V296.956H970.546ZM44.0428 409.327C44.0428 412.087 43.418 414.69 42.1684 417.085C40.9188 419.532 39.1486 421.563 36.9618 423.125L35.2957 421.615C36.5453 420.678 37.6387 419.376 38.6279 417.762C39.5651 416.2 40.1899 414.586 40.5023 412.92C40.294 412.972 40.1378 413.024 39.9296 413.024C39.7213 413.024 39.513 413.024 39.4089 413.024C37.9511 413.024 36.8577 412.608 36.0246 411.67C35.1915 410.785 34.775 409.692 34.775 408.442C34.775 407.193 35.1395 406.099 35.9725 405.162C36.8056 404.277 37.9511 403.808 39.4089 403.808C40.8668 403.808 41.9602 404.329 42.7932 405.318C43.6263 406.36 44.0428 407.661 44.0428 409.327ZM132.305 403.808C133.711 403.808 134.856 404.277 135.689 405.214C136.522 406.151 136.939 407.193 136.939 408.442C136.939 409.692 136.522 410.733 135.689 411.67C134.856 412.608 133.711 413.024 132.305 413.024C130.847 413.024 129.754 412.608 128.921 411.67C128.087 410.785 127.671 409.692 127.671 408.442C127.671 407.193 128.035 406.099 128.868 405.162C129.702 404.277 130.847 403.808 132.305 403.808ZM209.64 405.006V407.922L193.708 397.04V395.321L209.64 384.44V387.303L196.572 396.102L209.64 405.006ZM283.043 387.355V384.44L298.975 395.321V397.04L283.043 407.922V405.058L296.111 396.259L283.043 387.355ZM387.938 372.36L390.177 373.454L367.892 417.918L365.653 416.825L387.938 372.36ZM471.154 399.695C470.633 400.58 469.956 401.257 469.019 401.726C468.082 402.194 467.041 402.403 465.895 402.403C463.917 402.403 462.355 401.882 461.209 400.841C460.064 399.799 459.491 398.393 459.491 396.571C459.491 395.165 459.803 393.864 460.48 392.718C461.157 391.573 462.563 390.167 464.75 388.553C466.624 387.199 467.822 386.054 468.394 385.169C468.915 384.335 469.227 383.346 469.227 382.305C469.227 380.847 468.759 379.702 467.926 378.868C467.041 378.035 465.791 377.619 464.177 377.619C463.188 377.619 462.302 377.827 461.469 378.14C460.636 378.452 460.064 378.921 459.751 379.441C460.897 379.754 461.834 380.274 462.459 380.951C463.083 381.628 463.396 382.461 463.396 383.398C463.396 384.544 463.031 385.481 462.355 386.158C461.626 386.887 460.688 387.199 459.491 387.199C458.241 387.199 457.252 386.835 456.523 386.106C455.794 385.377 455.482 384.388 455.482 383.086C455.482 380.899 456.367 379.129 458.241 377.723C460.064 376.369 462.407 375.64 465.27 375.64C468.394 375.64 470.789 376.369 472.56 377.723C474.33 379.077 475.215 381.003 475.215 383.502C475.215 384.96 474.798 386.314 474.017 387.564C473.236 388.813 471.622 390.375 469.227 392.145C467.353 393.551 466.103 394.645 465.583 395.374C465.01 396.155 464.75 396.936 464.75 397.769C464.75 398.55 464.958 399.122 465.374 399.539C465.791 399.955 466.364 400.164 467.145 400.164C468.29 400.164 469.019 399.643 469.383 398.602C469.748 397.56 469.488 396.415 468.55 395.165L469.956 394.228C470.841 394.957 471.414 395.79 471.622 396.779C471.831 397.821 471.674 398.758 471.154 399.695ZM465.479 404.537C466.832 404.537 467.874 405.006 468.655 405.839C469.436 406.672 469.852 407.661 469.852 408.807C469.852 409.952 469.436 410.941 468.655 411.775C467.874 412.608 466.832 413.024 465.479 413.024C464.125 413.024 463.031 412.66 462.25 411.827C461.469 410.994 461.105 410.004 461.105 408.807C461.105 407.661 461.469 406.62 462.25 405.787C463.031 404.954 464.125 404.537 465.479 404.537ZM562.17 410.369V412.295H542.489V410.369H548.789V380.17H542.489V378.296C546.238 378.296 549.154 378.088 551.132 377.567C553.111 377.098 554.517 376.265 555.35 375.12L556.86 375.328C556.599 375.901 556.391 376.89 556.287 378.296C556.183 379.702 556.131 381.264 556.131 383.034V410.369H562.17ZM641.031 412.295H617.445V409.796C617.757 409.484 620.621 406.724 626.036 401.413C631.451 396.155 634.523 392.926 635.304 391.781C634.471 392.562 633.482 393.135 632.336 393.551C631.191 393.968 629.889 394.124 628.535 394.124C625.307 394.124 622.6 393.291 620.361 391.521C618.07 389.802 616.976 387.564 616.976 384.856C616.976 382.149 618.174 379.91 620.569 378.192C622.964 376.526 626.036 375.64 629.681 375.64C633.325 375.64 636.241 376.473 638.428 378.14C640.615 379.806 641.76 382.045 641.76 384.856C641.76 386.262 641.344 387.668 640.51 389.074C639.677 390.531 638.324 392.145 636.449 393.968C636.137 394.332 635.72 394.801 635.148 395.426C634.523 396.05 633.429 397.092 631.815 398.654C629.629 400.841 627.962 402.507 626.869 403.6C625.776 404.746 624.838 405.735 624.11 406.568H634.002C636.397 406.568 638.011 406.308 638.74 405.735C639.469 405.214 639.938 404.069 640.146 402.403L640.406 400.268H642.385L641.031 412.295ZM629.368 377.619C627.806 377.619 626.609 378.296 625.724 379.545C624.838 380.795 624.37 382.617 624.37 384.908C624.318 387.199 624.734 389.021 625.672 390.271C626.557 391.573 627.806 392.198 629.472 392.198C630.982 392.198 632.18 391.573 633.065 390.271C633.898 389.021 634.367 387.199 634.367 384.908C634.367 382.617 633.898 380.847 633.013 379.545C632.076 378.296 630.878 377.619 629.368 377.619ZM721.886 401.674C721.886 404.954 720.689 407.661 718.346 409.796C715.951 411.983 712.775 413.024 708.714 413.024C705.329 413.024 702.674 412.191 700.747 410.525C698.821 408.859 697.884 406.568 697.884 403.756C697.884 402.403 698.248 401.309 699.029 400.476C699.758 399.643 700.799 399.174 702.101 399.174C703.299 399.174 704.236 399.591 704.965 400.32C705.694 401.101 706.058 402.09 706.058 403.288C706.058 404.537 705.642 405.527 704.809 406.255C703.975 406.984 702.778 407.349 701.216 407.401C701.737 408.598 702.57 409.484 703.663 410.108C704.756 410.733 706.11 410.994 707.724 410.994C709.755 410.994 711.369 410.213 712.514 408.546C713.66 406.88 714.18 404.589 714.18 401.674C714.128 398.966 713.608 396.831 712.566 395.217C711.525 393.655 710.223 392.822 708.661 392.822C708.037 392.822 707.516 392.926 707.099 393.083C706.631 393.239 706.11 393.499 705.59 393.864L704.704 392.822L714.337 382.097H707.308C704.548 382.097 702.882 382.409 702.257 382.93C701.632 383.45 701.372 384.7 701.372 386.626V387.72H699.446V376.369H720.481V378.504L709.286 390.948C713.399 391.312 716.523 392.406 718.658 394.228C720.793 396.102 721.886 398.55 721.886 401.674ZM802.964 410.369V412.295H786.199V410.369H791.249V402.767H776.723V401.622L794.998 375.745H798.591V400.841H802.964V402.767H798.591V410.369H802.964ZM780.107 400.841H791.249V384.544L780.107 400.841ZM882.039 400.372C882.039 404.017 880.842 407.036 878.499 409.432C876.104 411.827 872.928 413.024 868.971 413.024C865.586 413.024 862.983 412.295 861.109 410.733C859.234 409.223 858.349 407.141 858.349 404.433C858.349 403.079 858.714 401.934 859.495 401.101C860.224 400.268 861.265 399.799 862.567 399.799C863.764 399.799 864.753 400.216 865.482 400.997C866.211 401.778 866.576 402.767 866.576 403.965C866.576 405.162 866.107 406.151 865.222 406.88C864.337 407.609 863.139 408.026 861.629 408.026C862.046 409.015 862.827 409.744 863.868 410.265C864.91 410.785 866.263 410.994 867.877 410.994C870.064 410.994 871.678 410.16 872.72 408.494C873.761 406.828 874.334 404.173 874.334 400.632C874.334 397.3 873.761 394.801 872.72 393.135C871.626 391.469 870.012 390.636 867.877 390.636C866.367 390.636 865.066 391.052 863.972 391.833C862.879 392.666 862.15 393.76 861.786 395.165H860.067L862.15 376.369H874.75C876 376.369 876.937 376.161 877.562 375.692C878.187 375.224 878.603 374.235 878.811 372.777L878.968 371.683H880.894L879.54 382.097H863.608L862.567 391.208C863.348 390.271 864.337 389.594 865.534 389.126C866.68 388.657 868.138 388.397 869.856 388.397C873.501 388.397 876.468 389.594 878.707 391.885C880.894 394.228 882.039 397.04 882.039 400.372ZM953.277 390.479C956.141 390.479 958.64 391.573 960.827 393.76C963.013 395.946 964.107 398.55 964.107 401.674C964.107 404.746 962.857 407.401 960.358 409.64C957.859 411.931 954.891 413.024 951.455 413.024C947.55 413.024 944.374 411.566 941.979 408.546C939.583 405.579 938.386 401.465 938.386 396.207C938.386 390.479 939.74 385.637 942.499 381.628C945.259 377.671 948.851 375.64 953.277 375.64C955.984 375.64 958.119 376.317 959.785 377.619C961.451 378.921 962.284 380.587 962.284 382.669C962.284 384.023 961.92 385.064 961.191 385.845C960.462 386.626 959.525 386.991 958.275 386.991C957.026 386.991 955.984 386.626 955.255 385.897C954.527 385.169 954.162 384.231 954.162 383.034C954.162 381.94 954.474 381.055 955.203 380.326C955.88 379.649 956.87 379.233 958.171 379.077C957.651 378.556 957.026 378.192 956.193 377.931C955.36 377.671 954.318 377.515 953.173 377.515C950.778 377.515 948.955 378.66 947.758 380.847C946.56 383.034 945.988 386.314 945.988 390.688V394.697C946.665 393.343 947.602 392.302 948.851 391.573C950.101 390.844 951.559 390.479 953.277 390.479ZM951.455 392.666C949.789 392.666 948.487 393.499 947.654 395.061C946.769 396.623 946.352 398.862 946.352 401.674C946.352 404.746 946.769 407.089 947.654 408.651C948.487 410.265 949.789 411.046 951.455 411.046C953.017 411.046 954.266 410.213 955.203 408.494C956.089 406.776 956.557 404.485 956.557 401.674C956.557 398.862 956.089 396.675 955.203 395.061C954.318 393.499 953.069 392.666 951.455 392.666ZM371.432 478.952C371.119 479.941 370.651 480.722 370.026 481.243C369.349 481.764 368.568 482.024 367.683 482.024C366.538 482.024 365.705 481.712 365.08 481.087C364.455 480.462 364.143 479.577 364.195 478.432C364.195 477.807 364.299 477.078 364.611 476.297C364.924 475.568 365.652 474.266 366.85 472.444C367.891 470.778 368.672 469.424 369.297 468.383C369.87 467.341 370.391 466.3 370.911 465.259C371.172 464.53 371.484 463.801 371.848 462.968C372.161 462.135 372.681 460.937 373.306 459.375C374.348 456.824 375.129 455.002 375.545 453.908C375.962 452.867 376.326 451.93 376.638 451.097H366.798C364.038 451.097 362.372 451.409 361.8 451.93C361.175 452.45 360.914 453.7 360.914 455.626V456.72H358.988V445.369H380.439V447.4C380.127 448.389 379.658 449.587 379.086 451.045C378.513 452.502 377.68 454.585 376.534 457.397C375.962 458.75 375.597 459.688 375.389 460.156C375.181 460.677 375.024 461.041 374.972 461.25C373.983 463.749 373.254 466.092 372.733 468.174C372.213 470.309 371.953 472.704 371.848 475.412C371.744 476.453 371.692 477.234 371.64 477.703C371.588 478.171 371.536 478.588 371.432 478.952ZM474.829 471.194C474.829 474.266 473.579 476.817 471.132 478.9C468.685 480.983 465.509 482.024 461.656 482.024C457.699 482.024 454.523 481.035 452.128 478.952C449.681 476.87 448.483 474.318 448.483 471.194C448.483 468.643 449.316 466.456 450.982 464.582C452.649 462.707 454.992 461.458 458.011 460.833C455.304 460.312 453.273 459.375 451.92 458.021C450.514 456.72 449.837 455.054 449.837 453.075C449.837 450.68 450.93 448.702 453.169 447.088C455.408 445.473 458.22 444.64 461.656 444.64C464.988 444.64 467.8 445.473 470.091 447.088C472.33 448.702 473.475 450.68 473.475 453.075C473.475 455.054 472.746 456.72 471.393 458.021C469.987 459.375 467.956 460.312 465.301 460.833C468.269 461.458 470.612 462.707 472.278 464.582C473.944 466.456 474.829 468.643 474.829 471.194ZM457.23 453.075C457.23 455.262 457.595 456.98 458.376 458.126C459.157 459.323 460.25 459.896 461.656 459.896C463.01 459.896 464.103 459.323 464.884 458.126C465.665 456.98 466.082 455.262 466.082 453.075C466.082 450.992 465.665 449.43 464.884 448.285C464.103 447.192 463.01 446.619 461.656 446.619C460.198 446.619 459.105 447.192 458.376 448.285C457.595 449.43 457.23 450.992 457.23 453.075ZM456.189 471.194C456.137 474.006 456.606 476.193 457.543 477.755C458.48 479.317 459.886 480.046 461.656 480.046C463.426 480.046 464.78 479.317 465.717 477.755C466.654 476.193 467.123 474.006 467.123 471.194C467.071 468.174 466.602 465.883 465.665 464.269C464.728 462.707 463.426 461.874 461.656 461.874C459.886 461.874 458.532 462.707 457.595 464.269C456.658 465.883 456.189 468.174 456.189 471.194ZM556.171 446.619C554.504 446.619 553.255 447.452 552.37 449.118C551.485 450.784 551.068 453.075 551.068 455.991C551.068 458.855 551.485 461.093 552.37 462.655C553.255 464.217 554.504 464.998 556.171 464.998C557.837 464.998 559.086 464.217 559.971 462.655C560.804 461.093 561.273 458.907 561.273 455.991C561.273 453.127 560.804 450.836 559.919 449.17C559.034 447.504 557.785 446.619 556.171 446.619ZM569.187 462.135C569.187 468.174 567.886 472.965 565.282 476.609C562.679 480.254 559.138 482.024 554.661 482.024C551.641 482.024 549.298 481.399 547.58 480.046C545.809 478.744 544.976 476.922 544.976 474.631C544.976 473.329 545.341 472.288 546.07 471.455C546.799 470.674 547.84 470.257 549.09 470.257C550.339 470.257 551.328 470.622 552.057 471.35C552.786 472.079 553.151 473.069 553.151 474.214C553.151 475.36 552.734 476.245 552.005 476.922C551.224 477.651 550.183 478.067 548.829 478.171C549.35 478.848 550.027 479.369 550.964 479.681C551.901 479.994 552.995 480.15 554.348 480.15C556.847 480.15 558.67 479.108 559.763 477.026C560.857 474.943 561.429 471.403 561.429 466.456V463.072C560.804 464.53 559.867 465.571 558.67 466.196C557.472 466.873 555.91 467.185 554.036 467.185C551.172 467.185 548.725 466.196 546.642 464.165C544.56 462.187 543.518 459.688 543.518 456.668C543.518 453.44 544.716 450.628 547.215 448.233C549.714 445.838 552.682 444.64 556.171 444.64C560.232 444.64 563.408 446.202 565.699 449.222C567.99 452.242 569.187 456.564 569.187 462.135ZM648.407 451.149C649.449 452.919 650.23 454.845 650.855 456.98C651.427 459.167 651.74 461.25 651.74 463.28C651.74 465.363 651.427 467.445 650.855 469.58C650.23 471.767 649.449 473.693 648.407 475.464C647.158 477.598 645.648 479.213 643.878 480.358C642.107 481.503 640.233 482.024 638.202 482.024C636.12 482.024 634.245 481.503 632.527 480.358C630.757 479.213 629.247 477.598 627.997 475.464C626.956 473.746 626.123 471.819 625.55 469.632C624.926 467.445 624.665 465.363 624.665 463.28C624.665 461.25 624.926 459.167 625.55 456.98C626.123 454.845 626.956 452.919 627.997 451.149C629.247 449.066 630.705 447.452 632.475 446.307C634.245 445.213 636.12 444.64 638.202 444.64C640.233 444.64 642.107 445.213 643.878 446.307C645.648 447.452 647.158 449.066 648.407 451.149ZM638.202 446.619C635.912 446.619 634.402 447.816 633.569 450.159C632.735 452.502 632.371 456.876 632.371 463.28C632.371 469.632 632.788 474.058 633.621 476.453C634.454 478.848 636.016 480.046 638.202 480.046C640.389 480.046 641.951 478.848 642.784 476.453C643.617 474.058 644.034 469.684 644.034 463.28C644.034 456.928 643.617 452.554 642.784 450.159C641.951 447.816 640.389 446.619 638.202 446.619Z" fill="#171717"/>
<path d="M83.3677 1.39111V516.816" stroke="#0ABAB5" stroke-width="3.4198"/>
<path d="M2.01382 2.56323V517.243" stroke="#0ABAB5" stroke-width="3.4198"/>
<path d="M167.019 1.70825V515.533" stroke="#0ABAB5" stroke-width="3.4198"/>
<path d="M253.369 3.41816L253.397 515.961" stroke="#0ABAB5" stroke-width="3.4198"/>
<path d="M338.005 1.39111V516.815" stroke="#0ABAB5" stroke-width="3.4198"/>
<path d="M420.173 2.56323V516.539" stroke="#0ABAB5" stroke-width="3.4198"/>
<path d="M502.34 1.28076V516.539" stroke="#0ABAB5" stroke-width="3.4198"/>
<path d="M589.389 2.56323V516.539" stroke="#0ABAB5" stroke-width="3.4198"/>
<path d="M672.369 1.28076V516.539" stroke="#0ABAB5" stroke-width="3.4198"/>
<path d="M759.418 1.28076V516.539" stroke="#0ABAB5" stroke-width="3.4198"/>
<path d="M842.43 1.70825L842.399 516.539" stroke="#0ABAB5" stroke-width="3.4198"/>
<path d="M925.38 1.70825V516.539" stroke="#0ABAB5" stroke-width="3.4198"/>
<path d="M1008.29 1.42551V517.243" stroke="#0ABAB5" stroke-width="3.4198"/>
<path d="M0.303925 515.533L1010 515.533" stroke="#0ABAB5" stroke-width="3.4198"/>
<path d="M0.303925 2.56299L1010 2.56299" stroke="#0ABAB5" stroke-width="3.4198"/>
</svg>
