<svg width="989" height="768" viewBox="0 0 989 768" fill="none" xmlns="http://www.w3.org/2000/svg">
<mask id="path-1-inside-1_246_11914" fill="white">
<path fill-rule="evenodd" clip-rule="evenodd" d="M819.855 22C818.831 22 818 22.8305 818 23.855V90.145C818 91.1695 818.831 92 819.855 92H833.708V110.855C790.027 111.538 758.001 113.769 758 116.417V116.417V335.932V335.933C758 339.123 804.498 341.71 861.856 341.71C919.214 341.71 965.712 339.123 965.712 335.933V335.932V116.417V116.417C965.71 113.73 932.732 111.472 888.062 110.826V92H902.145C903.169 92 904 91.1695 904 90.145V23.855C904 22.8305 903.169 22 902.145 22H819.855Z"/>
</mask>
<path fill-rule="evenodd" clip-rule="evenodd" d="M819.855 22C818.831 22 818 22.8305 818 23.855V90.145C818 91.1695 818.831 92 819.855 92H833.708V110.855C790.027 111.538 758.001 113.769 758 116.417V116.417V335.932V335.933C758 339.123 804.498 341.71 861.856 341.71C919.214 341.71 965.712 339.123 965.712 335.933V335.932V116.417V116.417C965.71 113.73 932.732 111.472 888.062 110.826V92H902.145C903.169 92 904 91.1695 904 90.145V23.855C904 22.8305 903.169 22 902.145 22H819.855Z" fill="white"/>
<path d="M833.708 92H836.708V89H833.708V92ZM833.708 110.855L833.755 113.855L836.708 113.809V110.855H833.708ZM758 116.417L755 116.415V116.417H758ZM965.712 116.417H968.712V116.415L965.712 116.417ZM888.062 110.826H885.062V113.783L888.019 113.826L888.062 110.826ZM888.062 92V89H885.062V92H888.062ZM821 23.855C821 24.4874 820.487 25 819.855 25V19C817.174 19 815 21.1737 815 23.855H821ZM821 90.145V23.855H815V90.145H821ZM819.855 89C820.487 89 821 89.5126 821 90.145H815C815 92.8264 817.174 95 819.855 95V89ZM833.708 89H819.855V95H833.708V89ZM830.708 92V110.855H836.708V92H830.708ZM833.661 107.855C811.791 108.197 792.803 108.927 779.258 109.907C772.499 110.396 767.027 110.952 763.211 111.565C761.325 111.868 759.716 112.204 758.526 112.596C757.951 112.784 757.292 113.043 756.718 113.422C756.296 113.7 755.001 114.646 755 116.415L761 116.418C761 117.139 760.716 117.675 760.486 117.98C760.273 118.261 760.07 118.399 760.023 118.429C759.94 118.484 760.012 118.423 760.398 118.296C761.13 118.056 762.364 117.778 764.163 117.489C767.718 116.918 772.983 116.376 779.691 115.891C793.079 114.923 811.944 114.195 833.755 113.855L833.661 107.855ZM755 116.417V116.417H761V116.417H755ZM755 116.417V335.932H761V116.417H755ZM755 335.932V335.933H761V335.932H755ZM755 335.933C755 337.01 755.504 337.797 755.918 338.251C756.317 338.689 756.765 338.974 757.095 339.155C757.76 339.519 758.555 339.784 759.323 339.992C760.905 340.422 763.106 340.806 765.77 341.156C771.138 341.862 778.83 342.489 788.252 343.013C807.117 344.063 833.14 344.71 861.856 344.71V338.71C833.214 338.71 807.308 338.064 788.585 337.022C779.213 336.501 771.696 335.884 766.553 335.207C763.961 334.866 762.081 334.524 760.897 334.202C760.61 334.124 760.388 334.054 760.223 333.994C760.141 333.964 760.08 333.939 760.037 333.92C759.993 333.901 759.975 333.891 759.977 333.893C759.978 333.893 760.015 333.913 760.073 333.956C760.13 333.997 760.233 334.079 760.352 334.21C760.587 334.467 761 335.056 761 335.933H755ZM861.856 344.71C890.572 344.71 916.594 344.063 935.46 343.013C944.881 342.489 952.574 341.862 957.941 341.156C960.605 340.806 962.806 340.422 964.389 339.992C965.156 339.784 965.952 339.519 966.617 339.155C966.946 338.974 967.395 338.689 967.794 338.251C968.207 337.797 968.712 337.01 968.712 335.933H962.712C962.712 335.056 963.125 334.467 963.359 334.21C963.478 334.079 963.582 333.997 963.638 333.956C963.697 333.913 963.733 333.893 963.734 333.893C963.737 333.891 963.719 333.901 963.675 333.92C963.631 333.939 963.57 333.964 963.489 333.994C963.324 334.054 963.102 334.124 962.815 334.202C961.63 334.524 959.75 334.866 957.159 335.207C952.015 335.884 944.499 336.501 935.126 337.022C916.403 338.064 890.498 338.71 861.856 338.71V344.71ZM968.712 335.933V335.932H962.712V335.933H968.712ZM968.712 335.932V116.417H962.712V335.932H968.712ZM968.712 116.417V116.417H962.712V116.417H968.712ZM968.712 116.415C968.711 114.623 967.383 113.675 966.966 113.404C966.386 113.026 965.718 112.768 965.131 112.578C963.915 112.184 962.267 111.844 960.329 111.538C956.41 110.918 950.79 110.356 943.85 109.864C929.944 108.877 910.471 108.15 888.106 107.826L888.019 113.826C910.324 114.148 929.674 114.873 943.425 115.849C950.314 116.337 955.73 116.885 959.391 117.464C961.243 117.757 962.521 118.039 963.283 118.286C963.685 118.416 963.769 118.482 963.694 118.433C963.652 118.406 963.45 118.272 963.236 117.993C963.004 117.691 962.712 117.15 962.712 116.418L968.712 116.415ZM891.062 110.826V92H885.062V110.826H891.062ZM902.145 89H888.062V95H902.145V89ZM901 90.145C901 89.5126 901.513 89 902.145 89V95C904.826 95 907 92.8264 907 90.145H901ZM901 23.855V90.145H907V23.855H901ZM902.145 25C901.513 25 901 24.4874 901 23.855H907C907 21.1737 904.826 19 902.145 19V25ZM819.855 25H902.145V19H819.855V25Z" fill="black" mask="url(#path-1-inside-1_246_11914)"/>
<path d="M947.764 146.027H773.562C773.562 186.062 785.756 308.026 861.631 306.489C937.505 304.951 947.764 183.5 947.764 146.027Z" fill="#0ABAB5" stroke="black" stroke-width="3"/>
<path d="M805.971 197.89H809.121V199H802.281V197.89H804.561V179.41H802.281V178.3H809.151L814.161 190.69L819.201 178.3H826.071V179.41H823.791V197.89H826.071V199H816.891V197.89H819.531V180.91L813.291 196.27H812.181L805.971 180.85V197.89ZM843.478 199H828.238V197.89H830.518V179.41H828.238V178.3H842.938V184.9H841.828V183.85C841.828 182.29 841.438 181.18 840.688 180.46C839.938 179.77 838.708 179.41 836.998 179.41H834.748V187.9H838.648V185.68H839.938V191.53H838.648V189.01H834.748V197.89H838.138C839.638 197.89 840.718 197.56 841.378 196.84C842.038 196.12 842.368 194.89 842.368 193.15V192.28H843.478V199ZM861.328 196C860.368 196.96 859.228 197.71 857.968 198.22C856.708 198.76 855.358 199 853.918 199H845.728V197.89H848.008V179.41H845.728V178.3H853.918C855.358 178.3 856.708 178.57 857.968 179.08C859.228 179.59 860.338 180.34 861.328 181.3C862.288 182.26 863.008 183.4 863.548 184.66C864.088 185.95 864.358 187.27 864.358 188.62C864.358 190 864.088 191.32 863.548 192.61C863.008 193.9 862.288 195.04 861.328 196ZM853.198 179.41H852.238V197.89H853.198C855.358 197.89 856.978 197.14 858.058 195.58C859.138 194.02 859.678 191.71 859.678 188.62C859.678 185.56 859.108 183.28 858.028 181.72C856.948 180.19 855.328 179.41 853.198 179.41ZM875.499 197.89V199H866.529V197.89H868.899V179.41H866.529V178.3H875.499V179.41H873.129V197.89H875.499ZM893.352 179.41V191.92C893.352 194.62 892.842 196.54 891.822 197.68C890.802 198.85 889.182 199.42 886.932 199.42C884.382 199.42 882.522 198.82 881.322 197.59C880.122 196.36 879.552 194.44 879.552 191.8V179.41H877.272V178.3H886.482V179.41H883.812V192.46C883.812 194.44 884.142 195.88 884.802 196.81C885.462 197.74 886.512 198.19 887.922 198.19C889.302 198.19 890.322 197.74 890.952 196.84C891.582 195.94 891.912 194.38 891.912 192.22V179.41H889.242V178.3H895.602V179.41H893.352ZM901.069 197.89H903.829V199H897.379V197.89H899.659V179.41H897.379V178.3H903.169L912.619 193.06V179.41H909.859V178.3H916.339V179.41H914.059V199.18H911.959L901.069 182.41V197.89Z" fill="black"/>
<path d="M807.9 226H801.06L801.21 224.89H803.49L805.74 206.41H803.46L803.61 205.3H810.87L813.57 217.18L819.42 205.3H826.62L826.5 206.41H824.22L821.97 224.89H824.25L824.1 226H814.92L815.07 224.89H817.71L819.9 207.1L811.92 223.24H810.81L807.09 207.07L804.9 224.89H808.05L807.9 226ZM841.315 226H826.255L826.405 224.89H828.685L830.935 206.41H828.655L828.805 205.3H843.325L842.515 211.9H841.375L841.495 210.85C841.705 209.29 841.495 208.18 840.835 207.46C840.175 206.77 838.975 206.41 837.235 206.41H835.195L834.145 214.9H837.865L838.135 212.68H839.395L838.675 218.53H837.415L837.715 216.01H833.995L832.915 224.89H836.125C837.595 224.89 838.705 224.56 839.455 223.84C840.205 223.12 840.685 221.89 840.925 220.15L841.015 219.28H842.155L841.315 226ZM852.292 226H843.892L844.042 224.89H846.322L848.572 206.41H846.292L846.442 205.3H854.812C856.252 205.3 857.572 205.57 858.772 206.08C859.972 206.59 860.992 207.31 861.832 208.27C862.672 209.26 863.302 210.4 863.662 211.66C864.022 212.95 864.142 214.27 863.962 215.62C863.782 217 863.362 218.32 862.672 219.58C861.982 220.87 861.112 222.01 860.062 222.97C858.982 223.96 857.752 224.71 856.432 225.22C855.112 225.76 853.732 226 852.292 226ZM852.832 206.41L850.552 224.89H851.722C853.852 224.89 855.562 224.14 856.822 222.58C858.082 221.02 858.922 218.71 859.312 215.62C859.672 212.56 859.432 210.28 858.532 208.72C857.632 207.19 856.102 206.41 853.972 206.41H852.832ZM873.781 226H864.781L864.931 224.89H867.301L869.551 206.41H867.181L867.331 205.3H876.301L876.181 206.41H873.811L871.561 224.89H873.901L873.781 226ZM885.004 226.42C882.484 226.42 880.684 225.82 879.664 224.59C878.614 223.36 878.254 221.44 878.584 218.8L880.084 206.41H877.834L877.984 205.3H887.194L887.044 206.41H884.344L882.754 219.46C882.484 221.47 882.634 222.94 883.174 223.84C883.714 224.74 884.644 225.19 886.024 225.19C887.434 225.19 888.544 224.74 889.324 223.78C890.104 222.85 890.614 221.32 890.884 219.22L892.474 206.41H889.774L889.924 205.3H896.314L896.164 206.41H893.884L892.354 218.92C891.994 221.62 891.244 223.54 890.104 224.68C888.964 225.85 887.254 226.42 885.004 226.42ZM901.905 226H895.425L895.575 224.89H897.855L900.105 206.41H897.825L897.975 205.3H903.855L911.445 219.76L913.095 206.41H910.305L910.455 205.3H916.935L916.785 206.41H914.505L912.105 226.18H910.005L901.155 209.44L899.265 224.89H902.025L901.905 226Z" fill="black"/>
<rect x="821" y="25" width="80" height="64" fill="#FFD0FD"/>
<mask id="path-7-inside-2_246_11914" fill="white">
<path fill-rule="evenodd" clip-rule="evenodd" d="M502 86.9558C511.723 79.7409 518 68.3354 518 55.5C518 33.6848 499.868 16 477.5 16C455.132 16 437 33.6848 437 55.5C437 68.3354 443.277 79.7409 453 86.9558C453 86.9705 453 86.9852 453 87V91H438C436.895 91 436 91.8954 436 93V106.283C388.598 124.057 355 168.494 355 220.5C355 266.041 380.764 305.778 419 326.889V347H537V330.948C579.599 311.176 609 269.15 609 220.5C609 164.906 570.607 117.962 518 102.991V93C518 91.8954 517.105 91 516 91H502V87C502 86.9852 502 86.9705 502 86.9558Z"/>
</mask>
<path fill-rule="evenodd" clip-rule="evenodd" d="M502 86.9558C511.723 79.7409 518 68.3354 518 55.5C518 33.6848 499.868 16 477.5 16C455.132 16 437 33.6848 437 55.5C437 68.3354 443.277 79.7409 453 86.9558C453 86.9705 453 86.9852 453 87V91H438C436.895 91 436 91.8954 436 93V106.283C388.598 124.057 355 168.494 355 220.5C355 266.041 380.764 305.778 419 326.889V347H537V330.948C579.599 311.176 609 269.15 609 220.5C609 164.906 570.607 117.962 518 102.991V93C518 91.8954 517.105 91 516 91H502V87C502 86.9852 502 86.9705 502 86.9558Z" fill="white"/>
<path d="M502 86.9558L500.212 84.5466L498.966 85.4707L499 87.0212L502 86.9558ZM453 86.9558L456 87.0212L456.034 85.4707L454.788 84.5466L453 86.9558ZM453 91V94H456V91H453ZM436 106.283L437.053 109.092L439 108.362V106.283H436ZM419 326.889H422V325.119L420.45 324.263L419 326.889ZM419 347H416V350H419V347ZM537 347V350H540V347H537ZM537 330.948L535.737 328.227L534 329.033V330.948H537ZM518 102.991H515V105.257L517.179 105.877L518 102.991ZM502 91H499V94H502V91ZM515 55.5C515 67.3277 509.22 77.8621 500.212 84.5466L503.787 89.365C514.226 81.6196 521 69.343 521 55.5H515ZM477.5 19C498.282 19 515 35.4119 515 55.5H521C521 31.9576 501.453 13 477.5 13V19ZM440 55.5C440 35.4119 456.718 19 477.5 19V13C453.547 13 434 31.9576 434 55.5H440ZM454.788 84.5466C445.78 77.8621 440 67.3277 440 55.5H434C434 69.343 440.774 81.6196 451.213 89.365L454.788 84.5466ZM450.001 86.8904C450 86.927 450 86.9635 450 87H456C456 87.0069 456 87.014 456 87.0212L450.001 86.8904ZM450 87V91H456V87H450ZM453 88H438V94H453V88ZM438 88C435.239 88 433 90.2386 433 93H439C439 93.5523 438.552 94 438 94V88ZM433 93V106.283H439V93H433ZM434.947 103.474C386.464 121.653 352 167.15 352 220.5H358C358 169.838 390.732 126.461 437.053 109.092L434.947 103.474ZM352 220.5C352 267.214 378.431 307.917 417.55 329.515L420.45 324.263C383.097 303.639 358 264.868 358 220.5H352ZM416 326.889V347H422V326.889H416ZM419 350H537V344H419V350ZM540 347V330.948H534V347H540ZM538.263 333.669C581.839 313.443 612 270.405 612 220.5H606C606 267.894 577.358 308.908 535.737 328.227L538.263 333.669ZM612 220.5C612 163.468 572.62 115.416 518.821 100.106L517.179 105.877C568.593 120.509 606 166.345 606 220.5H612ZM521 102.991V93H515V102.991H521ZM521 93C521 90.2386 518.761 88 516 88V94C515.448 94 515 93.5523 515 93H521ZM516 88H502V94H516V88ZM505 91V87H499V91H505ZM505 87C505 86.9646 505 86.928 504.999 86.8904L499 87.0212C499 87.013 499 87.0059 499 87H505Z" fill="black" mask="url(#path-7-inside-2_246_11914)"/>
<ellipse cx="477.5" cy="55.5" rx="37.5" ry="36.5" fill="#0ABAB5"/>
<ellipse cx="482" cy="221" rx="88" ry="84" fill="#0ABAB5"/>
<path d="M371.987 277C347.987 237.8 358 188.5 368.987 170H594.987C616.187 207.2 605.5 259.5 591.987 277H371.987Z" fill="#FFD0FD" stroke="black" stroke-width="3"/>
<path d="M433.35 212.33C432.66 212.33 432.09 212.21 431.64 211.94C431.16 211.67 430.77 211.25 430.47 210.65C430.29 210.41 430.14 210.08 430.02 209.69C429.87 209.33 429.63 208.52 429.33 207.32C428.79 205.34 428.22 204.05 427.59 203.39C426.96 202.76 426.03 202.43 424.83 202.43H423.93V211.01H427.29V212H418.26V211.01H420.72V192.29H418.26V191.3H424.86C427.62 191.3 429.75 191.78 431.25 192.71C432.75 193.67 433.53 194.99 433.53 196.73C433.53 198.08 432.93 199.25 431.79 200.24C430.65 201.23 429.18 201.83 427.41 202.01C428.22 202.31 428.91 202.61 429.51 202.91C430.08 203.21 430.56 203.51 430.95 203.81C431.4 204.17 431.76 204.59 432.03 205.01C432.27 205.46 432.54 206.18 432.78 207.17C433.23 209.06 433.53 210.14 433.71 210.44C433.86 210.74 434.07 210.89 434.37 210.89C434.76 210.89 435.06 210.62 435.24 210.05C435.42 209.51 435.51 208.64 435.51 207.44H436.41C436.41 209.21 436.14 210.47 435.66 211.22C435.18 211.97 434.4 212.33 433.35 212.33ZM430.08 196.76C430.08 195.26 429.63 194.15 428.79 193.4C427.95 192.68 426.66 192.29 424.98 192.29H423.93V201.47H424.92C426.63 201.47 427.92 201.08 428.79 200.3C429.63 199.52 430.08 198.32 430.08 196.76ZM452.651 212H437.801V211.01H440.261V192.29H437.801V191.3H452.111V197.9H451.121V196.64C451.121 195.05 450.761 193.94 450.101 193.28C449.441 192.62 448.211 192.29 446.471 192.29H443.471V200.99H447.821V198.68H448.931V204.53H447.821V201.95H443.471V211.01H447.611C449.081 211.01 450.131 210.71 450.731 210.05C451.331 209.39 451.661 208.16 451.661 206.36V205.28H452.651V212ZM470.591 212.3H470.021L468.581 211.19C467.951 211.58 467.291 211.88 466.571 212.06C465.851 212.24 465.071 212.33 464.201 212.33C462.851 212.33 461.621 212.06 460.481 211.46C459.341 210.86 458.381 210.02 457.541 208.91C456.791 207.92 456.221 206.78 455.801 205.49C455.381 204.23 455.201 202.94 455.201 201.62C455.201 200.36 455.411 199.07 455.861 197.81C456.281 196.55 456.911 195.41 457.691 194.39C458.531 193.28 459.551 192.44 460.691 191.84C461.831 191.27 463.061 190.97 464.381 190.97C465.191 190.97 465.971 191.09 466.751 191.27C467.531 191.48 468.161 191.75 468.641 192.11L469.841 191H470.351V197.9H469.391C469.391 196.01 468.971 194.54 468.131 193.52C467.291 192.5 466.091 191.99 464.531 191.99C462.551 191.99 461.111 192.8 460.151 194.39C459.191 196.01 458.741 198.41 458.741 201.62C458.741 204.83 459.191 207.26 460.151 208.88C461.111 210.5 462.491 211.31 464.351 211.31C464.981 211.31 465.551 211.25 466.091 211.07C466.601 210.89 467.051 210.65 467.441 210.29V203.45H464.591V202.46H472.841V203.45H470.591V212.3ZM489.806 192.29V205.04C489.806 207.62 489.296 209.48 488.336 210.62C487.346 211.76 485.786 212.33 483.656 212.33C481.226 212.33 479.456 211.76 478.316 210.59C477.176 209.42 476.606 207.56 476.606 205.01V192.29H474.146V191.3H482.636V192.29H479.846V205.25C479.846 207.41 480.176 208.94 480.896 209.9C481.586 210.86 482.666 211.31 484.166 211.31C485.666 211.31 486.776 210.83 487.496 209.87C488.186 208.91 488.546 207.35 488.546 205.13V192.29H485.756V191.3H492.266V192.29H489.806ZM508.565 212H494.285V211.01H496.745V192.29H494.285V191.3H503.225V192.29H499.955V211.01H503.525C504.995 211.01 506.045 210.71 506.675 210.05C507.275 209.39 507.605 208.16 507.605 206.36V205.28H508.565V212ZM514.236 204.38H519.936L517.086 195.95L514.236 204.38ZM515.466 212H508.896V211.01H510.816L517.686 191H518.766L525.576 211.01H527.646V212H518.616V211.01H522.186L520.266 205.37H513.906L511.986 211.01H515.466V212ZM543.594 212.33C542.904 212.33 542.334 212.21 541.884 211.94C541.404 211.67 541.014 211.25 540.714 210.65C540.534 210.41 540.384 210.08 540.264 209.69C540.114 209.33 539.874 208.52 539.574 207.32C539.034 205.34 538.464 204.05 537.834 203.39C537.204 202.76 536.274 202.43 535.074 202.43H534.174V211.01H537.534V212H528.504V211.01H530.964V192.29H528.504V191.3H535.104C537.864 191.3 539.994 191.78 541.494 192.71C542.994 193.67 543.774 194.99 543.774 196.73C543.774 198.08 543.174 199.25 542.034 200.24C540.894 201.23 539.424 201.83 537.654 202.01C538.464 202.31 539.154 202.61 539.754 202.91C540.324 203.21 540.804 203.51 541.194 203.81C541.644 204.17 542.004 204.59 542.274 205.01C542.514 205.46 542.784 206.18 543.024 207.17C543.474 209.06 543.774 210.14 543.954 210.44C544.104 210.74 544.314 210.89 544.614 210.89C545.004 210.89 545.304 210.62 545.484 210.05C545.664 209.51 545.754 208.64 545.754 207.44H546.654C546.654 209.21 546.384 210.47 545.904 211.22C545.424 211.97 544.644 212.33 543.594 212.33ZM540.324 196.76C540.324 195.26 539.874 194.15 539.034 193.4C538.194 192.68 536.904 192.29 535.224 192.29H534.174V201.47H535.164C536.874 201.47 538.164 201.08 539.034 200.3C539.874 199.52 540.324 198.32 540.324 196.76Z" fill="black"/>
<path d="M432.09 240.33C431.43 240.33 430.89 240.21 430.47 239.91C430.05 239.64 429.72 239.22 429.48 238.62C429.36 238.35 429.27 238.02 429.18 237.63C429.09 237.24 428.97 236.46 428.82 235.32C428.52 233.43 428.13 232.14 427.59 231.48C427.05 230.82 426.21 230.46 425.07 230.43H424.05L423 239.01H426.33L426.21 240H417.18L417.3 239.01H419.76L422.04 220.29H419.61L419.73 219.3H426.09C428.91 219.3 431.07 219.78 432.51 220.74C433.95 221.7 434.55 223.02 434.34 224.73C434.16 226.08 433.44 227.25 432.18 228.24C430.92 229.23 429.39 229.83 427.59 230.01C428.37 230.31 429.03 230.58 429.57 230.85C430.11 231.15 430.59 231.45 430.95 231.75C431.31 232.11 431.61 232.53 431.82 232.98C432 233.43 432.18 234.15 432.3 235.17C432.54 237.12 432.72 238.23 432.84 238.5C432.96 238.77 433.14 238.89 433.41 238.89C433.8 238.89 434.13 238.62 434.4 238.05C434.64 237.51 434.85 236.64 435 235.44H435.9C435.66 237.24 435.27 238.5 434.67 239.22C434.07 239.97 433.2 240.33 432.09 240.33ZM425.28 220.29L424.17 229.47H425.01C426.75 229.47 428.13 229.08 429.09 228.3C430.05 227.52 430.65 226.32 430.86 224.76C431.04 223.26 430.74 222.15 429.96 221.4C429.15 220.68 427.86 220.29 426.06 220.29H425.28ZM451.36 240H436.78L436.9 239.01H439.36L441.64 220.29H439.21L439.33 219.3H453.37L452.56 225.9H451.6L451.72 224.64C451.9 223.05 451.72 221.94 451.12 221.28C450.52 220.62 449.35 220.29 447.61 220.29H444.88L443.83 228.99H447.88L448.18 226.68H449.32L448.6 232.53H447.46L447.76 229.95H443.68L442.6 239.01H446.44C447.91 239.01 448.99 238.71 449.68 238.05C450.37 237.39 450.85 236.16 451.09 234.36L451.24 233.28H452.2L451.36 240ZM462.823 240.33C461.443 240.33 460.243 240.03 459.193 239.43C458.143 238.83 457.273 237.96 456.613 236.82C456.013 235.86 455.623 234.72 455.383 233.46C455.143 232.2 455.083 230.94 455.233 229.62C455.383 228.36 455.743 227.07 456.343 225.81C456.943 224.55 457.663 223.41 458.563 222.39C459.553 221.28 460.663 220.44 461.863 219.84C463.063 219.27 464.293 218.97 465.613 218.97C466.423 218.97 467.173 219.09 467.893 219.27C468.583 219.48 469.153 219.75 469.603 220.11L470.953 219H471.463L470.623 225.9H469.663C469.873 223.98 469.633 222.51 468.973 221.49C468.283 220.5 467.173 219.99 465.643 219.99C463.723 219.99 462.193 220.8 461.053 222.36C459.913 223.95 459.163 226.38 458.773 229.62C458.383 232.86 458.533 235.29 459.253 236.91C459.973 238.53 461.233 239.31 463.093 239.31C463.693 239.31 464.263 239.25 464.773 239.07C465.283 238.92 465.763 238.68 466.183 238.38L467.053 230.94H464.233L464.353 229.95H472.603L472.483 230.94H470.233L469.093 240.3H468.493L467.203 239.19C466.513 239.61 465.823 239.88 465.133 240.06C464.443 240.24 463.663 240.33 462.823 240.33ZM481.842 240.33C479.412 240.33 477.702 239.76 476.712 238.59C475.692 237.42 475.362 235.56 475.662 233.01L477.252 220.29H474.792L474.912 219.3H483.402L483.282 220.29H480.462L478.872 233.25C478.602 235.41 478.752 236.97 479.352 237.9C479.922 238.86 480.942 239.31 482.442 239.31C483.972 239.31 485.142 238.83 485.982 237.87C486.792 236.91 487.332 235.35 487.602 233.13L489.162 220.29H486.372L486.522 219.3H493.032L492.912 220.29H490.452L488.862 233.04C488.562 235.62 487.842 237.48 486.732 238.62C485.592 239.76 483.972 240.33 481.842 240.33ZM506.724 240H492.444L492.564 239.01H495.024L497.304 220.29H494.874L494.994 219.3H503.934L503.814 220.29H500.544L498.264 239.01H501.804C503.274 239.01 504.354 238.71 505.044 238.05C505.734 237.39 506.214 236.16 506.454 234.36L506.604 233.28H507.564L506.724 240ZM516.954 223.98L513.414 231.6H518.604L516.954 223.98ZM513.354 240H506.784L506.904 239.01H508.824L518.154 219H519.234L523.614 239.01H525.654L525.534 240H516.534L516.654 239.01H520.194L518.814 232.56H512.964L509.964 239.01H513.504L513.354 240ZM541.074 240.33C540.414 240.33 539.874 240.21 539.454 239.91C539.034 239.64 538.704 239.22 538.464 238.62C538.344 238.35 538.254 238.02 538.164 237.63C538.074 237.24 537.954 236.46 537.804 235.32C537.504 233.43 537.114 232.14 536.574 231.48C536.034 230.82 535.194 230.46 534.054 230.43H533.034L531.984 239.01H535.314L535.194 240H526.164L526.284 239.01H528.744L531.024 220.29H528.594L528.714 219.3H535.074C537.894 219.3 540.054 219.78 541.494 220.74C542.934 221.7 543.534 223.02 543.324 224.73C543.144 226.08 542.424 227.25 541.164 228.24C539.904 229.23 538.374 229.83 536.574 230.01C537.354 230.31 538.014 230.58 538.554 230.85C539.094 231.15 539.574 231.45 539.934 231.75C540.294 232.11 540.594 232.53 540.804 232.98C540.984 233.43 541.164 234.15 541.284 235.17C541.524 237.12 541.704 238.23 541.824 238.5C541.944 238.77 542.124 238.89 542.394 238.89C542.784 238.89 543.114 238.62 543.384 238.05C543.624 237.51 543.834 236.64 543.984 235.44H544.884C544.644 237.24 544.254 238.5 543.654 239.22C543.054 239.97 542.184 240.33 541.074 240.33ZM534.264 220.29L533.154 229.47H533.994C535.734 229.47 537.114 229.08 538.074 228.3C539.034 227.52 539.634 226.32 539.844 224.76C540.024 223.26 539.724 222.15 538.944 221.4C538.134 220.68 536.844 220.29 535.044 220.29H534.264Z" fill="black"/>
<mask id="path-14-inside-3_246_11914" fill="white">
<path fill-rule="evenodd" clip-rule="evenodd" d="M721.874 516.857C724.773 515.703 727.254 514.228 729.16 512.522H747.582V510.518C771.771 520.053 807.27 539.509 839.585 568.9C873.315 599.577 903.29 640.806 913.647 692.581C888.342 696.94 869.705 711.822 869.705 729.512C869.705 750.622 896.247 767.735 928.988 767.735C961.729 767.735 988.271 750.622 988.271 729.512C988.271 708.402 961.729 691.289 928.988 691.289C927.244 691.289 925.518 691.337 923.812 691.432C913.061 636.509 881.421 593.18 846.441 561.366C811.487 529.576 772.907 509.009 747.582 499.609V496.057H729.162C724.421 491.813 716.122 489 706.677 489C691.944 489 680 495.845 680 504.289C680 508.927 683.603 513.082 689.291 515.886C689.1 516.808 689 517.763 689 518.742V541.742H671C663.268 541.742 657 548.01 657 555.742V584.293C582.521 592.244 528 617.864 528 648.242C528 670.299 556.743 689.847 601 701.945V737.742H811V701.945C855.257 689.847 884 670.299 884 648.242C884 617.864 829.479 592.244 755 584.293V555.742C755 548.01 748.732 541.742 741 541.742H722V518.742C722 518.103 721.957 517.473 721.874 516.857Z"/>
</mask>
<path fill-rule="evenodd" clip-rule="evenodd" d="M721.874 516.857C724.773 515.703 727.254 514.228 729.16 512.522H747.582V510.518C771.771 520.053 807.27 539.509 839.585 568.9C873.315 599.577 903.29 640.806 913.647 692.581C888.342 696.94 869.705 711.822 869.705 729.512C869.705 750.622 896.247 767.735 928.988 767.735C961.729 767.735 988.271 750.622 988.271 729.512C988.271 708.402 961.729 691.289 928.988 691.289C927.244 691.289 925.518 691.337 923.812 691.432C913.061 636.509 881.421 593.18 846.441 561.366C811.487 529.576 772.907 509.009 747.582 499.609V496.057H729.162C724.421 491.813 716.122 489 706.677 489C691.944 489 680 495.845 680 504.289C680 508.927 683.603 513.082 689.291 515.886C689.1 516.808 689 517.763 689 518.742V541.742H671C663.268 541.742 657 548.01 657 555.742V584.293C582.521 592.244 528 617.864 528 648.242C528 670.299 556.743 689.847 601 701.945V737.742H811V701.945C855.257 689.847 884 670.299 884 648.242C884 617.864 829.479 592.244 755 584.293V555.742C755 548.01 748.732 541.742 741 541.742H722V518.742C722 518.103 721.957 517.473 721.874 516.857Z" fill="white"/>
<path d="M729.16 512.522V509.522H728.014L727.159 510.287L729.16 512.522ZM721.874 516.857L720.765 514.07L718.589 514.936L718.901 517.257L721.874 516.857ZM747.582 512.522V515.522H750.582V512.522H747.582ZM747.582 510.518L748.683 507.727L744.582 506.11V510.518H747.582ZM839.585 568.9L841.603 566.68L839.585 568.9ZM913.647 692.581L914.156 695.537L917.193 695.014L916.588 691.992L913.647 692.581ZM923.812 691.432L920.868 692.009L921.37 694.573L923.979 694.428L923.812 691.432ZM846.441 561.366L848.46 559.147L846.441 561.366ZM747.582 499.609H744.582V501.696L746.538 502.422L747.582 499.609ZM747.582 496.057H750.582V493.057H747.582V496.057ZM729.162 496.057L727.16 498.292L728.015 499.057H729.162V496.057ZM689.291 515.886L692.229 516.495L692.7 514.222L690.618 513.195L689.291 515.886ZM689 541.742V544.742H692V541.742H689ZM657 584.293L657.318 587.276L660 586.99V584.293H657ZM601 701.945H604V699.655L601.791 699.051L601 701.945ZM601 737.742H598V740.742H601V737.742ZM811 737.742V740.742H814V737.742H811ZM811 701.945L810.209 699.051L808 699.655V701.945H811ZM755 584.293H752V586.99L754.682 587.276L755 584.293ZM722 541.742H719V544.742H722V541.742ZM727.159 510.287C725.567 511.712 723.408 513.018 720.765 514.07L722.983 519.644C726.139 518.389 728.941 516.745 731.161 514.758L727.159 510.287ZM747.582 509.522H729.16V515.522H747.582V509.522ZM744.582 510.518V512.522H750.582V510.518H744.582ZM841.603 566.68C808.994 537.022 773.176 517.382 748.683 507.727L746.482 513.309C770.366 522.724 805.546 541.996 837.566 571.119L841.603 566.68ZM916.588 691.992C906.069 639.407 875.648 597.644 841.603 566.68L837.566 571.119C870.982 601.51 900.51 642.206 910.705 693.169L916.588 691.992ZM872.705 729.512C872.705 721.798 876.759 714.436 884.1 708.358C891.444 702.277 901.916 697.646 914.156 695.537L913.137 689.624C900.073 691.875 888.574 696.864 880.274 703.737C871.97 710.612 866.705 719.536 866.705 729.512H872.705ZM928.988 764.735C913.108 764.735 898.87 760.579 888.695 754.018C878.488 747.438 872.705 738.704 872.705 729.512H866.705C866.705 741.429 874.194 751.808 885.443 759.061C896.724 766.334 912.128 770.735 928.988 770.735V764.735ZM985.271 729.512C985.271 738.704 979.489 747.438 969.282 754.018C959.107 760.579 944.869 764.735 928.988 764.735V770.735C945.849 770.735 961.253 766.334 972.533 759.061C983.783 751.808 991.271 741.429 991.271 729.512H985.271ZM928.988 694.289C944.869 694.289 959.107 698.445 969.282 705.005C979.489 711.586 985.271 720.319 985.271 729.512H991.271C991.271 717.594 983.783 707.216 972.533 699.963C961.253 692.689 945.849 688.289 928.988 688.289V694.289ZM923.979 694.428C925.629 694.336 927.3 694.289 928.988 694.289V688.289C927.189 688.289 925.407 688.339 923.645 688.437L923.979 694.428ZM844.423 563.586C879.087 595.112 910.277 637.903 920.868 692.009L926.757 690.856C915.845 635.115 883.756 591.248 848.46 559.147L844.423 563.586ZM746.538 502.422C771.531 511.698 809.773 532.073 844.423 563.586L848.46 559.147C813.201 527.079 774.284 506.32 748.626 496.797L746.538 502.422ZM744.582 496.057V499.609H750.582V496.057H744.582ZM729.162 499.057H747.582V493.057H729.162V499.057ZM706.677 492C715.635 492 723.132 494.686 727.16 498.292L731.163 493.822C725.71 488.94 716.609 486 706.677 486V492ZM683 504.289C683 501.604 684.926 498.591 689.305 496.081C693.602 493.619 699.737 492 706.677 492V486C698.884 486 691.681 487.804 686.322 490.875C681.046 493.899 677 498.531 677 504.289H683ZM690.618 513.195C685.351 510.599 683 507.239 683 504.289H677C677 510.614 681.854 515.565 687.965 518.577L690.618 513.195ZM692 518.742C692 517.969 692.079 517.218 692.229 516.495L686.354 515.277C686.122 516.398 686 517.557 686 518.742H692ZM692 541.742V518.742H686V541.742H692ZM671 544.742H689V538.742H671V544.742ZM660 555.742C660 549.667 664.925 544.742 671 544.742V538.742C661.611 538.742 654 546.353 654 555.742H660ZM660 584.293V555.742H654V584.293H660ZM531 648.242C531 641.608 533.964 635.004 539.887 628.587C545.826 622.153 554.619 616.052 565.886 610.553C588.415 599.558 620.297 591.228 657.318 587.276L656.682 581.31C619.224 585.309 586.606 593.764 563.255 605.161C551.582 610.858 542.09 617.355 535.478 624.517C528.851 631.696 525 639.687 525 648.242H531ZM601.791 699.051C579.857 693.055 561.979 685.265 549.657 676.393C537.276 667.479 531 657.863 531 648.242H525C525 660.678 533.096 671.864 546.151 681.263C559.264 690.704 577.887 698.737 600.209 704.839L601.791 699.051ZM604 737.742V701.945H598V737.742H604ZM811 734.742H601V740.742H811V734.742ZM808 701.945V737.742H814V701.945H808ZM881 648.242C881 657.863 874.724 667.479 862.343 676.393C850.021 685.265 832.143 693.055 810.209 699.051L811.791 704.839C834.113 698.737 852.736 690.704 865.849 681.263C878.904 671.864 887 660.678 887 648.242H881ZM754.682 587.276C791.703 591.228 823.585 599.558 846.114 610.553C857.382 616.052 866.174 622.153 872.113 628.587C878.036 635.004 881 641.608 881 648.242H887C887 639.687 883.149 631.696 876.522 624.517C869.91 617.355 860.418 610.858 848.745 605.161C825.394 593.764 792.776 585.309 755.318 581.31L754.682 587.276ZM752 555.742V584.293H758V555.742H752ZM741 544.742C747.075 544.742 752 549.667 752 555.742H758C758 546.353 750.389 538.742 741 538.742V544.742ZM722 544.742H741V538.742H722V544.742ZM719 518.742V541.742H725V518.742H719ZM718.901 517.257C718.966 517.741 719 518.237 719 518.742H725C725 517.968 724.948 517.205 724.847 516.457L718.901 517.257Z" fill="black" mask="url(#path-14-inside-3_246_11914)"/>
<ellipse cx="706.621" cy="504.324" rx="23.6208" ry="12.3239" fill="#FFD0FD"/>
<rect x="727.161" y="498.162" width="17.4588" height="11.2969" fill="#FFD0FD"/>
<ellipse cx="929.477" cy="729.748" rx="56.4844" ry="35.4311" fill="#FFD0FD"/>
<rect x="614" y="611" width="190" height="75" rx="37.5" fill="#0ABAB5"/>
<path d="M669.869 645H659.819V643.5H661.619V625.8H659.819V624.3H669.029C672.119 624.3 674.429 624.72 675.989 625.56C677.519 626.4 678.299 627.66 678.299 629.34C678.299 630.63 677.789 631.71 676.799 632.55C675.779 633.39 674.399 633.93 672.659 634.17C674.759 634.44 676.349 635.01 677.489 635.88C678.629 636.78 679.199 637.92 679.199 639.36C679.199 641.28 678.419 642.72 676.919 643.62C675.389 644.55 673.049 645 669.869 645ZM671.669 629.37C671.669 628.11 671.429 627.21 671.009 626.64C670.589 626.1 669.899 625.8 668.939 625.8H668.519V633.57H668.879C669.839 633.57 670.529 633.24 670.979 632.55C671.429 631.89 671.669 630.81 671.669 629.37ZM672.209 639.15C672.209 637.68 671.939 636.6 671.459 635.94C670.979 635.28 670.169 634.95 669.059 634.95H668.519V643.5H669.239C670.289 643.5 671.039 643.17 671.519 642.51C671.969 641.85 672.209 640.74 672.209 639.15ZM696.376 645H680.386V643.5H682.186V625.8H680.386V624.3H692.086V625.8H689.086V643.5H690.286C691.786 643.5 692.926 643.08 693.706 642.24C694.486 641.4 694.876 640.2 694.876 638.58V638.28H696.376V645ZM702.122 637.38H706.532L704.282 630.42L702.122 637.38ZM702.032 645H696.752V643.5H698.432L704.762 624H709.112L715.682 643.5H717.212V645H706.232V643.5H708.482L707.012 638.88H701.672L700.262 643.5H702.032V645ZM732.178 645.3L730.978 644.04C730.468 644.55 729.868 644.94 729.178 645.21C728.488 645.48 727.738 645.6 726.958 645.6C724.198 645.6 721.978 644.58 720.268 642.51C718.528 640.47 717.688 637.83 717.688 634.65C717.688 631.5 718.528 628.89 720.238 626.82C721.948 624.75 724.168 623.7 726.868 623.7C727.798 623.7 728.578 623.82 729.238 624C729.868 624.21 730.408 624.54 730.828 624.96L732.028 624H733.078V630.9H731.578C731.578 629.4 731.248 628.14 730.618 627.09C729.958 626.04 729.148 625.5 728.158 625.5C726.898 625.5 726.058 626.16 725.578 627.45C725.098 628.74 724.888 631.14 724.888 634.65C724.888 638.1 725.128 640.5 725.608 641.82C726.088 643.14 726.928 643.8 728.158 643.8C729.238 643.8 730.108 643.29 730.768 642.24C731.398 641.19 731.728 639.87 731.728 638.28H733.228V645.3H732.178ZM744.34 643.5H745.54V645H735.64V643.5H737.44V625.8H735.64V624.3H746.44V625.8H744.34V633.6L751.36 625.8H748.24V624.3H755.65V625.8H753.58L749.26 630.63L756.67 643.5H757.57V645H747.34V643.5H748.54L744.4 635.34L744.34 635.4V643.5Z" fill="black"/>
<path d="M668.72 672.713H658.67L658.85 671.213H660.65L662.81 653.513H661.01L661.19 652.013H670.4C673.34 652.013 675.5 652.403 676.94 653.183C678.38 653.963 679.1 655.163 679.1 656.723C679.1 658.103 678.53 659.243 677.45 660.143C676.34 661.043 674.81 661.643 672.83 661.883C674.75 662.123 676.22 662.633 677.24 663.413C678.26 664.193 678.77 665.213 678.77 666.473C678.77 668.333 677.87 669.863 676.07 671.003C674.27 672.143 671.81 672.713 668.72 672.713ZM669.71 653.513L668.75 661.283H669.11C670.13 661.283 670.94 660.833 671.57 659.933C672.2 659.033 672.53 657.893 672.53 656.513C672.53 655.433 672.32 654.683 671.96 654.203C671.6 653.753 670.97 653.513 670.13 653.513H669.71ZM668.6 662.663L667.55 671.213H668.27C669.41 671.213 670.28 670.763 670.91 669.803C671.51 668.843 671.84 667.523 671.84 665.813C671.84 664.733 671.63 663.923 671.21 663.413C670.79 662.933 670.1 662.663 669.14 662.663H668.6ZM695.754 672.713H679.764L679.944 671.213H681.744L683.904 653.513H682.104L682.284 652.013H693.984L693.804 653.513H690.804L688.644 671.213H689.844C691.344 671.213 692.514 670.793 693.414 669.953C694.284 669.113 694.824 667.913 695.034 666.293L695.064 665.993H696.564L695.754 672.713ZM705.547 658.133L702.517 665.093H706.927L705.547 658.133ZM701.497 672.713H696.217L696.397 671.213H698.077L706.807 651.713H711.157L715.327 671.213H716.857L716.677 672.713H705.697L705.877 671.213H708.127L707.227 666.593H701.887L699.907 671.213H701.677L701.497 672.713ZM725.448 673.313C722.688 673.313 720.588 672.293 719.118 670.223C717.648 668.153 717.108 665.543 717.528 662.363C717.918 659.213 719.088 656.603 721.068 654.533C723.018 652.463 725.358 651.413 728.058 651.413C728.988 651.413 729.768 651.533 730.368 651.713C730.968 651.923 731.478 652.253 731.868 652.673L733.188 651.713H734.238L733.368 658.613H731.868C732.048 657.113 731.898 655.853 731.388 654.803C730.848 653.753 730.098 653.213 729.108 653.213C727.848 653.213 726.918 653.873 726.318 655.133C725.688 656.423 725.148 658.823 724.728 662.363C724.308 665.813 724.248 668.213 724.548 669.533C724.848 670.853 725.628 671.513 726.888 671.513C727.968 671.513 728.898 671.003 729.678 669.953C730.428 668.903 730.908 667.583 731.118 665.993H732.618L731.748 673.013H730.698L729.678 671.753C729.078 672.263 728.448 672.653 727.728 672.923C727.008 673.193 726.228 673.313 725.448 673.313ZM743.804 672.713H733.904L734.084 671.213H735.884L738.044 653.513H736.244L736.424 652.013H747.224L747.044 653.513H744.944L743.984 661.313L751.964 653.513H748.844L749.024 652.013H757.334L757.154 653.513H754.184L749.264 658.343L755.114 671.213H756.014L755.834 672.713H745.604L745.784 671.213H746.984L743.834 663.053L743.774 663.113L742.784 671.213H743.984L743.804 672.713Z" fill="black"/>
<mask id="path-22-inside-4_246_11914" fill="white">
<path fill-rule="evenodd" clip-rule="evenodd" d="M82 0C74.268 0 68 6.26801 68 14V50C68 57.732 74.268 64 82 64H91.0882V89.0563H77.6929C75.7201 89.0563 74.1208 90.6556 74.1208 92.6284V131.766C30.9204 146.311 0 185.27 0 231.047C0 232.338 0.0245916 233.623 0.0733568 234.903C0.0248357 235.397 0 235.898 0 236.405V349.819C0 358.203 6.79693 365 15.1814 365H208.074C216.458 365 223.255 358.203 223.255 349.819V236.405C223.255 235.898 223.231 235.397 223.182 234.903C223.231 233.623 223.255 232.338 223.255 231.047C223.255 185.27 192.335 146.311 149.135 131.766V92.6284C149.135 90.6556 147.535 89.0563 145.563 89.0563H134.846V64H142C149.732 64 156 57.732 156 50V14C156 6.26801 149.732 0 142 0H82Z"/>
</mask>
<path fill-rule="evenodd" clip-rule="evenodd" d="M82 0C74.268 0 68 6.26801 68 14V50C68 57.732 74.268 64 82 64H91.0882V89.0563H77.6929C75.7201 89.0563 74.1208 90.6556 74.1208 92.6284V131.766C30.9204 146.311 0 185.27 0 231.047C0 232.338 0.0245916 233.623 0.0733568 234.903C0.0248357 235.397 0 235.898 0 236.405V349.819C0 358.203 6.79693 365 15.1814 365H208.074C216.458 365 223.255 358.203 223.255 349.819V236.405C223.255 235.898 223.231 235.397 223.182 234.903C223.231 233.623 223.255 232.338 223.255 231.047C223.255 185.27 192.335 146.311 149.135 131.766V92.6284C149.135 90.6556 147.535 89.0563 145.563 89.0563H134.846V64H142C149.732 64 156 57.732 156 50V14C156 6.26801 149.732 0 142 0H82Z" fill="white"/>
<path d="M91.0882 64H94.0882V61H91.0882V64ZM91.0882 89.0563V92.0563H94.0882V89.0563H91.0882ZM74.1208 131.766L75.0781 134.609L77.1208 133.921V131.766H74.1208ZM0.0733568 234.903L3.05899 235.196L3.07896 234.993L3.07118 234.789L0.0733568 234.903ZM223.182 234.903L220.184 234.789L220.176 234.993L220.196 235.196L223.182 234.903ZM149.135 131.766H146.135V133.921L148.177 134.609L149.135 131.766ZM134.846 89.0563H131.846V92.0563H134.846V89.0563ZM134.846 64V61H131.846V64H134.846ZM71 14C71 7.92487 75.9249 3 82 3V-3C72.6112 -3 65 4.61116 65 14H71ZM71 50V14H65V50H71ZM82 61C75.9249 61 71 56.0751 71 50H65C65 59.3888 72.6112 67 82 67V61ZM91.0882 61H82V67H91.0882V61ZM94.0882 89.0563V64H88.0882V89.0563H94.0882ZM77.6929 92.0563H91.0882V86.0563H77.6929V92.0563ZM77.1208 92.6284C77.1208 92.3124 77.3769 92.0563 77.6929 92.0563V86.0563C74.0632 86.0563 71.1208 88.9987 71.1208 92.6284H77.1208ZM77.1208 131.766V92.6284H71.1208V131.766H77.1208ZM3 231.047C3 186.687 32.9711 148.786 75.0781 134.609L73.1635 128.923C28.8698 143.836 -3 183.853 -3 231.047H3ZM3.07118 234.789C3.02387 233.547 3 232.3 3 231.047H-3C-3 232.376 -2.97468 233.699 -2.92447 235.017L3.07118 234.789ZM3 236.405C3 235.996 3.02003 235.593 3.05899 235.196L-2.91228 234.61C-2.97036 235.201 -3 235.8 -3 236.405H3ZM3 349.819V236.405H-3V349.819H3ZM15.1814 362C8.45379 362 3 356.546 3 349.819H-3C-3 359.86 5.14008 368 15.1814 368V362ZM208.074 362H15.1814V368H208.074V362ZM220.255 349.819C220.255 356.546 214.802 362 208.074 362V368C218.115 368 226.255 359.86 226.255 349.819H220.255ZM220.255 236.405V349.819H226.255V236.405H220.255ZM220.196 235.196C220.235 235.593 220.255 235.996 220.255 236.405H226.255C226.255 235.8 226.226 235.201 226.168 234.61L220.196 235.196ZM220.255 231.047C220.255 232.3 220.232 233.547 220.184 234.789L226.18 235.017C226.23 233.699 226.255 232.376 226.255 231.047H220.255ZM148.177 134.609C190.284 148.786 220.255 186.687 220.255 231.047H226.255C226.255 183.853 194.386 143.836 150.092 128.923L148.177 134.609ZM146.135 92.6284V131.766H152.135V92.6284H146.135ZM145.563 92.0563C145.878 92.0563 146.135 92.3124 146.135 92.6284H152.135C152.135 88.9987 149.192 86.0563 145.563 86.0563V92.0563ZM134.846 92.0563H145.563V86.0563H134.846V92.0563ZM131.846 64V89.0563H137.846V64H131.846ZM142 61H134.846V67H142V61ZM153 50C153 56.0751 148.075 61 142 61V67C151.389 67 159 59.3888 159 50H153ZM153 14V50H159V14H153ZM142 3C148.075 3 153 7.92487 153 14H159C159 4.61116 151.389 -3 142 -3V3ZM82 3H142V-3H82V3Z" fill="black" mask="url(#path-22-inside-4_246_11914)"/>
<path d="M26.8077 212C24.2809 221.148 19.2164 222.662 17 222.275V291.384L111.918 314.587L208 291.384V222.275C198.957 222.275 196.475 215.425 196.364 212H26.8077Z" fill="#FFD0FD" stroke="black" stroke-width="3"/>
<path d="M84.8054 252H70.3864V251.076H73.0053V231.666H70.3864V230.741H79.1672V231.666H75.7781V251.076H79.7834C81.2931 251.076 82.3406 250.768 82.9568 250.121C83.573 249.474 83.8811 248.21 83.8811 246.331V245.099H84.8054V252ZM95.2833 251.076V252H86.9647V251.076H89.7376V231.666H86.9647V230.741H95.2833V231.666H92.5104V251.076H95.2833ZM113.256 252.308H112.794L111.562 251.168C110.884 251.569 110.206 251.846 109.497 252.031C108.789 252.216 107.988 252.308 107.125 252.308C105.739 252.308 104.475 252.031 103.335 251.415C102.165 250.798 101.179 249.936 100.316 248.765C99.5459 247.748 98.9605 246.577 98.5292 245.253C98.0978 243.959 97.913 242.634 97.913 241.34C97.913 240.077 98.1286 238.783 98.56 237.489C98.9913 236.195 99.6075 235.024 100.409 233.976C101.271 232.836 102.257 231.974 103.428 231.358C104.568 230.741 105.8 230.433 107.125 230.433C107.895 230.433 108.666 230.556 109.467 230.741C110.237 230.957 110.884 231.234 111.408 231.573L112.64 230.433H113.102V237.519H112.178C112.178 235.517 111.747 233.976 110.884 232.929C110.021 231.881 108.758 231.358 107.125 231.358C105.061 231.358 103.52 232.189 102.504 233.853C101.487 235.517 100.994 238.012 100.994 241.34C100.994 244.636 101.518 247.132 102.565 248.827C103.613 250.552 105.122 251.384 107.125 251.384C107.803 251.384 108.45 251.291 109.004 251.107C109.559 250.922 110.052 250.644 110.483 250.275V243.219H107.402V242.295H115.721V243.219H113.256V252.308ZM125.725 252H117.714V251.076H120.333V231.666H117.714V230.741H125.725V231.666H123.106V240.693H131.733V231.666H129.114V230.741H137.124V231.666H134.505V251.076H137.124V252H129.114V251.076H131.733V241.617H123.106V251.076H125.725V252ZM151.905 252H142.354V251.076H145.743V231.666H144.449C142.692 231.666 141.522 231.974 140.936 232.59C140.32 233.206 140.043 234.377 140.043 236.102V237.519H139.119V230.741H155.14V237.519H154.215V236.102C154.215 234.377 153.907 233.206 153.322 232.59C152.706 231.974 151.535 231.666 149.809 231.666H148.515V251.076H151.905V252Z" fill="black"/>
<path d="M83.6962 279H69.2773L69.4005 278.076H72.0193L74.3917 258.666H71.7729L71.8961 257.741H80.6769L80.5536 258.666H77.1646L74.7922 278.076H78.7975C80.3072 278.076 81.4163 277.768 82.0941 277.121C82.7719 276.504 83.2341 275.241 83.4806 273.331L83.6346 272.099H84.5589L83.6962 279ZM94.1742 279H85.8555L85.9788 278.076H88.7517L91.124 258.666H88.3511L88.4744 257.741H96.793L96.6697 258.666H93.8969L91.5245 278.076H94.2974L94.1742 279ZM105.831 279.308C104.445 279.308 103.212 279 102.134 278.384C101.056 277.768 100.193 276.874 99.5151 275.703C98.8989 274.717 98.4675 273.547 98.2211 272.253C97.9746 270.959 97.9438 269.634 98.0978 268.34C98.2519 267.077 98.6216 265.783 99.207 264.489C99.7924 263.195 100.532 262.024 101.425 260.976C102.411 259.836 103.49 258.974 104.722 258.358C105.923 257.741 107.187 257.433 108.512 257.433C109.251 257.433 109.99 257.556 110.699 257.741C111.408 257.957 111.993 258.234 112.486 258.573L113.872 257.433H114.335L113.472 264.519H112.548C112.794 262.486 112.548 260.976 111.87 259.929C111.161 258.881 109.99 258.358 108.388 258.358C106.355 258.358 104.753 259.189 103.582 260.853C102.38 262.517 101.579 265.012 101.179 268.34C100.778 271.667 100.994 274.194 101.795 275.857C102.596 277.552 103.952 278.384 105.923 278.384C106.57 278.384 107.187 278.322 107.741 278.137C108.296 277.952 108.82 277.706 109.282 277.367L110.206 269.603H107.125L107.248 268.679H115.567L115.444 269.603H112.979L111.808 279.308H111.346L110.237 278.168C109.497 278.569 108.789 278.846 108.111 279.031C107.433 279.216 106.663 279.308 105.831 279.308ZM124.315 279H116.304L116.427 278.076H119.046L121.419 258.666H118.8L118.923 257.741H126.934L126.81 258.666H124.191L123.082 267.693H131.709L132.818 258.666H130.199L130.323 257.741H138.333L138.21 258.666H135.591L133.219 278.076H135.838L135.714 279H127.704L127.827 278.076H130.446L131.586 268.617H122.959L121.819 278.076H124.438L124.315 279ZM150.803 279H140.635L140.759 278.076H144.456L146.828 258.666H145.534C143.778 258.666 142.576 258.974 141.899 259.59C141.221 260.206 140.789 261.377 140.574 263.102L140.42 264.519H139.495L140.327 257.741H156.348L155.517 264.519H154.592L154.746 263.102C154.962 261.377 154.808 260.206 154.284 259.59C153.76 258.974 152.62 258.666 150.895 258.666H149.601L147.229 278.076H150.926L150.803 279Z" fill="black"/>
<path d="M81 61H94H132H140C149.5 62 153 54.5 153 51V13.5C152.5 6 146 3 142.5 3H82C74 3 71 10 71 13V50C71 57.5 77.5 61 81 61Z" fill="#0ABAB5"/>
<path d="M171.5 745L164 739V577L207 554.5V522H190.5V515.5H218C221.667 510.833 226.8 499.5 218 491.5C178 467.1 224.333 439 252.5 428C325.7 456.8 308 482.333 290 491.5C285.167 495.667 278.4 506.3 290 515.5H317.191V522H300V554.5L344 577V739L333 745H171.5Z" fill="#0ABAB5"/>
<path d="M207 554.5L164 577V739L171.5 745H333L344 739V577L300 554.5M207 554.5C222.667 560.167 263.2 568.1 300 554.5M207 554.5V522M300 554.5V522M207 522H300M207 522H190.5V515.5H218M300 522H317.191V515.5H290M218 515.5C221.667 510.833 226.8 499.5 218 491.5M218 515.5H290M218 491.5H290M218 491.5C178 467.1 224.333 439 252.5 428C325.7 456.8 308 482.333 290 491.5M290 491.5C285.167 495.667 278.4 506.3 290 515.5" stroke="black" stroke-width="3"/>
<path d="M207 556L165.5 578V738L172 743.5H332.5L342.5 738V578L300 556C259.234 569.12 221.404 561.467 207 556Z" fill="white"/>
<path d="M209.721 574L179 589.638V725.565H328.968V589.638L298.247 574C265.585 590.039 225.621 580.683 209.721 574Z" fill="#0ABAB5"/>
<path d="M298.245 574.023C265.675 583.031 222.975 577.129 209.522 574.023V725.624L255.707 695.786L298.245 725.624V574.023Z" fill="#FFD0FD" stroke="black" stroke-width="3"/>
<path d="M225.651 614.847H216.321V613.527H218.331V595.467H216.321V594.147H224.511C227.511 594.147 229.791 594.597 231.291 595.437C232.791 596.277 233.571 597.537 233.571 599.217C233.571 600.507 233.091 601.587 232.131 602.457C231.171 603.327 229.881 603.867 228.261 604.077C230.241 604.347 231.801 604.917 232.881 605.787C233.961 606.687 234.501 607.827 234.501 609.207C234.501 611.127 233.751 612.537 232.311 613.467C230.841 614.397 228.621 614.847 225.651 614.847ZM228.081 599.247C228.081 597.927 227.781 596.967 227.241 596.367C226.671 595.767 225.771 595.467 224.541 595.467H223.941V603.567H224.841C225.921 603.567 226.731 603.237 227.271 602.517C227.811 601.797 228.081 600.717 228.081 599.247ZM228.741 609.057C228.741 607.617 228.411 606.537 227.811 605.817C227.211 605.127 226.281 604.767 225.021 604.767H223.941V613.527H225.111C226.401 613.527 227.331 613.197 227.901 612.507C228.441 611.817 228.741 610.677 228.741 609.057ZM245.606 593.637C248.396 593.637 250.646 594.687 252.356 596.727C254.066 598.767 254.936 601.377 254.936 604.497C254.936 607.647 254.066 610.257 252.356 612.297C250.646 614.337 248.396 615.357 245.606 615.357C242.786 615.357 240.536 614.337 238.826 612.297C237.086 610.257 236.246 607.647 236.246 604.497C236.246 601.377 237.086 598.767 238.826 596.727C240.536 594.687 242.786 593.637 245.606 593.637ZM245.606 594.987C244.346 594.987 243.446 595.737 242.936 597.207C242.396 598.677 242.156 601.107 242.156 604.497C242.156 607.917 242.396 610.347 242.936 611.817C243.446 613.287 244.346 614.007 245.606 614.007C246.866 614.007 247.736 613.287 248.276 611.817C248.786 610.347 249.056 607.917 249.056 604.497C249.056 601.107 248.786 598.677 248.276 597.207C247.736 595.737 246.866 594.987 245.606 594.987ZM272.17 614.847H256.78V613.527H258.79V595.467H256.78V594.147H267.49V595.467H264.4V613.527H266.44C267.94 613.527 269.05 613.137 269.77 612.357C270.49 611.577 270.85 610.377 270.85 608.697V608.127H272.17V614.847ZM293.011 604.467C293.011 607.377 291.991 609.837 290.011 611.847C288.001 613.857 285.481 614.847 282.451 614.847H273.391V613.527H275.401V595.467H273.391V594.147H282.451C285.481 594.147 288.001 595.167 290.011 597.147C291.991 599.127 293.011 601.587 293.011 604.467ZM281.641 595.467H281.011V613.527H281.641C283.441 613.527 284.791 612.807 285.631 611.307C286.471 609.807 286.921 607.527 286.921 604.467C286.921 601.437 286.471 599.187 285.631 597.687C284.761 596.217 283.441 595.467 281.641 595.467Z" fill="black"/>
<path d="M224.661 641.847H215.331L215.511 640.527H217.551L219.741 622.467H217.701L217.881 621.147H226.071C228.951 621.147 231.111 621.567 232.521 622.377C233.931 623.187 234.591 624.387 234.531 626.007C234.471 627.327 233.931 628.467 232.851 629.367C231.771 630.267 230.361 630.837 228.591 631.077C230.451 631.347 231.891 631.887 232.881 632.667C233.841 633.477 234.321 634.527 234.261 635.787C234.171 637.647 233.271 639.147 231.591 640.227C229.911 641.307 227.601 641.847 224.661 641.847ZM225.351 622.467L224.361 630.567H225.231C226.341 630.567 227.241 630.147 227.961 629.277C228.651 628.437 229.011 627.297 229.071 625.857C229.131 624.657 228.891 623.817 228.411 623.277C227.931 622.737 227.091 622.467 225.951 622.467H225.351ZM224.211 631.767L223.131 640.527H224.301C225.621 640.527 226.641 640.107 227.361 639.207C228.081 638.337 228.471 637.047 228.531 635.337C228.591 634.137 228.351 633.267 227.811 632.667C227.271 632.067 226.431 631.767 225.291 631.767H224.211ZM255.348 631.497C254.958 634.647 253.788 637.257 251.808 639.297C249.828 641.337 247.458 642.357 244.668 642.357C241.848 642.357 239.718 641.337 238.278 639.267C236.808 637.227 236.268 634.617 236.658 631.497C237.048 628.377 238.218 625.767 240.198 623.727C242.178 621.687 244.548 620.637 247.368 620.637C250.158 620.637 252.288 621.687 253.758 623.727C255.198 625.797 255.738 628.377 255.348 631.497ZM242.568 631.497C242.148 634.887 242.088 637.317 242.448 638.787C242.808 640.287 243.588 641.007 244.848 641.007C246.108 641.007 247.068 640.287 247.758 638.817C248.448 637.377 249.018 634.917 249.438 631.497C249.858 628.107 249.888 625.677 249.558 624.207C249.198 622.737 248.418 621.987 247.158 621.987C245.898 621.987 244.908 622.737 244.218 624.207C243.528 625.677 242.988 628.107 242.568 631.497ZM271.092 641.847H255.702L255.882 640.527H257.922L260.112 622.467H258.072L258.252 621.147H268.962L268.812 622.467H265.722L263.502 640.527H265.542C267.042 640.527 268.182 640.137 268.992 639.357C269.802 638.577 270.312 637.377 270.552 635.697L270.612 635.127H271.932L271.092 641.847ZM281.552 641.847H272.372L272.552 640.527H274.592L276.782 622.467H274.742L274.922 621.147H284.072C285.512 621.147 286.862 621.417 288.092 621.897C289.322 622.407 290.372 623.127 291.212 624.087C292.082 625.047 292.712 626.187 293.072 627.447C293.432 628.737 293.552 630.087 293.372 631.467C293.012 634.377 291.722 636.837 289.472 638.847C287.192 640.857 284.552 641.847 281.552 641.847ZM282.392 622.467L280.172 640.527H280.892C282.692 640.527 284.132 639.807 285.152 638.307C286.172 636.807 286.862 634.527 287.252 631.467C287.612 628.467 287.462 626.217 286.802 624.717C286.142 623.217 284.912 622.467 283.112 622.467H282.392Z" fill="black"/>
</svg>
