<svg width="958" height="804" viewBox="0 0 958 804" fill="none" xmlns="http://www.w3.org/2000/svg">
<path d="M691.489 387.642L694.468 387.997L694.47 387.981L694.472 387.964L691.489 387.642ZM692.078 473.59L694.983 472.84L694.98 472.829L694.977 472.817L692.078 473.59ZM758.599 475.356L756.035 473.799L756.023 473.819L756.011 473.839L758.599 475.356ZM779.792 401.182L782.769 401.554L782.792 401.368V401.182H779.792ZM780.381 397.061L783.291 397.788L783.32 397.672L783.34 397.554L780.381 397.061ZM782.736 382.932L785.695 383.425L785.715 383.304L785.725 383.181L782.736 382.932ZM784.502 368.804L787.412 369.531L787.502 369.173V368.804H784.502ZM785.09 364.683L782.106 364.374L782.09 364.528V364.683H785.09ZM782.736 289.331L779.879 290.249L779.879 290.249L782.736 289.331ZM713.859 293.452L716.526 294.826L716.534 294.81L716.543 294.794L713.859 293.452ZM597.888 511.855L595.316 513.398L597.888 511.855ZM580.227 395.883L583.205 396.247L583.207 396.235L583.208 396.223L580.227 395.883ZM633.209 281.678L635.309 283.82L635.309 283.82L633.209 281.678ZM797.453 249.3L796.03 251.942L796.03 251.942L797.453 249.3ZM835.717 283.444L833.237 285.131L835.563 288.553L838.092 285.278L835.717 283.444ZM871.627 236.938V233.938H870.153L869.253 235.105L871.627 236.938ZM906.948 236.938L909.926 237.301L910.336 233.938H906.948V236.938ZM876.925 483.598L873.947 483.235L873.945 483.251L873.944 483.266L876.925 483.598ZM877.514 507.734L880.36 506.785L880.36 506.785L877.514 507.734ZM902.239 501.258L904.987 502.461L904.987 502.461L902.239 501.258ZM912.835 456.518V453.518H910.233L909.865 456.094L912.835 456.518ZM940.503 456.518L943.47 456.967L943.992 453.518H940.503V456.518ZM911.658 534.813L909.537 532.692L909.537 532.692L911.658 534.813ZM800.396 535.402L798.074 537.302L798.074 537.302L800.396 535.402ZM785.09 476.533L782.097 476.327L782.093 476.397L782.091 476.467L785.09 476.533ZM786.268 459.461L789.261 459.668L783.422 458.513L786.268 459.461ZM742.705 531.281L744.68 533.539L742.705 531.281ZM688.51 387.286C683.79 426.822 684.318 456.134 689.179 474.363L694.977 472.817C690.419 455.725 689.77 427.345 694.468 387.997L688.51 387.286ZM689.173 474.34C691.61 483.782 695.351 491.146 700.695 496.161C706.108 501.241 712.91 503.67 720.923 503.67V497.67C714.219 497.67 708.953 495.683 704.801 491.786C700.578 487.823 697.256 481.647 694.983 472.84L689.173 474.34ZM720.923 503.67C737.598 503.67 750.816 494.567 761.188 476.873L756.011 473.839C746.368 490.289 734.86 497.67 720.923 497.67V503.67ZM761.164 476.913C771.495 459.896 778.628 434.679 782.769 401.554L776.815 400.809C772.714 433.617 765.719 457.849 756.035 473.799L761.164 476.913ZM779.792 401.182C782.792 401.182 782.792 401.182 782.792 401.182C782.792 401.183 782.792 401.183 782.792 401.183C782.792 401.184 782.792 401.185 782.792 401.185C782.792 401.186 782.792 401.187 782.792 401.188C782.792 401.19 782.792 401.191 782.792 401.192C782.792 401.194 782.792 401.194 782.792 401.193C782.792 401.19 782.792 401.181 782.793 401.166C782.793 401.136 782.795 401.082 782.798 401.005C782.805 400.852 782.82 400.612 782.851 400.303C782.913 399.681 783.039 398.798 783.291 397.788L777.47 396.333C777.134 397.678 776.966 398.855 776.881 399.706C776.838 400.132 776.816 400.481 776.804 400.733C776.799 400.858 776.796 400.96 776.794 401.036C776.793 401.074 776.793 401.105 776.792 401.129C776.792 401.141 776.792 401.152 776.792 401.161C776.792 401.165 776.792 401.169 776.792 401.172C776.792 401.174 776.792 401.176 776.792 401.177C776.792 401.178 776.792 401.179 776.792 401.179C776.792 401.18 776.792 401.18 776.792 401.181C776.792 401.181 776.792 401.182 779.792 401.182ZM783.34 397.554L785.695 383.425L779.776 382.439L777.422 396.568L783.34 397.554ZM785.725 383.181C786.317 376.081 786.892 371.612 787.412 369.531L781.591 368.076C780.934 370.705 780.332 375.655 779.746 382.683L785.725 383.181ZM787.502 368.804C787.502 367.893 787.613 367.232 787.725 366.732C787.794 366.421 787.835 366.278 787.915 365.944C787.964 365.741 788.09 365.232 788.09 364.683H782.09C782.09 364.428 782.143 364.287 782.081 364.544C782.051 364.67 781.945 365.079 781.867 365.43C781.684 366.254 781.502 367.36 781.502 368.804H787.502ZM788.074 364.992C791.612 330.791 791.094 305.53 785.592 288.413L779.879 290.249C784.974 306.098 785.632 330.287 782.106 364.374L788.074 364.992ZM785.592 288.413C782.824 279.803 778.737 273.062 773.163 268.472C767.55 263.849 760.667 261.606 752.713 261.606V267.606C759.475 267.606 764.954 269.484 769.349 273.103C773.783 276.755 777.349 282.376 779.879 290.249L785.592 288.413ZM752.713 261.606C734.701 261.606 720.901 272.661 711.176 292.11L716.543 294.794C725.656 276.567 737.757 267.606 752.713 267.606V261.606ZM711.192 292.078C700.926 312.006 693.227 343.654 688.507 387.319L694.472 387.964C699.17 344.504 706.777 313.751 716.526 294.826L711.192 292.078ZM676.183 552.417C642.46 552.417 617.557 538.805 600.461 510.311L595.316 513.398C613.541 543.773 640.441 558.417 676.183 558.417V552.417ZM600.461 510.311C583.259 481.642 577.367 444.12 583.205 396.247L577.25 395.52C571.314 444.191 577.196 483.198 595.316 513.398L600.461 510.311ZM583.208 396.223C588.439 350.312 605.838 312.714 635.309 283.82L631.109 279.536C600.534 309.511 582.613 348.442 577.247 395.544L583.208 396.223ZM635.309 283.82C664.758 254.95 701.085 239.938 745.06 239.938V233.938C699.554 233.938 661.707 249.538 631.109 279.536L635.309 283.82ZM745.06 239.938C764.057 239.938 781.218 243.966 796.03 251.942L798.875 246.659C783.076 238.152 764.915 233.938 745.06 233.938V239.938ZM796.03 251.942C810.946 259.973 823.521 270.844 833.237 285.131L838.198 281.757C827.898 266.611 814.571 255.111 798.875 246.659L796.03 251.942ZM838.092 285.278L874.002 238.772L869.253 235.105L833.343 281.611L838.092 285.278ZM871.627 239.938H906.948V233.938H871.627V239.938ZM903.97 236.576L873.947 483.235L879.903 483.96L909.926 237.301L903.97 236.576ZM873.944 483.266C872.766 493.868 872.674 502.701 874.668 508.682L880.36 506.785C878.822 502.17 878.73 494.52 879.907 483.929L873.944 483.266ZM874.668 508.682C875.7 511.777 877.335 514.263 879.631 515.96C881.934 517.662 884.654 518.387 887.522 518.387V512.387C885.68 512.387 884.279 511.934 883.197 511.134C882.108 510.329 881.095 508.989 880.36 506.785L874.668 508.682ZM887.522 518.387C895.374 518.387 900.805 512.02 904.987 502.461L899.49 500.056C895.431 509.335 891.443 512.387 887.522 512.387V518.387ZM904.987 502.461C909.276 492.657 912.852 477.611 915.805 456.942L909.865 456.094C906.931 476.633 903.443 491.021 899.49 500.056L904.987 502.461ZM912.835 459.518H940.503V453.518H912.835V459.518ZM937.537 456.069C931.661 494.855 922.34 519.889 909.537 532.692L913.779 536.935C928.055 522.658 937.573 495.887 943.47 456.967L937.537 456.069ZM909.537 532.692C896.769 545.46 877.663 551.829 851.023 551.829V557.829C878.543 557.829 899.467 551.246 913.779 536.935L909.537 532.692ZM851.023 551.829C828.595 551.829 812.546 545.515 802.718 533.502L798.074 537.302C809.439 551.192 827.533 557.829 851.023 557.829V551.829ZM802.718 533.502C792.755 521.326 787.509 502.725 788.09 476.6L782.091 476.467C781.494 503.324 786.844 523.576 798.074 537.302L802.718 533.502ZM788.083 476.74L789.261 459.668L783.275 459.255L782.097 476.327L788.083 476.74ZM783.422 458.513C772.933 489.977 759.043 512.999 740.729 529.023L744.68 533.539C764.043 516.597 778.409 492.524 789.114 460.41L783.422 458.513ZM740.729 529.023C722.482 544.99 701.419 552.417 676.183 552.417V558.417C702.752 558.417 725.252 550.539 744.68 533.539L740.729 529.023Z" fill="black"/>
<path d="M323.759 539.758L325.831 537.588L325.78 537.54L325.728 537.495L323.759 539.758ZM299.623 485.011L302.61 484.726L296.73 484.215L299.623 485.011ZM263.713 539.17L261.939 536.75L263.713 539.17ZM132.436 538.581L134.331 536.255L134.311 536.239L134.29 536.222L132.436 538.581ZM141.266 421.432L142.961 423.908L142.961 423.908L141.266 421.432ZM245.464 388.466L245.051 385.495L245.035 385.497L245.019 385.499L245.464 388.466ZM287.849 382.579L288.262 385.551L290.849 385.191V382.579H287.849ZM272.544 286.623L274.829 284.68L274.802 284.648L274.773 284.616L272.544 286.623ZM183.063 280.148L181.143 277.843L177.134 281.184L182.038 282.967L183.063 280.148ZM211.32 298.986L208.942 300.815L208.942 300.815L211.32 298.986ZM206.611 363.741L204.564 361.548L204.526 361.583L204.489 361.62L206.611 363.741ZM132.436 363.741L134.488 361.553L134.45 361.517L134.412 361.483L132.436 363.741ZM160.693 264.253L162.205 266.845L162.205 266.845L160.693 264.253ZM360.846 264.253L362.626 261.838L362.611 261.827L362.596 261.816L360.846 264.253ZM427.957 503.26L430.753 504.347L430.779 504.278L430.803 504.209L427.957 503.26ZM433.844 458.52V455.52H430.844V458.52H433.844ZM459.157 458.52H462.157V455.52H459.157V458.52ZM440.319 534.46L442.645 536.355L442.653 536.345L440.319 534.46ZM276.664 484.422L279.247 485.948L279.273 485.904L279.298 485.858L276.664 484.422ZM287.849 407.893H290.849V404.13L287.181 404.968L287.849 407.893ZM267.245 412.602L267.906 415.528L267.914 415.527L267.245 412.602ZM227.803 431.44L225.682 429.319L225.645 429.355L225.61 429.393L227.803 431.44ZM379.684 555.008C355.998 555.008 338.028 549.231 325.831 537.588L321.688 541.928C335.393 555.011 355.098 561.008 379.684 561.008V555.008ZM325.728 537.495C312.942 526.377 304.917 508.949 302.61 484.726L296.637 485.295C299.039 510.521 307.497 529.593 321.791 542.022L325.728 537.495ZM296.73 484.215C290.415 507.182 278.998 524.241 261.939 536.75L265.487 541.589C283.75 528.196 295.881 509.934 302.516 485.806L296.73 484.215ZM261.939 536.75C244.93 549.223 223.239 555.008 197.78 555.008V561.008C224.126 561.008 247.175 555.018 265.487 541.589L261.939 536.75ZM197.78 555.008C170.561 555.008 149.529 548.639 134.331 536.255L130.541 540.907C147.132 554.425 169.663 561.008 197.78 561.008V555.008ZM134.29 536.222C118.67 523.949 111.3 506.653 111.3 483.833H105.3C105.3 508.108 113.236 527.31 130.583 540.94L134.29 536.222ZM111.3 483.833C111.3 458.899 121.426 438.642 142.961 423.908L139.572 418.957C116.367 434.834 105.3 456.963 105.3 483.833H111.3ZM142.961 423.908C164.754 408.997 198.932 398.479 245.909 391.433L245.019 385.499C197.806 392.581 162.519 403.256 139.572 418.957L142.961 423.908ZM245.877 391.437L288.262 385.551L287.437 379.608L245.051 385.495L245.877 391.437ZM290.849 382.579V339.605H284.849V382.579H290.849ZM290.849 339.605C290.849 315.664 285.469 297.198 274.829 284.68L270.258 288.566C279.633 299.596 284.849 316.451 284.849 339.605H290.849ZM274.773 284.616C263.457 272.043 247.236 265.963 226.037 265.963V271.963C246.046 271.963 260.437 277.656 270.314 288.63L274.773 284.616ZM226.037 265.963C216.927 265.963 208.408 267.179 199.9 269.61L201.548 275.379C209.523 273.101 217.487 271.963 226.037 271.963V265.963ZM199.9 269.61C191.655 271.966 185.208 274.455 181.143 277.843L184.984 282.452C187.982 279.953 193.309 277.733 201.548 275.379L199.9 269.61ZM182.038 282.967C194.622 287.543 203.498 293.738 208.942 300.815L213.698 297.157C207.368 288.928 197.407 282.171 184.088 277.328L182.038 282.967ZM208.942 300.815C214.334 307.824 217.15 317.14 217.15 328.42H223.15C223.15 316.153 220.08 305.453 213.698 297.157L208.942 300.815ZM217.15 328.42C217.15 343.078 212.664 353.988 204.564 361.548L208.658 365.934C218.218 357.011 223.15 344.374 223.15 328.42H217.15ZM204.489 361.62C196.362 369.747 185.435 373.692 170.701 373.692V379.692C186.578 379.692 199.198 375.396 208.732 365.863L204.489 361.62ZM170.701 373.692C154.745 373.692 143.2 369.72 134.488 361.553L130.384 365.93C140.51 375.423 153.69 379.692 170.701 379.692V373.692ZM134.412 361.483C125.849 353.991 121.896 343.178 121.896 328.42H115.896C115.896 344.274 120.185 357.008 130.461 365.999L134.412 361.483ZM121.896 328.42C121.896 303.808 134.659 282.913 162.205 266.845L159.182 261.662C130.214 278.56 115.896 301.227 115.896 328.42H121.896ZM162.205 266.845C189.895 250.692 224.073 242.528 265.479 242.528V236.528C223.292 236.528 188.005 244.848 159.182 261.662L162.205 266.845ZM265.479 242.528C305.735 242.528 336.827 250.702 359.097 266.69L362.596 261.816C338.948 244.838 306.463 236.528 265.479 236.528V242.528ZM359.067 266.668C380.636 282.562 391.99 305.195 391.99 333.718H397.99C397.99 303.373 385.797 278.911 362.626 261.838L359.067 266.668ZM391.99 333.718V493.841H397.99V333.718H391.99ZM391.99 493.841C391.99 502.247 393.171 509.36 395.918 514.167L401.127 511.19C399.164 507.756 397.99 501.918 397.99 493.841H391.99ZM395.918 514.167C398.999 519.56 404.375 521.566 410.885 521.566V515.566C405.62 515.566 402.755 514.04 401.127 511.19L395.918 514.167ZM410.885 521.566C419.704 521.566 426.406 515.524 430.753 504.347L425.161 502.172C421.266 512.188 416.194 515.566 410.885 515.566V521.566ZM430.803 504.209C434.464 493.224 436.844 478.168 436.844 458.52H430.844C430.844 477.724 428.513 492.103 425.111 502.311L430.803 504.209ZM433.844 461.52H459.157V455.52H433.844V461.52ZM456.157 458.52C456.157 493.61 449.698 518.073 437.985 532.575L442.653 536.345C455.665 520.235 462.157 494.072 462.157 458.52H456.157ZM437.993 532.565C425.804 547.525 406.806 555.008 379.684 555.008V561.008C407.9 561.008 428.932 553.184 442.645 536.355L437.993 532.565ZM213.03 467.939C213.03 480.6 215.427 490.237 220.751 496.892L225.436 493.144C221.342 488.026 219.03 480.002 219.03 467.939H213.03ZM220.751 496.892C226.187 503.687 234.241 506.849 244.875 506.849V500.849C235.494 500.849 229.42 498.123 225.436 493.144L220.751 496.892ZM244.875 506.849C259.611 506.849 271.127 499.691 279.247 485.948L274.082 482.896C266.896 495.055 257.22 500.849 244.875 500.849V506.849ZM279.298 485.858C286.695 472.297 290.849 452.308 290.849 427.319H284.849C284.849 451.78 280.762 470.645 274.031 482.985L279.298 485.858ZM290.849 427.319V407.893H284.849V427.319H290.849ZM287.181 404.968L266.577 409.678L267.914 415.527L288.518 410.817L287.181 404.968ZM266.585 409.676C248.02 413.868 234.468 420.533 225.682 429.319L229.925 433.561C237.622 425.864 249.972 419.578 267.906 415.528L266.585 409.676ZM225.61 429.393C216.659 438.984 213.03 452.21 213.03 467.939H219.03C219.03 453.056 222.465 441.557 229.997 433.487L225.61 429.393Z" fill="black"/>
<path d="M366.641 552.978C346.625 552.978 331.908 547.679 321.9 535.906C311.893 524.721 306.595 507.649 305.417 484.101C298.353 505.294 287.168 522.366 270.685 534.728C254.201 547.091 234.186 552.978 211.227 552.978C185.325 552.978 165.899 547.679 151.77 535.906C137.642 524.132 131.166 507.649 131.166 485.279C131.166 463.497 140.585 445.248 160.6 430.531C180.027 415.814 212.405 402.274 258.322 390.5L300.708 379.315V338.107C300.708 314.56 295.41 296.899 285.402 285.125C274.806 273.352 259.5 267.465 238.896 267.465C227.122 267.465 217.114 269.231 207.695 272.763C198.276 276.295 190.035 281.593 182.97 288.069C192.978 291.601 200.631 296.31 205.929 302.786C211.227 309.261 214.171 317.503 214.171 326.922C214.171 338.696 210.639 347.526 204.163 354.59C197.099 361.654 187.68 364.598 175.906 364.598C164.132 364.598 154.713 361.654 148.238 354.59C141.174 347.526 138.23 338.696 138.23 326.922C138.23 304.552 149.415 285.714 172.374 269.231C195.333 252.747 223.001 244.506 255.968 244.506C290.7 244.506 317.191 252.159 334.852 266.876C352.512 281.593 361.342 303.375 361.342 332.22V496.464C361.342 506.471 362.52 514.124 366.052 518.834C369.584 524.132 374.293 526.487 381.358 526.487C390.777 526.487 398.43 520.6 403.139 508.826C407.849 497.052 410.792 479.98 410.792 457.022H428.453C428.453 491.165 423.154 515.302 413.735 530.607C404.316 545.913 388.422 552.978 366.641 552.978ZM194.155 475.86C194.155 490.577 197.688 501.762 204.752 508.826C211.816 516.479 222.412 520.011 235.364 520.011C255.968 520.011 271.862 511.769 283.636 494.698C294.821 477.626 300.708 452.901 300.708 421.112V396.976L264.798 407.572C240.073 414.636 221.824 423.467 210.639 434.063C199.454 444.659 194.155 458.788 194.155 475.86ZM696.135 552.978C661.402 552.978 635.5 538.849 618.428 510.592C600.768 482.335 594.881 444.071 600.768 396.387C605.477 352.235 621.372 315.737 648.451 287.48C674.942 259.223 707.908 244.506 746.762 244.506C764.422 244.506 780.317 249.804 793.268 259.223C806.219 269.231 816.815 283.359 823.88 302.197L864.499 244.506H878.627L848.016 489.988C846.25 504.117 846.838 514.124 849.782 520.6C852.725 527.075 858.023 530.019 865.676 530.019C875.095 530.019 882.16 524.721 888.046 512.947C893.933 501.762 898.054 482.924 901.586 457.022H919.836C913.949 495.286 906.296 520.6 896.288 533.551C885.692 546.502 870.386 552.978 850.371 552.978C830.944 552.978 817.404 547.091 809.162 535.317C800.921 523.543 797.977 505.883 800.921 481.746L804.453 451.723C795.034 483.513 780.906 508.826 762.068 526.487C743.23 544.147 720.86 552.978 696.135 552.978ZM664.934 394.621C660.225 437.006 661.991 468.795 670.233 490.577C678.474 512.358 692.603 522.955 712.618 522.955C734.988 522.955 753.826 512.358 769.132 489.988C784.438 467.618 794.445 437.006 799.744 397.564C799.744 396.387 799.744 395.21 799.744 393.444C799.744 392.266 800.332 389.323 801.51 385.202L802.098 379.315C802.098 378.138 802.687 376.96 802.687 375.783C805.63 339.284 802.687 312.205 793.268 293.367C783.849 274.529 768.543 265.11 747.35 264.521C724.98 264.521 707.32 276.295 693.191 298.665C679.063 321.035 669.644 353.413 664.934 394.621Z" fill="black"/>
</svg>
