<svg width="773" height="737" viewBox="0 0 773 737" fill="none" xmlns="http://www.w3.org/2000/svg">
<path d="M122.516 642.733C99.8617 642.733 80.9836 637.339 66.4204 625.473C51.3179 613.606 44.306 598.504 44.306 579.626C44.306 568.299 47.5422 559.129 54.5541 551.578C61.566 544.027 71.2748 540.251 83.1411 540.251C92.8499 540.251 100.941 542.948 106.334 548.342C111.728 553.736 114.964 561.287 114.964 570.456C114.964 581.244 111.728 589.874 105.795 596.886C99.8617 604.437 92.3105 608.752 83.1411 609.831C87.4561 615.224 92.8499 619.539 99.3224 622.236C105.795 624.933 112.807 626.012 121.437 626.012C145.169 626.012 164.048 617.921 176.993 601.201C189.938 584.48 198.568 556.972 203.422 519.215C203.422 519.215 203.422 515.44 204.501 508.967C205.579 502.495 207.198 489.55 209.895 470.132C211.513 456.648 212.591 448.018 213.131 443.703C213.67 439.388 214.21 437.23 214.21 436.691C205.579 458.266 193.713 474.987 178.071 486.314C162.429 497.64 143.551 503.034 121.976 503.034C98.2436 503.034 80.4442 496.022 69.6567 480.92C58.3298 465.817 54.5541 444.782 57.7904 417.813L78.2867 250.606H33.5185L35.676 232.807C64.8023 232.807 86.3773 232.807 101.48 231.728C116.582 230.649 125.212 229.57 128.449 227.413L136 232.807L113.346 419.431C111.189 438.309 112.267 452.333 117.122 460.963C121.437 470.132 130.067 474.447 142.472 474.447C162.969 474.447 179.689 465.278 192.095 446.4C204.501 427.521 213.131 398.935 217.446 361.178L230.93 250.606H196.41L199.107 232.807C224.997 232.807 244.415 232.807 257.36 231.728C269.765 230.649 277.856 229.57 281.092 227.413L288.643 232.807L257.899 483.617C250.887 539.172 236.863 579.626 215.288 604.976C193.713 630.327 162.969 642.733 122.516 642.733ZM546.604 643.272C529.884 643.272 516.399 637.878 506.151 627.091C495.903 616.303 491.049 602.279 491.049 584.48C491.049 572.614 494.285 562.905 500.757 555.354C507.23 548.342 515.86 544.566 527.187 544.566C537.435 544.566 545.526 547.802 550.919 553.736C556.313 559.669 559.549 567.759 559.549 578.007C559.549 588.795 555.774 596.886 549.301 602.819C542.289 608.752 532.581 611.988 520.714 611.988C522.872 616.303 526.647 619 530.962 621.158C535.277 623.315 540.132 624.394 546.604 624.394C559.01 624.394 569.798 617.921 579.506 604.437C588.676 590.953 600.542 563.444 615.645 521.373L621.578 504.652L516.939 250.067H477.025V232.807H619.96V250.067H571.955L645.85 432.376L713.272 250.067H671.74V232.807H772.064V250.067H737.004L642.074 511.125C621.578 567.759 604.857 603.898 592.451 619.539C580.046 635.721 564.943 643.272 546.604 643.272Z" fill="black"/>
<path d="M502.01 626.057L504.079 623.884L504.054 623.86L504.028 623.837L502.01 626.057ZM496.617 546.229L498.805 548.281L498.84 548.243L498.874 548.204L496.617 546.229ZM558.105 544.071L560.383 542.119L560.308 542.031L560.227 541.95L558.105 544.071ZM558.645 601.245L560.849 603.28L560.849 603.28L558.645 601.245ZM532.755 612.033V609.033H525.512L530.633 614.154L532.755 612.033ZM579.68 600.706L582.012 602.593L582.04 602.559L582.067 602.524L579.68 600.706ZM609.346 539.756L612.159 540.798L612.161 540.793L609.346 539.756ZM616.897 519.26L619.712 520.297L620.115 519.205L619.675 518.127L616.897 519.26ZM507.943 252.269L510.721 251.135L509.959 249.269H507.943V252.269ZM476.12 252.269H473.12V255.269H476.12V252.269ZM476.12 228.536V225.536H473.12V228.536H476.12ZM632 228.536H635V225.536H632V228.536ZM632 252.269V255.269H635V252.269H632ZM601.256 252.269V249.269H596.815L598.472 253.388L601.256 252.269ZM658.969 395.743L656.186 396.862L659.165 404.27L661.801 396.733L658.969 395.743ZM709.131 252.269L711.963 253.259L713.358 249.269H709.131V252.269ZM674.611 252.269H671.611V255.269H674.611V252.269ZM674.611 228.536V225.536H671.611V228.536H674.611ZM771.698 228.536H774.698V225.536H771.698V228.536ZM771.698 252.269V255.269H774.698V252.269H771.698ZM742.033 252.269V249.269H739.916L739.206 251.264L742.033 252.269ZM650.339 510.091L653.161 511.107L653.165 511.096L650.339 510.091ZM600.716 616.348L598.388 614.456L598.388 614.456L600.716 616.348ZM549.475 639.238C529.515 639.238 514.699 633.998 504.079 623.884L499.941 628.229C511.975 639.69 528.443 645.238 549.475 645.238V639.238ZM504.028 623.837C492.945 613.761 487.75 600.1 487.75 581.288H481.75C481.75 601.312 487.343 616.777 499.992 628.276L504.028 623.837ZM487.75 581.288C487.75 567.235 491.386 556.195 498.805 548.281L494.428 544.177C485.666 553.523 481.75 566.215 481.75 581.288H487.75ZM498.874 548.204C505.731 540.368 515.611 536.284 528.979 536.284V530.284C514.3 530.284 502.605 534.83 494.359 544.253L498.874 548.204ZM528.979 536.284C540.742 536.284 549.634 539.843 555.984 546.193L560.227 541.95C552.553 534.276 542.028 530.284 528.979 530.284V536.284ZM555.828 546.024C561.801 552.993 565.354 561.995 565.354 573.737H571.354C571.354 560.668 567.355 550.253 560.383 542.119L555.828 546.024ZM565.354 573.737C565.354 584.459 562.308 592.854 556.44 599.21L560.849 603.28C567.926 595.613 571.354 585.668 571.354 573.737H565.354ZM556.44 599.21C550.575 605.565 542.765 609.033 532.755 609.033V615.033C544.32 615.033 553.769 610.95 560.849 603.28L556.44 599.21ZM530.633 614.154C533.208 616.728 535.797 617.991 538.652 619.133L540.881 613.562C538.343 612.547 536.617 611.652 534.876 609.911L530.633 614.154ZM538.652 619.133C541.995 620.47 545.875 620.427 549.475 620.427V614.427C545.525 614.427 542.932 614.383 540.881 613.562L538.652 619.133ZM549.475 620.427C561.398 620.427 572.436 614.423 582.012 602.593L577.349 598.818C568.586 609.642 559.128 614.427 549.475 614.427V620.427ZM582.067 602.524C590.974 590.833 601.346 569.996 612.159 540.798L606.533 538.714C595.772 567.77 585.647 587.925 577.294 598.888L582.067 602.524ZM612.161 540.793L619.712 520.297L614.082 518.223L606.531 538.719L612.161 540.793ZM619.675 518.127L510.721 251.135L505.166 253.402L614.12 520.394L619.675 518.127ZM507.943 249.269H476.12V255.269H507.943V249.269ZM479.12 252.269V228.536H473.12V252.269H479.12ZM476.12 231.536H632V225.536H476.12V231.536ZM629 228.536V252.269H635V228.536H629ZM632 249.269H601.256V255.269H632V249.269ZM598.472 253.388L656.186 396.862L661.752 394.623L604.039 251.149L598.472 253.388ZM661.801 396.733L711.963 253.259L706.299 251.279L656.137 394.753L661.801 396.733ZM709.131 249.269H674.611V255.269H709.131V249.269ZM677.611 252.269V228.536H671.611V252.269H677.611ZM674.611 231.536H771.698V225.536H674.611V231.536ZM768.698 228.536V252.269H774.698V228.536H768.698ZM771.698 249.269H742.033V255.269H771.698V249.269ZM739.206 251.264L647.512 509.085L653.165 511.096L744.859 253.274L739.206 251.264ZM647.516 509.074C628.081 563.061 612.045 597.647 598.388 614.456L603.044 618.24C617.435 600.528 633.762 564.995 653.161 511.107L647.516 509.074ZM598.388 614.456C584.86 631.106 568.957 639.238 549.475 639.238V645.238C570.986 645.238 588.525 636.11 603.044 618.24L598.388 614.456Z" fill="black"/>
<path d="M42.0714 623.839L43.8485 621.422L43.8485 621.422L42.0714 623.839ZM28.0476 534.303L25.863 532.246L25.8337 532.278L25.8053 532.309L28.0476 534.303ZM93.8515 530.527L95.9728 528.406L95.9304 528.363L95.8863 528.323L93.8515 530.527ZM93.8515 590.398L96.1798 592.289L96.1798 592.289L93.8515 590.398ZM65.8039 606.04L65.2673 603.088L59.6339 604.112L63.6826 608.161L65.8039 606.04ZM83.064 616.827L84.2178 614.058L84.1166 614.016L84.0126 613.981L83.064 616.827ZM160.734 596.87L158.423 594.958L158.407 594.977L158.392 594.996L160.734 596.87ZM186.085 520.818L189.068 521.139L189.072 521.094L189.076 521.048L186.085 520.818ZM190.4 488.995L193.365 489.451L190.4 488.995ZM195.254 460.947L198.165 461.675L192.788 459.24L195.254 460.947ZM160.195 492.771L158.853 490.087L158.812 490.108L158.772 490.129L160.195 492.771ZM48.5439 477.129L50.9701 475.364L50.9397 475.322L50.9079 475.282L48.5439 477.129ZM34.5201 402.695L37.4938 403.091L37.4969 403.068L37.4997 403.044L34.5201 402.695ZM51.7801 255.445L54.7597 255.794L55.1523 252.445H51.7801V255.445ZM15.1025 255.445L12.1313 255.03L11.6549 258.445H15.1025V255.445ZM18.3388 232.252V229.252H15.7283L15.3676 231.837L18.3388 232.252ZM93.3121 230.634L93.1544 227.638L93.1544 227.638L93.3121 230.634ZM137.002 225.24L137.864 222.366L137.074 222.13L136.274 222.329L137.002 225.24ZM153.183 230.094L156.16 230.463L156.472 227.949L154.045 227.221L153.183 230.094ZM130.529 412.943L133.503 413.339L133.505 413.326L133.506 413.312L130.529 412.943ZM132.147 449.081L129.39 450.263L129.39 450.263L132.147 449.081ZM182.849 439.372L185.447 440.871L185.447 440.871L182.849 439.372ZM200.648 374.647L203.623 375.033L203.625 375.022L203.626 375.011L200.648 374.647ZM215.211 255.445L218.189 255.809L218.6 252.445H215.211V255.445ZM186.624 255.445L183.653 255.03L183.177 258.445H186.624V255.445ZM189.86 232.252V229.252H187.25L186.889 231.837L189.86 232.252ZM258.361 230.634L258.199 227.638L258.199 227.638L258.361 230.634ZM300.433 225.24L301.295 222.366L300.481 222.122L299.66 222.341L300.433 225.24ZM316.614 230.094L319.591 230.461L319.901 227.948L317.476 227.221L316.614 230.094ZM287.488 466.341L284.51 465.974L284.51 465.975L287.488 466.341ZM234.629 601.185L236.77 603.286L236.771 603.286L234.629 601.185ZM113.808 640.796C84.5704 640.796 61.5244 634.419 43.8485 621.422L40.2942 626.256C59.2958 640.228 83.715 646.796 113.808 646.796V640.796ZM43.8485 621.422C26.2506 608.482 18.1025 592.106 18.1025 572.059H12.1025C12.1025 594.083 21.2145 612.227 40.2942 626.256L43.8485 621.422ZM18.1025 572.059C18.1025 557.009 22.2348 545.357 30.2898 536.296L25.8053 532.309C16.6002 542.665 12.1025 555.825 12.1025 572.059H18.1025ZM30.2322 536.359C38.1795 527.915 49.7249 523.279 64.7252 523.279V517.279C48.4416 517.279 35.1756 522.352 25.863 532.246L30.2322 536.359ZM64.7252 523.279C76.4928 523.279 85.4387 526.844 91.8166 532.731L95.8863 528.323C88.2404 521.265 77.7688 517.279 64.7252 517.279V523.279ZM91.7302 532.648C98.0929 539.011 101.639 547.912 101.639 559.114H107.639C107.639 546.583 103.634 536.067 95.9728 528.406L91.7302 532.648ZM101.639 559.114C101.639 570.847 98.0901 580.423 91.5231 588.506L96.1798 592.289C103.637 583.112 107.639 572.192 107.639 559.114H101.639ZM91.5231 588.506C85.0421 596.483 76.5634 601.034 65.2673 603.088L66.3406 608.991C78.777 606.73 88.637 601.573 96.1798 592.289L91.5231 588.506ZM63.6826 608.161C68.8453 613.324 75.1736 617.359 82.1153 619.673L84.0126 613.981C78.0093 611.98 72.4713 608.464 67.9252 603.918L63.6826 608.161ZM81.9101 619.596C88.8778 622.5 96.8616 623.603 105.718 623.603V617.603C97.3139 617.603 90.1951 616.548 84.2178 614.058L81.9101 619.596ZM105.718 623.603C130.153 623.603 149.444 615.786 163.077 598.744L158.392 594.996C146.134 610.317 128.748 617.603 105.718 617.603V623.603ZM163.045 598.783C176.542 582.474 185.267 556.429 189.068 521.139L183.102 520.497C179.351 555.327 170.816 579.982 158.423 594.958L163.045 598.783ZM189.076 521.048C189.605 514.177 191.2 503.523 193.365 489.451L187.435 488.539C185.285 502.515 183.644 513.436 183.094 520.588L189.076 521.048ZM193.365 489.451C195.532 475.368 197.128 465.823 198.165 461.675L192.344 460.22C191.223 464.702 189.583 474.575 187.435 488.539L193.365 489.451ZM192.788 459.24C183.295 472.951 172.326 483.351 158.853 490.087L161.536 495.454C176.111 488.167 187.796 476.991 197.721 462.655L192.788 459.24ZM158.772 490.129C145.3 497.384 129.641 500.558 111.651 500.558V506.558C130.338 506.558 147.042 503.26 161.617 495.412L158.772 490.129ZM111.651 500.558C83.117 500.558 63.1646 492.132 50.9701 475.364L46.1177 478.893C59.8132 497.725 81.9321 506.558 111.651 506.558V500.558ZM50.9079 475.282C38.1074 458.897 33.2369 435.017 37.4938 403.091L31.5464 402.298C27.1732 435.097 32.0115 460.84 46.1798 478.976L50.9079 475.282ZM37.4997 403.044L54.7597 255.794L48.8005 255.096L31.5405 402.345L37.4997 403.044ZM51.7801 252.445H15.1025V258.445H51.7801V252.445ZM18.0738 255.86L21.31 232.666L15.3676 231.837L12.1313 255.03L18.0738 255.86ZM18.3388 235.252C48.0367 235.252 72.904 234.712 93.4698 233.63L93.1544 227.638C72.7277 228.713 47.9723 229.252 18.3388 229.252V235.252ZM93.4698 233.63C114.07 232.545 128.843 230.372 137.729 228.15L136.274 222.329C127.9 224.423 113.546 226.565 93.1544 227.638L93.4698 233.63ZM136.14 228.113L152.321 232.968L154.045 227.221L137.864 222.366L136.14 228.113ZM150.206 229.725L127.552 412.574L133.506 413.312L156.16 230.463L150.206 229.725ZM127.555 412.546C125.385 428.824 125.816 441.923 129.39 450.263L134.905 447.899C132.006 441.136 131.358 429.424 133.503 413.339L127.555 412.546ZM129.39 450.263C131.236 454.57 134.071 457.924 137.917 460.168C141.729 462.391 146.333 463.408 151.565 463.408V457.408C147.088 457.408 143.601 456.537 140.94 454.985C138.314 453.453 136.295 451.144 134.905 447.899L129.39 450.263ZM151.565 463.408C165.886 463.408 176.992 455.526 185.447 440.871L180.25 437.873C172.523 451.266 163.133 457.408 151.565 457.408V463.408ZM185.447 440.871C193.836 426.331 199.831 404.284 203.623 375.033L197.673 374.262C193.913 403.263 188.042 424.366 180.25 437.873L185.447 440.871ZM203.626 375.011L218.189 255.809L212.233 255.081L197.67 374.283L203.626 375.011ZM215.211 252.445H186.624V258.445H215.211V252.445ZM189.595 255.86L192.832 232.666L186.889 231.837L183.653 255.03L189.595 255.86ZM189.86 235.252C215.79 235.252 238.5 234.712 258.523 233.629L258.199 227.638C238.309 228.713 215.711 229.252 189.86 229.252V235.252ZM258.523 233.629C278.582 232.545 292.834 230.371 301.206 228.139L299.66 222.341C291.85 224.424 278.055 226.565 258.199 227.638L258.523 233.629ZM299.571 228.113L315.752 232.968L317.476 227.221L301.295 222.366L299.571 228.113ZM313.636 229.727L284.51 465.974L290.465 466.708L319.591 230.461L313.636 229.727ZM284.51 465.975C276.996 527.16 259.336 571.709 232.487 599.085L236.771 603.286C264.938 574.566 282.877 528.5 290.465 466.707L284.51 465.975ZM232.487 599.084C205.17 626.927 166.134 640.796 113.808 640.796V646.796C167.201 646.796 207.993 632.617 236.77 603.286L232.487 599.084Z" fill="black"/>
</svg>
